<svg width="20" height="20" viewBox="0 0 20 20" fill="none" xmlns="http://www.w3.org/2000/svg">
<g clip-path="url(#clip0_2337_15830)">
<path fill-rule="evenodd" clip-rule="evenodd" d="M5.30953 3.59568C6.55788 2.35982 8.24354 1.6666 10.0002 1.66669C11.7568 1.6666 13.4425 2.35982 14.6908 3.59568C15.9391 4.83154 16.6493 6.51016 16.6668 8.26669C16.6668 12.8334 10.8335 17.9167 10.5418 18.1334C10.3909 18.2625 10.1988 18.3334 10.0002 18.3334C9.80154 18.3334 9.60944 18.2625 9.4585 18.1334L9.45713 18.1322C9.18793 17.8989 3.3335 12.8254 3.3335 8.26669C3.35106 6.51016 4.06119 4.83154 5.30953 3.59568ZM8.884 10.6113C9.23787 10.7579 9.61714 10.8334 10.0002 10.8334C10.7737 10.8334 11.5156 10.5261 12.0626 9.97908C12.6095 9.4321 12.9168 8.69024 12.9168 7.91669C12.9168 7.14314 12.6095 6.40127 12.0626 5.85429C11.5156 5.30731 10.7737 5.00002 10.0002 5.00002C9.61714 5.00002 9.23787 5.07546 8.884 5.22204C8.53014 5.36861 8.20861 5.58345 7.93777 5.85429C7.66693 6.12513 7.45209 6.44666 7.30551 6.80053C7.15894 7.15439 7.0835 7.53367 7.0835 7.91669C7.0835 8.29971 7.15894 8.67898 7.30551 9.03285C7.45209 9.38671 7.66693 9.70824 7.93777 9.97908C8.20861 10.2499 8.53014 10.4648 8.884 10.6113ZM10.884 8.80057C10.6496 9.03499 10.3317 9.16669 10.0002 9.16669C9.66864 9.16669 9.3507 9.03499 9.11628 8.80057C8.88186 8.56615 8.75016 8.24821 8.75016 7.91669C8.75016 7.58517 8.88186 7.26722 9.11628 7.0328C9.3507 6.79838 9.66864 6.66669 10.0002 6.66669C10.3317 6.66669 10.6496 6.79838 10.884 7.0328C11.1185 7.26722 11.2502 7.58517 11.2502 7.91669C11.2502 8.24821 11.1185 8.56615 10.884 8.80057Z" fill="#1C1D22"/>
</g>
<defs>
<clipPath id="clip0_2337_15830">
<rect width="20" height="20" fill="white"/>
</clipPath>
</defs>
</svg>
