<svg width="20" height="20" viewBox="0 0 20 20" fill="none" xmlns="http://www.w3.org/2000/svg">
<g id="Icon/Phone" clip-path="url(#clip0_4369_21593)">
<path id="Vector" d="M14.4998 18.3328C11.0976 18.3284 7.83593 16.9749 5.43017 14.5691C3.02441 12.1633 1.67091 8.9017 1.6665 5.49944C1.6665 4.48278 2.07037 3.50776 2.78926 2.78887C3.50815 2.06998 4.48317 1.66611 5.49984 1.66611C5.71512 1.66447 5.93004 1.68401 6.1415 1.72444C6.34567 1.75444 6.5465 1.80528 6.7415 1.87444C6.87838 1.92247 7.00034 2.00539 7.09535 2.115C7.19035 2.22462 7.25509 2.35713 7.28317 2.49944L8.42484 7.49944C8.45561 7.63516 8.4519 7.77643 8.41406 7.91035C8.37621 8.04427 8.30543 8.16657 8.20817 8.26611C8.09984 8.38278 8.0915 8.39111 7.0665 8.92444C7.88733 10.7252 9.3275 12.1712 11.1248 12.9994C11.6665 11.9661 11.6748 11.9578 11.7915 11.8494C11.891 11.7522 12.0133 11.6814 12.1473 11.6436C12.2812 11.6057 12.4225 11.602 12.5582 11.6328L17.5582 12.7744C17.6959 12.8065 17.8232 12.873 17.9282 12.9677C18.0331 13.0625 18.1123 13.1824 18.1582 13.3161C18.2997 13.7146 18.3702 14.1349 18.3665 14.5578C18.3511 15.5701 17.9359 16.5352 17.2115 17.2425C16.487 17.9497 15.5122 18.3417 14.4998 18.3328Z" fill="#5D75EF"/>
</g>
<defs>
<clipPath id="clip0_4369_21593">
<rect width="20" height="20" fill="white"/>
</clipPath>
</defs>
</svg>
