<svg width="20" height="20" viewBox="0 0 20 20" fill="none" xmlns="http://www.w3.org/2000/svg">
<g id="Icon/TV">
<path id="Vector" d="M3.37984 14.4046H16.6198C17.1932 14.4046 17.6221 14.2656 17.9065 13.9875C18.1909 13.7094 18.3332 13.2768 18.3332 12.6895V5.04188C18.3332 4.45907 18.1909 4.02864 17.9065 3.75058C17.6221 3.47252 17.1932 3.3335 16.6198 3.3335H3.37984C2.81095 3.3335 2.38317 3.47252 2.0965 3.75058C1.80984 4.02864 1.6665 4.45907 1.6665 5.04188V12.6895C1.6665 13.2768 1.80984 13.7094 2.0965 13.9875C2.38317 14.2656 2.81095 14.4046 3.37984 14.4046ZM6.6465 16.6668H13.3531C13.4998 16.6668 13.6265 16.6146 13.7332 16.5101C13.8398 16.4055 13.8932 16.2776 13.8932 16.1263C13.8932 15.9795 13.8398 15.8527 13.7332 15.7459C13.6265 15.6392 13.4998 15.5858 13.3531 15.5858H6.6465C6.49983 15.5858 6.37316 15.6392 6.2665 15.7459C6.15983 15.8527 6.1065 15.9795 6.1065 16.1263C6.1065 16.2776 6.15983 16.4055 6.2665 16.5101C6.37316 16.6146 6.49983 16.6668 6.6465 16.6668Z" fill="#5D75EF"/>
</g>
</svg>
