<svg width="20" height="20" viewBox="0 0 20 20" fill="none" xmlns="http://www.w3.org/2000/svg">
<g clip-path="url(#clip0_2444_4448)">
<path fill-rule="evenodd" clip-rule="evenodd" d="M9.3452 0.833008C7.17557 0.833008 5.41661 2.59197 5.41661 4.7616V5.41637C5.41661 7.14245 6.37069 8.64564 7.78035 9.42728C7.73329 9.61026 7.7083 9.80203 7.7083 9.99962H1.48802C1.12643 9.99962 0.833252 10.2928 0.833252 10.6544C0.833252 12.824 2.59222 14.583 4.76185 14.583H5.41661C7.14269 14.583 8.64588 13.6289 9.42752 12.2192C9.61051 12.2663 9.80228 12.2913 9.99987 12.2913V18.5116C9.99987 18.8732 10.293 19.1663 10.6546 19.1663C12.8243 19.1663 14.5832 17.4074 14.5832 15.2377V14.583C14.5832 12.8569 13.6291 11.3537 12.2195 10.5721C12.2665 10.3891 12.2915 10.1973 12.2915 9.99973H18.5118C18.8734 9.99973 19.1666 9.70654 19.1666 9.34496C19.1666 7.17533 17.4076 5.41636 15.238 5.41636H14.5832C12.8571 5.41636 11.354 6.37045 10.5723 7.78011C10.3893 7.73305 10.1976 7.70805 9.99997 7.70805V1.48777C9.99997 1.12619 9.70679 0.833008 9.3452 0.833008ZM9.99997 11.1454C10.6328 11.1454 11.1458 10.6324 11.1458 9.99955C11.1458 9.36671 10.6328 8.85371 9.99997 8.85371C9.36713 8.85371 8.85413 9.36671 8.85413 9.99955C8.85413 10.6324 9.36713 11.1454 9.99997 11.1454Z" fill="#5D75EF"/>
</g>
<defs>
<clipPath id="clip0_2444_4448">
<rect width="20" height="20" fill="white"/>
</clipPath>
</defs>
</svg>
