<svg width="20" height="20" viewBox="0 0 20 20" fill="none" xmlns="http://www.w3.org/2000/svg">
<g id="Icon/Multiroom" clip-path="url(#clip0_2659_7088)">
<path id="Vector" fill-rule="evenodd" clip-rule="evenodd" d="M5.8335 1.66699H14.1668C14.8299 1.66699 15.4658 1.93038 15.9346 2.39923C16.4034 2.86807 16.6668 3.50395 16.6668 4.16699V15.8337C16.6668 16.4967 16.4034 17.1326 15.9346 17.6014C15.4658 18.0703 14.8299 18.3337 14.1668 18.3337H5.8335C5.17045 18.3337 4.53457 18.0703 4.06573 17.6014C3.59689 17.1326 3.3335 16.4967 3.3335 15.8337V4.16699C3.3335 3.50395 3.59689 2.86807 4.06573 2.39923C4.53457 1.93038 5.17045 1.66699 5.8335 1.66699ZM11.7679 4.89923C11.2991 4.43038 10.6632 4.16699 10.0002 4.16699C9.33712 4.16699 8.70124 4.43038 8.2324 4.89923C7.76355 5.36807 7.50016 6.00395 7.50016 6.66699C7.50016 7.33003 7.76355 7.96592 8.2324 8.43476C8.70124 8.9036 9.33712 9.16699 10.0002 9.16699C10.6632 9.16699 11.2991 8.9036 11.7679 8.43476C12.2368 7.96592 12.5002 7.33003 12.5002 6.66699C12.5002 6.00395 12.2368 5.36807 11.7679 4.89923ZM8.884 15.6116C9.23787 15.7582 9.61714 15.8337 10.0002 15.8337C10.7737 15.8337 11.5156 15.5264 12.0626 14.9794C12.6095 14.4324 12.9168 13.6905 12.9168 12.917C12.9168 12.1434 12.6095 11.4016 12.0626 10.8546C11.5156 10.3076 10.7737 10.0003 10.0002 10.0003C9.61714 10.0003 9.23787 10.0758 8.884 10.2223C8.53014 10.3689 8.20861 10.5838 7.93777 10.8546C7.66693 11.1254 7.45209 11.447 7.30551 11.8008C7.15894 12.1547 7.0835 12.534 7.0835 12.917C7.0835 13.3 7.15894 13.6793 7.30551 14.0332C7.45209 14.387 7.66693 14.7086 7.93777 14.9794C8.20861 15.2502 8.53014 15.4651 8.884 15.6116ZM10.0002 7.50033C10.2212 7.50033 10.4331 7.41253 10.5894 7.25625C10.7457 7.09997 10.8335 6.88801 10.8335 6.66699C10.8335 6.44598 10.7457 6.23402 10.5894 6.07774C10.4331 5.92146 10.2212 5.83366 10.0002 5.83366C9.77915 5.83366 9.56719 5.92146 9.41091 6.07774C9.25463 6.23402 9.16683 6.44598 9.16683 6.66699C9.16683 6.88801 9.25463 7.09997 9.41091 7.25625C9.56719 7.41253 9.77915 7.50033 10.0002 7.50033ZM10.0002 14.167C10.3317 14.167 10.6496 14.0353 10.884 13.8009C11.1185 13.5665 11.2502 13.2485 11.2502 12.917C11.2502 12.5855 11.1185 12.2675 10.884 12.0331C10.6496 11.7987 10.3317 11.667 10.0002 11.667C9.66864 11.667 9.3507 11.7987 9.11628 12.0331C8.88186 12.2675 8.75016 12.5855 8.75016 12.917C8.75016 13.2485 8.88186 13.5665 9.11628 13.8009C9.3507 14.0353 9.66864 14.167 10.0002 14.167Z" fill="#5D75EF"/>
</g>
<defs>
<clipPath id="clip0_2659_7088">
<rect width="20" height="20" fill="white"/>
</clipPath>
</defs>
</svg>
