<svg width="20" height="20" viewBox="0 0 20 20" fill="none" xmlns="http://www.w3.org/2000/svg">
<g id="Icon/Moon" clip-path="url(#clip0_2659_5298)">
<path id="Vector" d="M10.2501 18.3366H10.1668C9.02391 18.3279 7.89424 18.0913 6.84395 17.6405C5.79365 17.1898 4.84384 16.534 4.05014 15.7116C2.57835 14.1377 1.74171 12.0744 1.7017 9.91992C1.66169 7.76542 2.42114 5.67247 3.83348 4.04498C4.74338 3.02527 5.88725 2.24172 7.16681 1.76165C7.31611 1.7042 7.4788 1.69093 7.63543 1.72344C7.79207 1.75595 7.93604 1.83286 8.05014 1.94498C8.15582 2.05275 8.23025 2.1872 8.26548 2.33397C8.3007 2.48074 8.2954 2.63432 8.25014 2.77832C7.79344 4.02909 7.70296 5.38419 7.98931 6.68458C8.27566 7.98498 8.92697 9.17673 9.86681 10.12C10.8154 11.0569 12.01 11.706 13.3122 11.9922C14.6145 12.2783 15.9712 12.1897 17.2251 11.7366C17.3744 11.6841 17.5355 11.6752 17.6897 11.7108C17.8439 11.7465 17.9847 11.8253 18.0957 11.9381C18.2067 12.0508 18.2833 12.1929 18.3166 12.3476C18.3498 12.5023 18.3383 12.6632 18.2835 12.8116C17.8578 13.9481 17.1927 14.9797 16.3335 15.8366C15.5341 16.6335 14.5852 17.2646 13.5412 17.6936C12.4973 18.1226 11.3788 18.3411 10.2501 18.3366Z" fill="#5D75EF"/>
</g>
<defs>
<clipPath id="clip0_2659_5298">
<rect width="20" height="20" fill="white"/>
</clipPath>
</defs>
</svg>
