<svg width="20" height="20" viewBox="0 0 20 20" fill="none" xmlns="http://www.w3.org/2000/svg">
<g clip-path="url(#clip0_1972_14828)">
<path fill-rule="evenodd" clip-rule="evenodd" d="M16.1137 6.89767L18.9706 9.55997C19.215 9.78778 19.2346 10.1783 18.9999 10.4156C18.8875 10.529 18.7336 10.5944 18.5718 10.5973C18.41 10.6003 18.2537 10.5407 18.137 10.4315L10.2109 3.05425C10.1541 3.00113 10.0783 2.97147 9.9995 2.97147C9.92069 2.97147 9.84493 3.00113 9.78804 3.05425L1.86284 10.4315C1.80309 10.4876 1.73223 10.5313 1.65457 10.5598C1.57692 10.5883 1.49411 10.6011 1.4112 10.5974C1.3283 10.5937 1.24704 10.5736 1.1724 10.5382C1.09777 10.5029 1.03131 10.4531 0.977103 10.3918C0.875108 10.273 0.823612 10.1206 0.833155 9.96597C0.842699 9.81132 0.91256 9.66608 1.02844 9.55997L9.15246 1.98822C9.35943 1.78343 9.66663 1.66675 9.99827 1.66675C10.3307 1.66675 10.6387 1.78343 10.8457 1.98743L13.058 4.04805V2.8574C13.058 2.69951 13.1224 2.54809 13.237 2.43644C13.3516 2.32479 13.5071 2.26207 13.6692 2.26207H15.5026C15.6646 2.26207 15.8201 2.32479 15.9347 2.43644C16.0493 2.54809 16.1137 2.69951 16.1137 2.8574V6.89767ZM9.99758 4.16006C10.0762 4.16006 10.1518 4.18957 10.2086 4.24246L17.2383 10.7863C17.2682 10.814 17.292 10.8474 17.3082 10.8844C17.3245 10.9214 17.3329 10.9612 17.3328 11.0014V17.1428C17.3328 17.4585 17.2041 17.7614 16.9748 17.9847C16.7456 18.208 16.4347 18.3334 16.1106 18.3334H12.4413C12.2792 18.3334 12.1238 18.2707 12.0092 18.159C11.8946 18.0474 11.8302 17.896 11.8302 17.7381V12.6778C11.8302 12.5989 11.798 12.5232 11.7407 12.4673C11.6834 12.4115 11.6056 12.3802 11.5246 12.3802H8.46893C8.38789 12.3802 8.31017 12.4115 8.25286 12.4673C8.19556 12.5232 8.16336 12.5989 8.16336 12.6778V17.7381C8.16336 17.896 8.09898 18.0474 7.98436 18.159C7.86975 18.2707 7.71431 18.3334 7.55223 18.3334H3.88134C3.55717 18.3334 3.24629 18.208 3.01707 17.9847C2.78785 17.7614 2.65907 17.4585 2.65907 17.1428L2.6607 11.0014C2.66057 10.9612 2.66881 10.9214 2.68491 10.8845C2.70102 10.8475 2.72466 10.8141 2.75441 10.7863L9.78654 4.24246C9.84339 4.18957 9.91897 4.16006 9.99758 4.16006Z" fill="#5D75EF"/>
</g>
<defs>
<clipPath id="clip0_1972_14828">
<rect width="20" height="20" fill="white"/>
</clipPath>
</defs>
</svg>
