<svg width="20" height="20" viewBox="0 0 20 20" fill="none" xmlns="http://www.w3.org/2000/svg">
<g id="Icon/Lock">
<path id="Vector" d="M9.99982 19.1673C10.0813 19.1673 10.1815 19.1535 10.3004 19.1259C10.4192 19.0982 10.5431 19.0536 10.6722 18.992C12.1256 18.3035 13.343 17.6826 14.3244 17.1293C15.3058 16.5759 16.0902 16.0288 16.6776 15.4877C17.2652 14.9467 17.688 14.3642 17.946 13.7401C18.2041 13.1161 18.3332 12.3891 18.3332 11.5592V4.60579C18.3332 4.13239 18.2228 3.79117 18.0021 3.58214C17.7813 3.37311 17.457 3.18867 17.0292 3.02882C16.7915 2.9366 16.4655 2.81979 16.0512 2.67838C15.6369 2.53698 15.1802 2.38328 14.681 2.21729C14.1818 2.05129 13.6826 1.88529 13.1833 1.71929C12.6842 1.5533 12.2292 1.40421 11.8183 1.27203C11.4074 1.13985 11.0831 1.03687 10.8454 0.963093C10.7095 0.926204 10.5703 0.895465 10.4277 0.870873C10.2851 0.846281 10.1424 0.833984 9.99982 0.833984C9.85719 0.833984 9.71627 0.846281 9.57704 0.870873C9.43781 0.895465 9.30028 0.926204 9.16445 0.963093C8.92674 1.03687 8.60074 1.13985 8.18646 1.27203C7.77217 1.40421 7.31543 1.55176 6.81624 1.71468C6.31706 1.87761 5.81788 2.0436 5.3187 2.21268C4.81951 2.38174 4.36277 2.53852 3.94849 2.68299C3.5342 2.82747 3.2082 2.94274 2.97049 3.02882C2.54941 3.18252 2.22681 3.36542 2.00269 3.57753C1.77857 3.78963 1.6665 4.13239 1.6665 4.60579V11.5592C1.6665 12.3891 1.80064 13.11 2.06891 13.7217C2.33718 14.3335 2.76844 14.9021 3.36271 15.4278C3.95698 15.9534 4.7448 16.496 5.72619 17.0555C6.70758 17.6149 7.908 18.2604 9.32745 18.992C9.45649 19.0536 9.58044 19.0982 9.69929 19.1259C9.81814 19.1535 9.91832 19.1673 9.99982 19.1673ZM6.2101 13.422V9.64099C6.2101 8.98315 6.51572 8.63579 7.12697 8.5989V7.48304C7.12697 6.60388 7.39184 5.89686 7.92158 5.36199C8.45133 4.82711 9.14407 4.55967 9.99982 4.55967C10.8556 4.55967 11.5483 4.82711 12.0781 5.36199C12.6078 5.89686 12.8727 6.60388 12.8727 7.48304V8.5989C13.4907 8.63579 13.7998 8.98315 13.7998 9.64099V13.422C13.7998 14.1167 13.4398 14.4641 12.7199 14.4641H7.27978C6.56666 14.4641 6.2101 14.1167 6.2101 13.422ZM8.2272 8.58968H11.7724V7.37238C11.7724 6.81906 11.6111 6.37179 11.2885 6.03058C10.9659 5.68936 10.5364 5.51876 9.99982 5.51876C9.47007 5.51876 9.0422 5.68936 8.7162 6.03058C8.3902 6.37179 8.2272 6.81906 8.2272 7.37238V8.58968Z" fill="#5D75EF"/>
</g>
</svg>
