<svg width="20" height="20" viewBox="0 0 20 20" fill="none" xmlns="http://www.w3.org/2000/svg">
<g id="Icon/Voice">
<path id="Vector" d="M1.52085 11.8058C1.72133 11.8058 1.88744 11.7371 2.01918 11.5996C2.15092 11.4621 2.21679 11.2989 2.21679 11.1099V8.50654C2.21679 8.31751 2.15092 8.15283 2.01918 8.0125C1.88744 7.87216 1.72133 7.802 1.52085 7.802C1.3261 7.802 1.16285 7.87216 1.03111 8.0125C0.899367 8.15283 0.833496 8.31751 0.833496 8.50654V11.1099C0.833496 11.2989 0.899367 11.4621 1.03111 11.5996C1.16285 11.7371 1.3261 11.8058 1.52085 11.8058ZM4.40772 15.3199C4.6082 15.3199 4.77574 15.2526 4.91034 15.118C5.04495 14.9834 5.11225 14.8187 5.11225 14.6239V4.99246C5.11225 4.7977 5.04495 4.63159 4.91034 4.49413C4.77574 4.35665 4.6082 4.28792 4.40772 4.28792C4.21297 4.28792 4.05116 4.35665 3.92228 4.49413C3.7934 4.63159 3.72896 4.7977 3.72896 4.99246V14.6239C3.72896 14.8187 3.7934 14.9834 3.92228 15.118C4.05116 15.2526 4.21297 15.3199 4.40772 15.3199ZM7.29459 18.7824C7.49507 18.7824 7.66261 18.7151 7.79722 18.5805C7.93182 18.4459 7.99912 18.2812 7.99912 18.0865V1.52993C7.99912 1.33518 7.93182 1.1705 7.79722 1.03589C7.66261 0.901288 7.49507 0.833984 7.29459 0.833984C7.09984 0.833984 6.93803 0.901288 6.80915 1.03589C6.68027 1.1705 6.61584 1.33518 6.61584 1.52993V18.0865C6.61584 18.2812 6.68027 18.4459 6.80915 18.5805C6.93803 18.7151 7.09984 18.7824 7.29459 18.7824ZM10.1986 14.2717C10.3934 14.2717 10.5567 14.2058 10.6884 14.074C10.8201 13.9423 10.886 13.7791 10.886 13.5843V6.03208C10.886 5.83732 10.8201 5.67264 10.6884 5.53804C10.5567 5.40343 10.3934 5.33613 10.1986 5.33613C9.99814 5.33613 9.83203 5.40343 9.70029 5.53804C9.56857 5.67264 9.50271 5.83732 9.50271 6.03208V13.5843C9.50271 13.7791 9.56857 13.9423 9.70029 14.074C9.83203 14.2058 9.99814 14.2717 10.1986 14.2717ZM12.3981 11.7285C12.6044 11.6139 12.8321 11.5509 13.0812 11.5395C13.3304 11.528 13.5638 11.571 13.7815 11.6684V3.42873C13.7815 3.23971 13.7142 3.07647 13.5795 2.93899C13.4449 2.80153 13.2803 2.73279 13.0855 2.73279C12.8851 2.73279 12.7204 2.80153 12.5915 2.93899C12.4626 3.07647 12.3981 3.23971 12.3981 3.42873V11.7285ZM13.833 18.9542H18.2063C18.3438 18.9542 18.454 18.9127 18.5371 18.8297C18.6201 18.7466 18.6617 18.6363 18.6617 18.4989C18.6617 18.3614 18.6201 18.2483 18.5371 18.1595C18.454 18.0707 18.3438 18.0263 18.2063 18.0263H16.4879V17.1672C17.055 17.0984 17.5519 16.918 17.9786 16.6258C18.4053 16.3337 18.7389 15.9557 18.9795 15.4918C19.2201 15.0278 19.3404 14.5037 19.3404 13.9195V13.1633C19.3404 13.043 19.2946 12.9371 19.2029 12.8455C19.1113 12.7538 19.0054 12.708 18.8851 12.708C18.759 12.708 18.6516 12.7538 18.5629 12.8455C18.4741 12.9371 18.4297 13.043 18.4297 13.1633V13.9195C18.4297 14.3891 18.3266 14.8044 18.1203 15.1653C17.9142 15.5261 17.6306 15.8082 17.2697 16.0116C16.9089 16.2149 16.4908 16.3166 16.0154 16.3166C15.5399 16.3166 15.1218 16.2149 14.761 16.0116C14.4001 15.8082 14.118 15.5261 13.9147 15.1653C13.7113 14.8044 13.6096 14.3891 13.6096 13.9195V13.1633C13.6096 13.043 13.5638 12.9371 13.4721 12.8455C13.3805 12.7538 13.2717 12.708 13.1456 12.708C13.0254 12.708 12.9209 12.7538 12.8321 12.8455C12.7433 12.9371 12.6989 13.043 12.6989 13.1633V13.9195C12.6989 14.5037 12.8177 15.0278 13.0554 15.4918C13.2932 15.9557 13.6268 16.3352 14.0564 16.6301C14.486 16.9251 14.9872 17.1041 15.56 17.1672V18.0263H13.833C13.6955 18.0263 13.5838 18.0707 13.4979 18.1595C13.412 18.2483 13.369 18.3614 13.369 18.4989C13.369 18.6363 13.412 18.7466 13.4979 18.8297C13.5838 18.9127 13.6955 18.9542 13.833 18.9542ZM16.0154 15.4487C16.4392 15.4487 16.7829 15.3041 17.0463 15.0149C17.3099 14.7256 17.4416 14.3633 17.4416 13.928V10.5514C17.4416 10.116 17.3099 9.7552 17.0463 9.46886C16.7829 9.18244 16.4392 9.03923 16.0154 9.03923C15.5915 9.03923 15.2478 9.18244 14.9843 9.46886C14.7209 9.7552 14.5891 10.116 14.5891 10.5514V13.928C14.5891 14.3633 14.7209 14.7256 14.9843 15.0149C15.2478 15.3041 15.5915 15.4487 16.0154 15.4487Z" fill="#5D75EF"/>
</g>
</svg>
