<svg width="20" height="20" viewBox="0 0 20 20" fill="none" xmlns="http://www.w3.org/2000/svg">
<g clip-path="url(#clip0_2071_16297)">
<path fill-rule="evenodd" clip-rule="evenodd" d="M2.60434 7.22825C2.16967 8.0892 1.93077 9.0356 1.90476 9.99968C1.93084 10.9637 2.16976 11.9101 2.60443 12.7711C3.03909 13.632 3.65875 14.3862 4.41904 14.9797C4.56412 15.1003 4.67017 15.2612 4.72374 15.4421C4.77731 15.6229 4.77601 15.8156 4.71999 15.9957C4.67313 16.1452 4.59024 16.2807 4.47863 16.3906C4.36702 16.5004 4.23011 16.5812 4.07996 16.6257C3.9298 16.6701 3.77101 16.677 3.61756 16.6457C3.46411 16.6144 3.32071 16.5459 3.2 16.4461C2.22317 15.6749 1.42953 14.6968 0.876199 13.5821C0.322869 12.4674 0.0236216 11.2439 0 9.99968C0.0236216 8.75547 0.322869 7.53197 0.876199 6.41728C1.42953 5.30258 2.22317 4.32442 3.2 3.55321C3.39449 3.39158 3.64523 3.31382 3.89706 3.33704C4.02176 3.34853 4.14297 3.38447 4.25377 3.4428C4.36458 3.50113 4.46281 3.58071 4.54285 3.677C4.70451 3.87145 4.78228 4.12215 4.75906 4.37394C4.73584 4.62573 4.61353 4.85799 4.41904 5.01961C3.6587 5.61308 3.03901 6.36729 2.60434 7.22825ZM14.4189 5.46335C14.2241 5.3339 13.9884 5.28067 13.7569 5.31382C13.5253 5.34697 13.314 5.46416 13.1633 5.64307C13.0127 5.82197 12.9331 6.05006 12.9398 6.28385C12.9466 6.51765 13.0391 6.74078 13.1999 6.91071C13.6705 7.27902 14.0544 7.7463 14.3243 8.27946C14.5942 8.81261 14.7436 9.39859 14.7618 9.99587C14.7436 10.5932 14.5942 11.1791 14.3243 11.7123C14.0544 12.2454 13.6705 12.7127 13.1999 13.081C13.0525 13.207 12.9471 13.375 12.8978 13.5624C12.8484 13.7499 12.8575 13.948 12.9238 14.1302C12.99 14.3124 13.1103 14.47 13.2686 14.582C13.4268 14.694 13.6155 14.755 13.8094 14.7569C14.0331 14.7547 14.2489 14.6738 14.4189 14.5284C15.1061 13.9866 15.6642 13.2989 16.0529 12.515C16.4416 11.7312 16.6512 10.8707 16.6665 9.99587C16.6512 9.12106 16.4416 8.26059 16.0529 7.4767C15.6642 6.69282 15.1061 6.00511 14.4189 5.46335ZM6.27107 5.24879C6.52063 5.27017 6.75171 5.38899 6.91428 5.57952C7.07439 5.7721 7.15217 6.02 7.13078 6.26951C7.10939 6.51903 6.99055 6.75008 6.79999 6.91261C6.32935 7.28092 5.94547 7.74821 5.67555 8.28136C5.40564 8.81451 5.25629 9.40049 5.23809 9.99777C5.25629 10.5951 5.40564 11.181 5.67555 11.7142C5.94547 12.2473 6.32935 12.7146 6.79999 13.0829C6.99055 13.2455 7.10939 13.4765 7.13078 13.726C7.15217 13.9755 7.07439 14.2234 6.91428 14.416C6.75171 14.6066 6.52063 14.7254 6.27107 14.7468C6.0215 14.7681 5.77356 14.6904 5.58094 14.5303C4.89379 13.9885 4.33566 13.3008 3.94695 12.5169C3.55823 11.7331 3.34863 10.8726 3.33333 9.99777C3.34863 9.12296 3.55823 8.26249 3.94695 7.4786C4.33566 6.69472 4.89379 6.00702 5.58094 5.46525C5.77356 5.30517 6.0215 5.2274 6.27107 5.24879ZM16.8 3.55321C16.7037 3.47318 16.5926 3.4129 16.473 3.3758C16.3534 3.33871 16.2276 3.32554 16.1029 3.33703C15.9782 3.34853 15.857 3.38447 15.7462 3.4428C15.6354 3.50113 15.5372 3.58071 15.4572 3.67699C15.3771 3.77328 15.3168 3.88438 15.2797 4.00397C15.2426 4.12355 15.2294 4.24927 15.2409 4.37394C15.2524 4.49861 15.2884 4.6198 15.3467 4.73059C15.4051 4.84137 15.4847 4.93958 15.581 5.01961C16.3413 5.61308 16.961 6.36729 17.3957 7.22824C17.8303 8.0892 18.0692 9.0356 18.0952 9.99967C18.0692 10.9637 17.8303 11.9101 17.3957 12.7711C16.961 13.6321 16.3413 14.3863 15.581 14.9797C15.3865 15.1414 15.2642 15.3736 15.2409 15.6254C15.2177 15.8772 15.2955 16.1279 15.4572 16.3224C15.6188 16.5168 15.8511 16.6391 16.1029 16.6623C16.3548 16.6855 16.6055 16.6078 16.8 16.4461C17.7768 15.6749 18.5705 14.6968 19.1238 13.5821C19.6771 12.4674 19.9764 11.2439 20 9.99967C19.9764 8.75547 19.6771 7.53197 19.1238 6.41728C18.5705 5.30258 17.7768 4.32442 16.8 3.55321ZM10.0127 13.1309C11.6598 13.1309 12.9952 11.7958 12.9952 10.1489C12.9952 8.50204 11.6598 7.16697 10.0127 7.16697C8.36548 7.16697 7.03017 8.50204 7.03017 10.1489C7.03017 11.7958 8.36548 13.1309 10.0127 13.1309Z" fill="#5D75EF"/>
</g>
<defs>
<clipPath id="clip0_2071_16297">
<rect width="20" height="20" fill="white"/>
</clipPath>
</defs>
</svg>
