<svg width="20" height="20" viewBox="0 0 20 20" fill="none" xmlns="http://www.w3.org/2000/svg">
<g id="Icon/Close" clip-path="url(#clip0_4369_19262)">
<path id="Vector" d="M11.1753 9.99755L14.7586 6.42255C14.8363 6.34485 14.898 6.25261 14.94 6.15109C14.9821 6.04957 15.0037 5.94077 15.0037 5.83088C15.0037 5.721 14.9821 5.61219 14.94 5.51068C14.898 5.40916 14.8363 5.31692 14.7586 5.23922C14.6809 5.16152 14.5887 5.09988 14.4872 5.05783C14.3857 5.01578 14.2768 4.99414 14.167 4.99414C14.0571 4.99414 13.9483 5.01578 13.8468 5.05783C13.7452 5.09988 13.653 5.16152 13.5753 5.23922L10.0003 8.82255L6.4253 5.23922C6.26838 5.0823 6.05555 4.99414 5.83363 4.99414C5.61171 4.99414 5.39889 5.0823 5.24197 5.23922C5.08505 5.39614 4.99689 5.60897 4.99689 5.83088C4.99689 6.0528 5.08505 6.26563 5.24197 6.42255L8.8253 9.99755L5.24197 13.5725C5.16376 13.65 5.10167 13.7421 5.0593 13.8437C5.01693 13.9452 4.99512 14.0542 4.99512 14.1642C4.99512 14.2743 5.01693 14.3832 5.0593 14.4848C5.10167 14.5863 5.16376 14.6785 5.24197 14.7559C5.31944 14.834 5.4116 14.896 5.51315 14.9383C5.6147 14.9806 5.72362 15.0024 5.83363 15.0024C5.94364 15.0024 6.05256 14.9806 6.15411 14.9383C6.25566 14.896 6.34783 14.834 6.4253 14.7559L10.0003 11.1726L13.5753 14.7559C13.6723 14.8541 13.792 14.9267 13.924 14.9672C14.0559 15.0077 14.1957 15.0148 14.3311 14.988C14.4664 14.9612 14.593 14.9012 14.6995 14.8134C14.806 14.7256 14.889 14.6128 14.9411 14.485C15.0048 14.332 15.0214 14.1634 14.9887 14.0008C14.9561 13.8383 14.8757 13.6892 14.7578 13.5725L11.1753 9.99755Z" fill="#5D75EF"/>
</g>
<defs>
<clipPath id="clip0_4369_19262">
<rect width="20" height="20" fill="white"/>
</clipPath>
</defs>
</svg>
