<svg width="20" height="20" viewBox="0 0 20 20" fill="none" xmlns="http://www.w3.org/2000/svg">
<g clip-path="url(#clip0_2101_11385)">
<path fill-rule="evenodd" clip-rule="evenodd" d="M14.4674 9.81441C14.6173 9.93865 14.806 10.0065 15.0007 10.0061C15.1238 10.0054 15.2452 9.97736 15.3562 9.92404C15.4671 9.87072 15.5649 9.79343 15.6424 9.69774C15.7128 9.61368 15.766 9.51649 15.7987 9.41178C15.8314 9.30707 15.8431 9.19691 15.833 9.08767C15.8229 8.97843 15.7913 8.87227 15.74 8.77531C15.6887 8.67834 15.6187 8.59251 15.534 8.52274L10.534 4.35608C10.3849 4.23351 10.1979 4.1665 10.0049 4.1665C9.81183 4.1665 9.62479 4.23351 9.47568 4.35608L4.47568 8.38108C4.34679 8.48456 4.25158 8.62404 4.20217 8.78178C4.15276 8.93951 4.15137 9.10838 4.19818 9.26691C4.23644 9.39927 4.30693 9.52008 4.40332 9.61852C4.49972 9.71697 4.61902 9.78998 4.75055 9.83101C4.88208 9.87205 5.02173 9.87983 5.157 9.85366C5.29227 9.8275 5.41895 9.7682 5.52568 9.68108L10.0007 6.08108L14.4674 9.81441ZM14.4674 15.6477C14.6173 15.772 14.806 15.8398 15.0007 15.8394C15.1238 15.8387 15.2452 15.8107 15.3562 15.7574C15.4671 15.7041 15.5649 15.6268 15.6424 15.5311C15.7128 15.447 15.766 15.3498 15.7987 15.2451C15.8314 15.1404 15.8431 15.0302 15.833 14.921C15.8229 14.8118 15.7913 14.7056 15.74 14.6086C15.6887 14.5117 15.6187 14.4258 15.534 14.3561L10.534 10.1894C10.3849 10.0668 10.1979 9.99984 10.0049 9.99984C9.81183 9.99984 9.62479 10.0668 9.47568 10.1894L4.47568 14.2144C4.34679 14.3179 4.25158 14.4574 4.20217 14.6151C4.15276 14.7728 4.15137 14.9417 4.19818 15.1002C4.23644 15.2326 4.30693 15.3534 4.40332 15.4519C4.49972 15.5503 4.61902 15.6233 4.75055 15.6643C4.88208 15.7054 5.02173 15.7132 5.157 15.687C5.29227 15.6608 5.41895 15.6015 5.52568 15.5144L10.0007 11.9144L14.4674 15.6477Z" fill="#5D75EF"/>
</g>
<defs>
<clipPath id="clip0_2101_11385">
<rect width="20" height="20" fill="white"/>
</clipPath>
</defs>
</svg>
