<svg width="20" height="20" viewBox="0 0 20 20" fill="none" xmlns="http://www.w3.org/2000/svg">
<g id="Icon/Alert" clip-path="url(#clip0_2659_7120)">
<path id="Vector" d="M4.72134 17.2226V15.556C4.72134 15.2491 4.97013 15.0004 5.27693 15.0004H15.2768C15.5836 15.0004 15.8324 15.249 15.8324 15.556V17.2226H19.4434C19.5968 17.2226 19.7211 17.3469 19.7211 17.5003V18.0559C19.7211 18.2093 19.5968 18.3337 19.4434 18.3337H1.11025C0.956798 18.3337 0.83252 18.2093 0.83252 18.0559V17.5003C0.83252 17.3469 0.956798 17.2226 1.11025 17.2226H4.72134ZM5.83252 11.1114C5.83252 8.65671 7.82202 6.66706 10.2768 6.66706C12.7316 6.66706 14.7211 8.65656 14.7211 11.1114V15.0003H5.83252V11.1114ZM13.0545 10.8336C13.0545 9.45295 11.9353 8.33365 10.5545 8.33365H10.2768C10.1233 8.33365 9.99902 8.45805 9.99902 8.61139V9.16698C9.99902 9.32043 10.1233 9.44471 10.2768 9.44471H10.5545C11.3215 9.44471 11.9434 10.0666 11.9434 10.8336V11.1114C11.9434 11.2648 12.0678 11.3892 12.2211 11.3892H12.7767C12.9302 11.3892 13.0545 11.2648 13.0545 11.1114V10.8336ZM3.61023 10.5559C3.91704 10.5559 4.16582 10.8046 4.16582 11.1114C4.16582 11.4183 3.91703 11.6669 3.61023 11.6669H1.38799C1.08118 11.6669 0.83252 11.4183 0.83252 11.1114C0.83252 10.8045 1.08119 10.5559 1.38799 10.5559H3.61023ZM19.1657 10.5559C19.4725 10.5559 19.7212 10.8046 19.7212 11.1114C19.7212 11.4183 19.4725 11.6669 19.1657 11.6669H16.9435C16.6367 11.6669 16.3879 11.4183 16.3879 11.1114C16.3879 10.8045 16.6367 10.5559 16.9435 10.5559H19.1657ZM5.17003 6.79016L3.59871 5.21883C3.07485 4.69509 3.86052 3.90933 4.38435 4.43319L5.95568 6.00451C6.47942 6.52825 5.69375 7.3139 5.17003 6.79016ZM14.5979 6.00451L16.1692 4.43319C16.6931 3.90933 17.4787 4.69511 16.9549 5.21883L15.3835 6.79016C14.8598 7.3139 14.0742 6.52823 14.5979 6.00451ZM9.72117 4.44471V2.22259C9.72117 1.48179 10.8323 1.48179 10.8323 2.22259V4.44471C10.8323 5.1855 9.72117 5.1855 9.72117 4.44471Z" fill="#5D75EF"/>
</g>
<defs>
<clipPath id="clip0_2659_7120">
<rect width="20" height="20" fill="white"/>
</clipPath>
</defs>
</svg>
