<svg width="20" height="20" viewBox="0 0 20 20" fill="none" xmlns="http://www.w3.org/2000/svg">
<g clip-path="url(#clip0_2444_4801)">
<path d="M7.98078 15.8337C7.85258 15.8331 7.72585 15.8053 7.60843 15.752C7.49101 15.6987 7.3854 15.621 7.29815 15.5237L2.75348 10.5156C2.58359 10.328 2.49258 10.0783 2.50047 9.82122C2.50837 9.56417 2.61451 9.32089 2.79556 9.14491C2.9766 8.96893 3.21772 8.87465 3.46587 8.88283C3.71401 8.891 3.94886 9.00096 4.11875 9.1885L7.97143 13.441L15.8358 4.52914C15.9156 4.42619 16.0149 4.34123 16.1275 4.27947C16.2402 4.21772 16.3638 4.18048 16.4909 4.17003C16.618 4.15958 16.7457 4.17615 16.8664 4.21873C16.987 4.2613 17.098 4.32897 17.1925 4.41759C17.287 4.50621 17.363 4.6139 17.4158 4.73406C17.4687 4.85421 17.4973 4.98429 17.4998 5.11629C17.5024 5.2483 17.4788 5.37946 17.4307 5.50171C17.3825 5.62395 17.3107 5.73471 17.2197 5.82717L8.67277 15.514C8.58633 15.6131 8.48109 15.6926 8.36363 15.7476C8.24617 15.8026 8.11902 15.8319 7.99013 15.8337H7.98078Z" fill="#5D75EF"/>
</g>
<defs>
<clipPath id="clip0_2444_4801">
<rect width="20" height="20" fill="white"/>
</clipPath>
</defs>
</svg>
