<svg width="20" height="20" viewBox="0 0 20 20" fill="none" xmlns="http://www.w3.org/2000/svg">
<g clip-path="url(#clip0_2444_7415)">
<path fill-rule="evenodd" clip-rule="evenodd" d="M13.9467 11.8802L15.7976 9.04026C15.8732 8.92603 15.9169 8.79281 15.9242 8.65495C15.9314 8.5171 15.9018 8.37983 15.8386 8.25796C15.7753 8.13608 15.6809 8.03421 15.5654 7.96332C15.4499 7.89243 15.3177 7.85522 15.1831 7.85569H10.8223L11.3924 2.47197C11.4023 2.30917 11.3609 2.14742 11.2742 2.01066C11.1876 1.8739 11.0602 1.7694 10.9112 1.71263C10.7561 1.65484 10.5866 1.65185 10.4297 1.70413C10.2727 1.75641 10.1373 1.86095 10.0449 2.00118L7.73497 5.50933L13.9467 11.8802ZM6.05441 8.08579L4.20349 10.9257C4.12817 11.04 4.08463 11.1732 4.07754 11.3109C4.07045 11.4487 4.10009 11.5858 4.16327 11.7076C4.22644 11.8294 4.32077 11.9312 4.43613 12.0022C4.55148 12.0731 4.6835 12.1105 4.818 12.1103H9.17877L8.60868 17.494C8.59125 17.6622 8.62904 17.8315 8.71607 17.9751C8.8031 18.1188 8.93439 18.2285 9.08913 18.2869C9.24386 18.3453 9.41318 18.3491 9.57024 18.2976C9.7273 18.2462 9.86312 18.1424 9.95615 18.0028L12.2661 14.4567L6.05441 8.08579ZM4.60231 3.36709L16.4482 15.5165C16.5174 15.5872 16.5723 15.6712 16.6098 15.7638C16.6473 15.8563 16.6666 15.9555 16.6666 16.0557C16.6666 16.1559 16.6473 16.255 16.6098 16.3476C16.5723 16.4401 16.5174 16.5241 16.4482 16.5948C16.3794 16.666 16.2975 16.7225 16.2073 16.761C16.1171 16.7996 16.0203 16.8194 15.9225 16.8194C15.8248 16.8194 15.728 16.7996 15.6378 16.761C15.5476 16.7225 15.4657 16.666 15.3969 16.5948L3.55099 4.44535C3.48196 4.37455 3.4272 4.2905 3.38984 4.198C3.35248 4.10549 3.33325 4.00635 3.33325 3.90622C3.33325 3.8061 3.35248 3.70695 3.38984 3.61445C3.4272 3.52194 3.48196 3.43789 3.55099 3.36709C3.62002 3.29629 3.70197 3.24013 3.79216 3.20181C3.88236 3.1635 3.97903 3.14378 4.07665 3.14378C4.17427 3.14378 4.27094 3.1635 4.36114 3.20181C4.45133 3.24013 4.53328 3.29629 4.60231 3.36709Z" fill="#5D75EF"/>
</g>
<defs>
<clipPath id="clip0_2444_7415">
<rect width="20" height="20" fill="white"/>
</clipPath>
</defs>
</svg>
