<svg width="20" height="20" viewBox="0 0 20 20" fill="none" xmlns="http://www.w3.org/2000/svg">
<g clip-path="url(#clip0_2444_7433)">
<path fill-rule="evenodd" clip-rule="evenodd" d="M6.39079 6.7581C6.54196 7.10845 6.39079 7.49557 6.03173 7.64309C5.93735 7.67987 5.86171 7.69841 5.78618 7.69854C5.5028 7.69854 5.25709 7.55103 5.14373 7.2929L4.91702 6.77664C4.55795 5.96533 4.69016 5.02493 5.25709 4.34275C5.54048 3.9924 5.57831 3.49454 5.33261 3.12581L5.04922 2.68327C4.86022 2.36982 4.95472 1.96419 5.27594 1.76137C5.59718 1.57695 6.03174 1.66915 6.22076 1.98258L6.4853 2.42513C7.03336 3.27331 6.9577 4.37966 6.31526 5.17243C6.06957 5.46743 6.01289 5.89148 6.16407 6.24183L6.39079 6.7581ZM9.37661 6.24182L9.60333 6.75809C9.75453 7.10844 9.60333 7.49568 9.26326 7.64332C9.18774 7.68024 9.09323 7.69863 8.99872 7.69863C8.71534 7.69863 8.46963 7.55112 8.35627 7.29299L8.12956 6.77673C7.77049 5.96542 7.9027 5.02502 8.46963 4.34284C8.75302 3.99249 8.79085 3.49463 8.54515 3.1259L8.26176 2.68335C8.07276 2.36991 8.16726 1.96428 8.48848 1.76145C8.80972 1.57703 9.24441 1.66924 9.4333 1.98267L9.69784 2.42512C10.2459 3.2733 10.1702 4.37965 9.5278 5.17242C9.28211 5.46742 9.22543 5.89147 9.37661 6.24182ZM12.929 2.42516L12.6455 1.98261C12.4566 1.66918 12.022 1.57697 11.7006 1.76139C11.3794 1.96422 11.2849 2.36985 11.4739 2.6833L11.7385 3.12584C11.9842 3.49457 11.9463 3.99243 11.6629 4.34278C11.096 5.02496 10.9638 5.96536 11.3229 6.77667L11.5496 7.29293C11.663 7.55106 11.9087 7.69857 12.192 7.69857C12.2865 7.69857 12.3811 7.68018 12.4566 7.64327C12.7967 7.49575 12.9668 7.10863 12.8156 6.75827L12.5889 6.24201C12.4377 5.89165 12.4944 5.46761 12.7401 5.1726C13.4014 4.39798 13.4769 3.29174 12.929 2.42516ZM2.4604 9.06283H3.82093C4.25565 9.06283 4.61458 9.41312 4.61458 9.85567V17.5591C4.61458 17.9832 4.25552 18.3335 3.82093 18.3335H2.4604C2.02581 18.3335 1.66675 17.9832 1.66675 17.5591V9.83723C1.66675 9.41319 2.02581 9.06283 2.4604 9.06283ZM7.73269 9.06283H6.37215C5.93757 9.06283 5.5785 9.41318 5.5785 9.83722V17.5591C5.5785 17.9832 5.93757 18.3335 6.37215 18.3335L7.73269 18.3337C8.16727 18.3337 8.52634 17.9833 8.52634 17.5593V9.85579C8.52634 9.41325 8.16727 9.06283 7.73269 9.06283ZM10.2647 9.06283H11.6252C12.0598 9.06283 12.4189 9.41312 12.4189 9.85567V17.5591C12.4189 17.9832 12.0598 18.3335 11.6252 18.3335H10.2647C9.8301 18.3335 9.47103 17.9832 9.47103 17.5591V9.83723C9.47103 9.41319 9.8301 9.06283 10.2647 9.06283ZM15.537 9.06283H14.1764C13.7419 9.06283 13.3828 9.41319 13.3828 9.83723V17.5591C13.3828 17.9832 13.7419 18.3335 14.1764 18.3335H15.537C15.9716 18.3335 16.3306 17.9832 16.3306 17.5591L16.3308 9.85567C16.3308 9.41312 15.9717 9.06283 15.537 9.06283ZM17.1619 10.4456C17.1619 10.1322 17.4264 9.87409 17.7477 9.87409C18.0689 9.87409 18.3334 10.1322 18.3334 10.4456V11.7363C18.3334 12.0497 18.0689 12.3078 17.7477 12.3078C17.4264 12.3078 17.1619 12.0497 17.1619 11.7363V10.4456Z" fill="#5D75EF"/>
</g>
<defs>
<clipPath id="clip0_2444_7433">
<rect width="20" height="20" fill="white"/>
</clipPath>
</defs>
</svg>
