<svg width="22" height="22" viewBox="0 0 22 22" fill="none" xmlns="http://www.w3.org/2000/svg">
<g id="Icon/User" clip-path="url(#clip0_4379_4573)">
<g id="Vector">
<path d="M11.002 1.83398C12.1915 1.83398 13.2694 2.30716 14.0409 3.16707C14.8227 4.03834 15.2034 5.20904 15.1137 6.4653C14.9343 8.96648 13.0934 11.0006 11.002 11.0006C8.91068 11.0006 7.06636 8.96648 6.89038 6.46443C6.80155 5.19682 7.17972 4.02349 7.95637 3.15921C8.72455 2.30541 9.80577 1.83398 11.002 1.83398Z" fill="#5D75EF"/>
<path d="M3.49185 20.051C3.6578 20.1298 3.83868 20.1695 4.02135 20.1672H17.9807C18.1635 20.1697 18.3446 20.1301 18.5107 20.0513C18.6768 19.9724 18.8238 19.8564 18.9409 19.7115C19.1981 19.3928 19.3022 18.959 19.2252 18.5198C18.891 16.6044 17.8453 14.9946 16.204 13.8649C14.7455 12.8627 12.8978 12.3101 11.001 12.3101C9.10424 12.3101 7.25653 12.8619 5.79799 13.8649C4.15587 14.9955 3.11188 16.6044 2.77685 18.5207C2.73681 18.7286 2.7416 18.9431 2.79087 19.1489C2.84015 19.3547 2.9327 19.5467 3.06196 19.7115C3.17905 19.8562 3.3259 19.9722 3.49185 20.051Z" fill="#5D75EF"/>
</g>
</g>
<defs>
<clipPath id="clip0_4379_4573">
<rect width="22" height="22" fill="white"/>
</clipPath>
</defs>
</svg>
