<svg width="20" height="20" viewBox="0 0 20 20" fill="none" xmlns="http://www.w3.org/2000/svg">
<g id="Icon/Drop" clip-path="url(#clip0_2659_4904)">
<path id="Vector" d="M9.92646 18.3329C9.0482 18.325 8.18033 18.1342 7.374 17.7717C6.56767 17.4092 5.83921 16.8823 5.23153 16.222C3.9978 14.8743 3.31706 13.079 3.3338 11.2172C3.35054 9.35543 4.06344 7.57373 5.3212 6.25027L9.44584 1.94452C9.52638 1.85437 9.62436 1.78304 9.73333 1.73524C9.84231 1.68744 9.95978 1.66427 10.078 1.66725C10.1962 1.66894 10.313 1.69515 10.4213 1.74437C10.5297 1.79358 10.6276 1.8648 10.7092 1.95386L14.764 6.32402C15.999 7.67044 16.6815 9.46497 16.6666 11.3267C16.6517 13.1885 15.9406 14.9709 14.6841 16.2958C14.0652 16.9535 13.3243 17.4733 12.5064 17.8235C11.6885 18.1737 10.8107 18.347 9.92646 18.3329Z" fill="#5D75EF"/>
</g>
<defs>
<clipPath id="clip0_2659_4904">
<rect width="20" height="20" fill="white"/>
</clipPath>
</defs>
</svg>
