<svg width="20" height="20" viewBox="0 0 20 20" fill="none" xmlns="http://www.w3.org/2000/svg">
<g clip-path="url(#clip0_2486_2142)">
<path fill-rule="evenodd" clip-rule="evenodd" d="M3.45222 1.66699H16.5475C17.5594 1.66699 18.3332 2.4408 18.3332 3.45271V7.61937C18.3332 8.63128 17.5594 9.40509 16.5475 9.40509V11.786C16.5475 15.417 13.6308 18.3337 9.99984 18.3337C6.36889 18.3337 3.45222 15.417 3.45222 11.786V9.40509C2.44031 9.40509 1.6665 8.63128 1.6665 7.61937V3.45271C1.6665 2.4408 2.44031 1.66699 3.45222 1.66699ZM9.99984 17.1432C12.976 17.1432 15.357 14.7622 15.357 11.786V9.40509H4.64269V11.786C4.64269 14.7622 7.02365 17.1432 9.99984 17.1432ZM12.3808 13.5719C12.3808 14.8814 11.3094 15.9528 9.99984 15.9528C8.69031 15.9528 7.61889 14.8814 7.61889 13.5719C7.61889 12.2623 8.69031 11.1909 9.99984 11.1909C11.3094 11.1909 12.3808 12.2623 12.3808 13.5719ZM11.1903 13.5719C11.1903 12.9171 10.6546 12.3814 9.99984 12.3814C9.34508 12.3814 8.80936 12.9171 8.80936 13.5719C8.80936 14.2266 9.34508 14.7623 9.99984 14.7623C10.6546 14.7623 11.1903 14.2266 11.1903 13.5719Z" fill="#5D75EF"/>
</g>
<defs>
<clipPath id="clip0_2486_2142">
<rect width="20" height="20" fill="white"/>
</clipPath>
</defs>
</svg>
