<svg width="20" height="20" viewBox="0 0 20 20" fill="none" xmlns="http://www.w3.org/2000/svg">
<path d="M3.27912 17.5H16.7183C17.5366 17.5 18.1491 17.3039 18.5556 16.9118C18.9621 16.5196 19.1654 15.9288 19.1654 15.1393V7.60835C19.1654 6.81372 18.9621 6.22162 18.5556 5.83204C18.1491 5.44246 17.5366 5.24768 16.7183 5.24768H3.27912C2.46606 5.24768 1.85495 5.44246 1.44578 5.83204C1.03662 6.22162 0.832031 6.81372 0.832031 7.60835V15.1393C0.832031 15.9288 1.03662 16.5196 1.44578 16.9118C1.85495 17.3039 2.46606 17.5 3.27912 17.5ZM5.97963 5.92105H7.20713V4.55108C7.20713 4.25696 7.2916 4.02993 7.46055 3.86997C7.6295 3.71001 7.86972 3.63003 8.18121 3.63003H11.8162C12.1224 3.63003 12.36 3.71001 12.5289 3.86997C12.6979 4.02993 12.7823 4.25696 12.7823 4.55108V5.90557H14.0099V4.63622C14.0099 3.90867 13.8198 3.37074 13.4397 3.02245C13.0596 2.67415 12.5105 2.5 11.7924 2.5H8.19705C7.52126 2.5 6.98274 2.67415 6.58149 3.02245C6.18025 3.37074 5.97963 3.90867 5.97963 4.63622V5.92105Z" fill="#5D75EF"/>
</svg>
