<svg width="20" height="20" viewBox="0 0 20 20" fill="none" xmlns="http://www.w3.org/2000/svg">
<g id="Smile" clip-path="url(#clip0_4379_3700)">
<g id="Vector">
<path fill-rule="evenodd" clip-rule="evenodd" d="M18.3332 9.99935C18.3332 5.39685 14.6023 1.66602 9.99984 1.66602C5.39734 1.66602 1.6665 5.39685 1.6665 9.99935C1.6665 14.6018 5.39734 18.3327 9.99984 18.3327C14.6023 18.3327 18.3332 14.6018 18.3332 9.99935ZM5.28579 5.2853C6.53603 4.03506 8.23173 3.33268 9.99984 3.33268C11.7679 3.33268 13.4636 4.03506 14.7139 5.2853C15.9641 6.53555 16.6665 8.23124 16.6665 9.99935C16.6665 11.7675 15.9641 13.4632 14.7139 14.7134C13.4636 15.9636 11.7679 16.666 9.99984 16.666C8.23173 16.666 6.53603 15.9636 5.28579 14.7134C4.03555 13.4632 3.33317 11.7675 3.33317 9.99935C3.33317 8.23124 4.03555 6.53555 5.28579 5.2853Z" fill="#5D75EF"/>
<path fill-rule="evenodd" clip-rule="evenodd" d="M9.99984 3.33268C8.23173 3.33268 6.53603 4.03506 5.28579 5.2853C4.03555 6.53555 3.33317 8.23124 3.33317 9.99935C3.33317 11.7675 4.03555 13.4632 5.28579 14.7134C6.53603 15.9636 8.23173 16.666 9.99984 16.666C11.7679 16.666 13.4636 15.9636 14.7139 14.7134C15.9641 13.4632 16.6665 11.7675 16.6665 9.99935C16.6665 8.23124 15.9641 6.53555 14.7139 5.2853C13.4636 4.03506 11.7679 3.33268 9.99984 3.33268ZM12.9461 13.779C13.6486 13.0764 14.0744 12.1489 14.1532 11.1657C14.1679 10.9822 14.0173 10.8327 13.8332 10.8327H6.1665C5.98241 10.8327 5.83178 10.9822 5.84649 11.1657C5.92528 12.1489 6.35103 13.0764 7.05356 13.779C7.83496 14.5604 8.89477 14.9993 9.99984 14.9993C11.1049 14.9993 12.1647 14.5604 12.9461 13.779Z" fill="#5D75EF"/>
</g>
</g>
<defs>
<clipPath id="clip0_4379_3700">
<rect width="20" height="20" fill="white"/>
</clipPath>
</defs>
</svg>
