<svg width="20" height="20" viewBox="0 0 20 20" fill="none" xmlns="http://www.w3.org/2000/svg">
<g id="Icon/Fire" clip-path="url(#clip0_2659_4742)">
<path id="Vector" d="M9.99959 18.3332C8.83066 18.3331 7.68871 17.983 6.72182 17.3283C5.75493 16.6736 5.00768 15.7445 4.57696 14.6615C4.14624 13.5785 4.05192 12.3914 4.30623 11.2544C4.56054 10.1173 5.15175 9.08253 6.0032 8.28433C7.04702 7.30526 9.61068 5.54247 9.22178 1.6665C13.8886 4.76728 16.2221 7.86805 11.5552 12.5192C12.333 12.5192 13.4997 12.5192 15.4443 10.6045C15.6543 11.2037 15.8332 11.8479 15.8332 12.5192C15.8332 14.0612 15.2186 15.54 14.1246 16.6303C13.0305 17.7206 11.5468 18.3332 9.99959 18.3332Z" fill="#5D75EF"/>
</g>
<defs>
<clipPath id="clip0_2659_4742">
<rect width="20" height="20" fill="white"/>
</clipPath>
</defs>
</svg>
