<svg width="20" height="20" viewBox="0 0 20 20" fill="none" xmlns="http://www.w3.org/2000/svg">
<g id="Icon/Eye" clip-path="url(#clip0_4369_19837)">
<g id="Vector">
<path d="M10.0002 11.4346C10.3648 11.4346 10.7144 11.2842 10.9721 11.0163C11.2299 10.7485 11.3747 10.3853 11.3747 10.0065C11.3747 9.62772 11.2299 9.26447 10.9721 8.99665C10.7144 8.72882 10.3648 8.57835 10.0002 8.57835C9.6357 8.57835 9.2861 8.72882 9.02834 8.99665C8.77058 9.26447 8.62577 9.62772 8.62577 10.0065C8.62577 10.3853 8.77058 10.7485 9.02834 11.0163C9.2861 11.2842 9.6357 11.4346 10.0002 11.4346Z" fill="#5D75EF"/>
<path d="M19.0442 9.52664C18.4578 8.46982 15.2324 3.16667 9.75283 3.33805C4.68564 3.47134 1.75345 8.0985 0.956258 9.52664C0.875835 9.67137 0.833496 9.83556 0.833496 10.0027C0.833496 10.1698 0.875835 10.334 0.956258 10.4787C1.53353 11.5165 4.6215 16.6673 10.0186 16.6673H10.2476C15.3148 16.534 18.2562 11.9069 19.0442 10.4787C19.1245 10.334 19.1668 10.1698 19.1668 10.0027C19.1668 9.83557 19.1245 9.6714 19.0442 9.52664ZM10.0002 13.335C9.57457 13.3425 9.15174 13.2618 8.75639 13.0977C8.36104 12.9337 8.00109 12.6894 7.69752 12.3793C7.39396 12.0692 7.15286 11.6993 6.98828 11.2914C6.8237 10.8834 6.73894 10.4455 6.73894 10.0032C6.73894 9.56081 6.8237 9.12289 6.98828 8.71494C7.15286 8.30698 7.39396 7.93715 7.69752 7.62702C8.00109 7.31689 8.36104 7.07266 8.75639 6.90858C9.15174 6.74449 9.57457 6.66384 10.0002 6.67132C10.8508 6.67132 11.6665 7.0224 12.268 7.64733C12.8694 8.27226 13.2073 9.11985 13.2073 10.0036C13.2073 10.8874 12.8694 11.735 12.268 12.3599C11.6665 12.9849 10.8508 13.335 10.0002 13.335Z" fill="#5D75EF"/>
</g>
</g>
<defs>
<clipPath id="clip0_4369_19837">
<rect width="20" height="20" fill="white"/>
</clipPath>
</defs>
</svg>
