<svg width="20" height="20" viewBox="0 0 20 20" fill="none" xmlns="http://www.w3.org/2000/svg">
<g clip-path="url(#clip0_2101_11375)">
<path fill-rule="evenodd" clip-rule="evenodd" d="M12.3583 11.5235C11.7332 12.1486 10.8854 12.4998 10.0013 12.4998C9.11725 12.4998 8.2694 12.1486 7.64428 11.5235C7.01916 10.8984 6.66797 10.0506 6.66797 9.1665V4.99984C6.66797 4.11578 7.01916 3.26794 7.64428 2.64281C8.2694 2.01769 9.11725 1.6665 10.0013 1.6665C10.8854 1.6665 11.7332 2.01769 12.3583 2.64281C12.9834 3.26794 13.3346 4.11578 13.3346 4.99984V9.1665C13.3346 10.0506 12.9834 10.8984 12.3583 11.5235ZM15.5906 8.57711C15.7468 8.73339 15.8346 8.94535 15.8346 9.16636C15.833 10.5679 15.3268 11.922 14.4087 12.9809C13.4905 14.0399 12.2218 14.7328 10.8346 14.933V16.6664H12.593C12.7897 16.6664 12.9783 16.7445 13.1174 16.8836C13.2565 17.0227 13.3346 17.2113 13.3346 17.408V17.5914C13.3346 17.7881 13.2565 17.9767 13.1174 18.1158C12.9783 18.2549 12.7897 18.333 12.593 18.333H7.40964C7.21293 18.333 7.02429 18.2549 6.8852 18.1158C6.74611 17.9767 6.66797 17.7881 6.66797 17.5914V17.408C6.66797 17.2113 6.74611 17.0227 6.8852 16.8836C7.02429 16.7445 7.21293 16.6664 7.40964 16.6664H9.16797V14.933C7.7808 14.7328 6.5121 14.0399 5.59395 12.9809C4.67581 11.922 4.16961 10.5679 4.16797 9.16636C4.16797 8.94535 4.25577 8.73339 4.41205 8.57711C4.56833 8.42083 4.78029 8.33303 5.0013 8.33303C5.22232 8.33303 5.43428 8.42083 5.59056 8.57711C5.74684 8.73339 5.83464 8.94535 5.83464 9.16636C5.83464 10.2714 6.27362 11.3312 7.05502 12.1126C7.83643 12.894 8.89623 13.333 10.0013 13.333C11.1064 13.333 12.1662 12.894 12.9476 12.1126C13.729 11.3312 14.168 10.2714 14.168 9.16636C14.168 8.94535 14.2558 8.73339 14.412 8.57711C14.5683 8.42083 14.7803 8.33303 15.0013 8.33303C15.2223 8.33303 15.4343 8.42083 15.5906 8.57711Z" fill="#5D75EF"/>
</g>
<defs>
<clipPath id="clip0_2101_11375">
<rect width="20" height="20" fill="white"/>
</clipPath>
</defs>
</svg>
