<svg width="20" height="20" viewBox="0 0 20 20" fill="none" xmlns="http://www.w3.org/2000/svg">
<g clip-path="url(#clip0_2411_16272)">
<path fill-rule="evenodd" clip-rule="evenodd" d="M3.25429 1.93866L18.0617 16.7453C18.1482 16.8315 18.2168 16.9339 18.2637 17.0466C18.3105 17.1594 18.3346 17.2803 18.3346 17.4024C18.3346 17.5245 18.3105 17.6454 18.2637 17.7581C18.2168 17.8709 18.1482 17.9733 18.0617 18.0594C17.9756 18.1462 17.8733 18.215 17.7605 18.262C17.6477 18.309 17.5268 18.3332 17.4046 18.3332C17.2824 18.3332 17.1614 18.309 17.0487 18.262C16.9359 18.215 16.8335 18.1462 16.7475 18.0594L1.94014 3.25275C1.85385 3.16647 1.7854 3.06403 1.7387 2.9513C1.692 2.83856 1.66797 2.71773 1.66797 2.59571C1.66797 2.47368 1.692 2.35285 1.7387 2.24012C1.7854 2.12738 1.85385 2.02495 1.94014 1.93866C2.02643 1.85238 2.12887 1.78393 2.24161 1.73724C2.35435 1.69054 2.47519 1.6665 2.59722 1.6665C2.71925 1.6665 2.84008 1.69054 2.95282 1.73724C3.06557 1.78393 3.168 1.85238 3.25429 1.93866ZM16.4792 13.834C16.9667 12.5624 17.0812 11.178 16.809 9.84362C16.5369 8.50922 15.8895 7.28022 14.9429 6.30108L10.7228 1.96087C10.6379 1.87175 10.536 1.80048 10.4232 1.75122C10.3104 1.70196 10.1888 1.6757 10.0657 1.67399C9.94173 1.67327 9.81884 1.69747 9.70438 1.74516C9.58991 1.79285 9.4862 1.86306 9.3994 1.95161L6.98394 4.37621L16.4792 13.834ZM4.44809 7.05992C3.45635 8.41391 2.97228 10.0735 3.08056 11.7483C3.18883 13.4231 3.88256 15.0065 5.04038 16.2216C5.6741 16.8799 6.43253 17.4055 7.27147 17.7678C8.1104 18.13 9.01306 18.3217 9.92681 18.3315C11.4857 18.3453 13.0019 17.8225 14.2209 16.8508L4.44809 7.05992Z" fill="#5D75EF"/>
</g>
<defs>
<clipPath id="clip0_2411_16272">
<rect width="20" height="20" fill="white"/>
</clipPath>
</defs>
</svg>
