<svg width="20" height="20" viewBox="0 0 20 20" fill="none" xmlns="http://www.w3.org/2000/svg">
<g clip-path="url(#clip0_2444_7713)">
<path d="M5.77072 17.5003H14.2201C14.794 17.5003 15.2214 17.3664 15.5025 17.0986C15.7836 16.8308 15.9241 16.4128 15.9241 15.8447V9.88801C15.9241 9.32533 15.7836 8.91008 15.5025 8.64227C15.2214 8.37446 14.794 8.24056 14.2201 8.24056L6.90676 8.25491L5.94822 8.25679C5.78177 8.25679 5.62497 8.26817 5.47783 8.29094C5.12284 8.34586 4.82403 8.46703 4.58142 8.65444C4.23824 8.91955 4.06665 9.33074 4.06665 9.88801V15.8447C4.06665 16.4128 4.20866 16.8308 4.49267 17.0986C4.77668 17.3664 5.20269 17.5003 5.77072 17.5003Z" fill="#5D75EF"/>
<path d="M5.94822 8.25679L6.90676 8.25491V6.03314C6.90676 5.35144 7.04876 4.77929 7.33278 4.31671C7.61679 3.85413 7.99399 3.50516 8.46438 3.2698C8.93477 3.03446 9.4451 2.91678 9.99538 2.91678C10.5516 2.91678 11.0634 3.03446 11.5308 3.2698C11.9982 3.50516 12.374 3.85413 12.658 4.31671C12.8385 4.61077 12.9617 4.94911 13.0275 5.33172C13.0934 5.71517 13.3994 6.03314 13.7885 6.03314V6.03314C14.1844 6.03314 14.5086 5.70542 14.4502 5.3138C14.39 4.91105 14.2867 4.54216 14.1402 4.20715C13.8916 3.63906 13.5544 3.16701 13.1284 2.79099C12.7024 2.41497 12.2186 2.13363 11.6773 1.94698C11.1359 1.76032 10.5752 1.66699 9.99538 1.66699C9.41552 1.66699 8.85638 1.76032 8.31793 1.94698C7.7795 2.13363 7.29727 2.41497 6.87126 2.79099C6.44524 3.16701 6.1065 3.63906 5.85503 4.20715C5.60356 4.77523 5.47783 5.4407 5.47783 6.20356V8.29094C5.62497 8.26817 5.78177 8.25679 5.94822 8.25679Z" fill="#5D75EF"/>
</g>
<defs>
<clipPath id="clip0_2444_7713">
<rect width="20" height="20" fill="white"/>
</clipPath>
</defs>
</svg>
