<svg width="20" height="20" viewBox="0 0 20 20" fill="none" xmlns="http://www.w3.org/2000/svg">
<g clip-path="url(#clip0_2071_16292)">
<path d="M9.35125 18.3337C9.24891 18.3335 9.14777 18.3109 9.05442 18.2673C8.96107 18.2237 8.87761 18.1602 8.8095 18.0808C8.74138 18.0015 8.69015 17.9081 8.65913 17.8068C8.62812 17.7054 8.61802 17.5984 8.62951 17.4928L9.19086 12.1216H4.89688C4.76443 12.1218 4.63444 12.0845 4.52085 12.0137C4.40727 11.9429 4.31438 11.8413 4.25217 11.7198C4.18996 11.5983 4.16078 11.4615 4.16776 11.3241C4.17474 11.1866 4.21761 11.0538 4.29178 10.9398L10.0438 2.0004C10.1348 1.8605 10.2681 1.7562 10.4227 1.70404C10.5772 1.65189 10.7441 1.65487 10.8968 1.71252C11.0436 1.76916 11.169 1.87342 11.2543 2.00986C11.3397 2.1463 11.3804 2.30768 11.3707 2.47009L10.8093 7.87916H15.1033C15.2357 7.87895 15.3657 7.91624 15.4793 7.98702C15.5929 8.0578 15.6858 8.15939 15.748 8.28089C15.8102 8.4024 15.8394 8.53921 15.8324 8.67665C15.8254 8.81408 15.7825 8.94695 15.7084 9.06097L9.95634 18.0003C9.88947 18.1031 9.79931 18.1873 9.6938 18.2454C9.5883 18.3035 9.47066 18.3338 9.35125 18.3337Z" fill="#5D75EF"/>
</g>
<defs>
<clipPath id="clip0_2071_16292">
<rect width="20" height="20" fill="white"/>
</clipPath>
</defs>
</svg>
