<svg width="20" height="20" viewBox="0 0 20 20" fill="none" xmlns="http://www.w3.org/2000/svg">
<g id="Icon/Open" clip-path="url(#clip0_4379_3342)">
<path id="Vector" fill-rule="evenodd" clip-rule="evenodd" d="M14.4669 9.81392C14.6168 9.93816 14.8055 10.006 15.0002 10.0056C15.1233 10.0049 15.2447 9.97687 15.3557 9.92355C15.4667 9.87023 15.5644 9.79294 15.6419 9.69726C15.7123 9.61319 15.7655 9.516 15.7982 9.41129C15.8309 9.30658 15.8426 9.19642 15.8325 9.08718C15.8224 8.97794 15.7908 8.87178 15.7395 8.77482C15.6882 8.67786 15.6182 8.59202 15.5335 8.52226L10.5335 4.35559C10.3844 4.23302 10.1974 4.16602 10.0044 4.16602C9.81134 4.16602 9.62431 4.23302 9.4752 4.35559L4.4752 8.38059C4.3463 8.48407 4.25109 8.62355 4.20168 8.78129C4.15227 8.93903 4.15088 9.10789 4.1977 9.26642C4.23596 9.39878 4.30644 9.51959 4.40284 9.61804C4.49923 9.71648 4.61853 9.78949 4.75006 9.83052C4.88159 9.87156 5.02124 9.87934 5.15651 9.85318C5.29178 9.82701 5.41846 9.76771 5.5252 9.68059L10.0002 6.08059L14.4669 9.81392ZM14.4669 15.6473C14.6168 15.7715 14.8055 15.8393 15.0002 15.8389C15.1233 15.8382 15.2447 15.8102 15.3557 15.7569C15.4667 15.7036 15.5644 15.6263 15.6419 15.5306C15.7123 15.4465 15.7655 15.3493 15.7982 15.2446C15.8309 15.1399 15.8426 15.0298 15.8325 14.9205C15.8224 14.8113 15.7908 14.7051 15.7395 14.6082C15.6882 14.5112 15.6182 14.4254 15.5335 14.3556L10.5335 10.1889C10.3844 10.0664 10.1974 9.99935 10.0044 9.99935C9.81134 9.99935 9.62431 10.0664 9.4752 10.1889L4.4752 14.2139C4.3463 14.3174 4.25109 14.4569 4.20168 14.6146C4.15227 14.7724 4.15088 14.9412 4.1977 15.0998C4.23596 15.2321 4.30644 15.3529 4.40284 15.4514C4.49923 15.5498 4.61853 15.6228 4.75006 15.6639C4.88159 15.7049 5.02124 15.7127 5.15651 15.6865C5.29178 15.6603 5.41846 15.601 5.5252 15.5139L10.0002 11.9139L14.4669 15.6473Z" fill="#5D75EF"/>
</g>
<defs>
<clipPath id="clip0_4379_3342">
<rect width="20" height="20" fill="white"/>
</clipPath>
</defs>
</svg>
