<svg width="20" height="20" viewBox="0 0 20 20" fill="none" xmlns="http://www.w3.org/2000/svg">
<g id="Icon/Light" clip-path="url(#clip0_2659_7852)">
<path id="Vector" d="M9.351 18.3332C9.24867 18.333 9.14753 18.3104 9.05418 18.2668C8.96082 18.2233 8.87737 18.1597 8.80925 18.0804C8.74114 18.001 8.6899 17.9076 8.65889 17.8063C8.62787 17.7049 8.61778 17.5979 8.62926 17.4923L9.19062 12.1211H4.89663C4.76419 12.1213 4.6342 12.084 4.52061 12.0132C4.40702 11.9424 4.31414 11.8408 4.25193 11.7193C4.18972 11.5978 4.16054 11.461 4.16752 11.3236C4.1745 11.1862 4.21737 11.0533 4.29154 10.9393L10.0436 1.99991C10.1346 1.86001 10.2679 1.75571 10.4224 1.70355C10.577 1.6514 10.7438 1.65438 10.8965 1.71203C11.0434 1.76867 11.1687 1.87293 11.2541 2.00937C11.3394 2.14581 11.3802 2.30719 11.3704 2.4696L10.8091 7.87867H15.103C15.2355 7.87846 15.3655 7.91575 15.4791 7.98653C15.5927 8.05731 15.6855 8.15891 15.7477 8.28041C15.81 8.40191 15.8391 8.53872 15.8322 8.67616C15.8252 8.8136 15.7823 8.94646 15.7081 9.06048L9.9561 17.9998C9.88922 18.1026 9.79907 18.1868 9.69356 18.2449C9.58805 18.3031 9.47042 18.3334 9.351 18.3332Z" fill="#5D75EF"/>
</g>
<defs>
<clipPath id="clip0_2659_7852">
<rect width="20" height="20" fill="white"/>
</clipPath>
</defs>
</svg>
