<svg width="20" height="20" viewBox="0 0 20 20" fill="none" xmlns="http://www.w3.org/2000/svg">
<g id="Icon/Temperature" clip-path="url(#clip0_2659_4861)">
<path id="Vector" fill-rule="evenodd" clip-rule="evenodd" d="M7.07645 19.0562C7.92778 19.6698 8.95059 20 10 20C11.0494 20 12.0722 19.6698 12.9236 19.0562C13.7749 18.4426 14.4116 17.5767 14.7434 16.5811C15.0753 15.5856 15.0855 14.5108 14.7726 13.5092C14.4597 12.5075 13.8395 11.6296 13 11V3C13 2.20435 12.6839 1.44129 12.1213 0.87868C11.5587 0.316071 10.7956 0 10 0C9.20435 0 8.44129 0.316071 7.87868 0.87868C7.31607 1.44129 7 2.20435 7 3V11C6.16047 11.6296 5.54033 12.5075 5.22743 13.5092C4.91453 14.5108 4.92473 15.5856 5.25658 16.5811C5.58844 17.5767 6.22512 18.4426 7.07645 19.0562ZM11 3V7.54H9V3C9 2.73478 9.10536 2.48043 9.29289 2.29289C9.48043 2.10536 9.73478 2 10 2C10.133 2.00185 10.2643 2.03022 10.3862 2.08345C10.5082 2.13668 10.6182 2.2137 10.71 2.31C10.8035 2.39865 10.8776 2.50576 10.9275 2.62454C10.9774 2.74332 11.0021 2.87117 11 3Z" fill="#5D75EF"/>
</g>
<defs>
<clipPath id="clip0_2659_4861">
<rect width="20" height="20" fill="white"/>
</clipPath>
</defs>
</svg>
