<svg width="20" height="20" viewBox="0 0 20 20" fill="none" xmlns="http://www.w3.org/2000/svg">
<g clip-path="url(#clip0_2071_16302)">
<path d="M11.0417 2.70866C11.0417 2.43239 10.932 2.16744 10.7367 1.97209C10.5413 1.77674 10.2763 1.66699 10.0001 1.66699C9.72381 1.66699 9.45886 1.77674 9.26351 1.97209C9.06816 2.16744 8.95841 2.43239 8.95841 2.70866V3.75033C8.95841 4.02659 9.06816 4.29154 9.26351 4.4869C9.45886 4.68225 9.72381 4.79199 10.0001 4.79199C10.2763 4.79199 10.5413 4.68225 10.7367 4.4869C10.932 4.29154 11.0417 4.02659 11.0417 3.75033V2.70866ZM15.8924 5.58019C16.0764 5.38272 16.1766 5.12155 16.1719 4.85168C16.1671 4.58182 16.0578 4.32434 15.8669 4.13349C15.6761 3.94264 15.4186 3.83332 15.1487 3.82855C14.8789 3.82379 14.6177 3.92396 14.4202 4.10796L13.6832 4.84408C13.4905 5.03996 13.383 5.30407 13.3841 5.57886C13.3852 5.85366 13.4949 6.11688 13.6892 6.31119C13.8835 6.5055 14.1467 6.61516 14.4215 6.61628C14.6963 6.6174 14.9604 6.50989 15.1563 6.31717L15.8924 5.58019ZM18.3334 10.0003C18.3334 10.2766 18.2237 10.5415 18.0283 10.7369C17.833 10.9322 17.568 11.042 17.2917 11.042H16.2501C15.9738 11.042 15.7089 10.9322 15.5135 10.7369C15.3182 10.5415 15.2084 10.2766 15.2084 10.0003C15.2084 9.72406 15.3182 9.45911 15.5135 9.26376C15.7089 9.06841 15.9738 8.95866 16.2501 8.95866H17.2917C17.568 8.95866 17.833 9.06841 18.0283 9.26376C18.2237 9.45911 18.3334 9.72406 18.3334 10.0003ZM4.84383 6.31717C4.94027 6.41519 5.05516 6.49314 5.18188 6.54654C5.30859 6.59994 5.44463 6.62772 5.58213 6.62828C5.71964 6.62884 5.8559 6.60217 5.98304 6.5498C6.11019 6.49744 6.22571 6.42042 6.32294 6.32319C6.42018 6.22596 6.4972 6.11043 6.54956 5.98329C6.60192 5.85614 6.62859 5.71988 6.62803 5.58238C6.62747 5.44487 6.59969 5.30884 6.5463 5.18212C6.4929 5.0554 6.41494 4.94051 6.31692 4.84408L5.57994 4.10796C5.38248 3.92396 5.1213 3.82379 4.85144 3.82855C4.58158 3.83332 4.3241 3.94264 4.13325 4.13349C3.94239 4.32434 3.83307 4.58182 3.82831 4.85168C3.82355 5.12155 3.92372 5.38272 4.10772 5.58019L4.84383 6.31717ZM4.79175 10.0003C4.79175 10.2766 4.682 10.5415 4.48665 10.7369C4.2913 10.9322 4.02635 11.042 3.75008 11.042H2.70841C2.43215 11.042 2.1672 10.9322 1.97184 10.7369C1.77649 10.5415 1.66675 10.2766 1.66675 10.0003C1.66675 9.72406 1.77649 9.45911 1.97184 9.26376C2.1672 9.06841 2.43215 8.95866 2.70841 8.95866H3.75008C4.02635 8.95866 4.2913 9.06841 4.48665 9.26376C4.682 9.45911 4.79175 9.72406 4.79175 10.0003ZM7.91675 16.2503V15.2087H12.0834V16.2503C12.0834 16.8029 11.8639 17.3328 11.4732 17.7235C11.0825 18.1142 10.5526 18.3337 10.0001 18.3337C9.44755 18.3337 8.91764 18.1142 8.52694 17.7235C8.13624 17.3328 7.91675 16.8029 7.91675 16.2503ZM12.0834 14.167C12.099 13.8128 12.3004 13.4943 12.5799 13.2729C13.2599 12.7368 13.7559 12.0021 13.9991 11.171C14.2423 10.34 14.2204 9.45378 13.9367 8.63567C13.653 7.81757 13.1214 7.10819 12.4159 6.60614C11.7104 6.10409 10.866 5.83431 10.0001 5.83431C9.13417 5.83431 8.28978 6.10409 7.58427 6.60614C6.87876 7.10819 6.34719 7.81757 6.06345 8.63567C5.77972 9.45378 5.75791 10.34 6.00107 11.171C6.24422 12.0021 6.74026 12.7368 7.42022 13.2729C7.70147 13.4943 7.90112 13.8128 7.91501 14.167H12.0834Z" fill="#5D75EF"/>
</g>
<defs>
<clipPath id="clip0_2071_16302">
<rect width="20" height="20" fill="white"/>
</clipPath>
</defs>
</svg>
