<svg width="20" height="20" viewBox="0 0 20 20" fill="none" xmlns="http://www.w3.org/2000/svg">
<g clip-path="url(#clip0_2444_7401)">
<path fill-rule="evenodd" clip-rule="evenodd" d="M18.479 5.958H1.52079C1.13123 5.958 0.833252 5.66003 0.833252 5.27046V3.52055C0.833252 3.13098 1.13122 2.83301 1.52079 2.83301H18.479C18.8686 2.83301 19.1666 3.13097 19.1666 3.52055V5.27046C19.1666 5.66002 18.8686 5.958 18.479 5.958ZM18.0208 6.41629V11.4579C18.0208 11.8475 17.7228 12.1455 17.3332 12.1455H10.2291V15.6058C10.8707 15.7204 11.3749 16.2703 11.3749 16.9579C11.3749 17.7141 10.7561 18.3329 9.99984 18.3329C9.24355 18.3329 8.62476 17.7142 8.62476 16.9579C8.62476 16.2703 9.12893 15.7205 9.77059 15.6058V12.1455H2.66645C2.27689 12.1455 1.97892 11.8475 1.97892 11.4579V6.41629H18.0208ZM9.31246 16.9579C9.31246 17.3475 9.61043 17.6454 10 17.6454C10.3896 17.6454 10.6875 17.3475 10.6875 16.9579C10.6875 16.5683 10.3896 16.2704 10 16.2704C9.61043 16.2704 9.31246 16.5682 9.31246 16.9579Z" fill="#5D75EF"/>
</g>
<defs>
<clipPath id="clip0_2444_7401">
<rect width="20" height="20" fill="white"/>
</clipPath>
</defs>
</svg>
