<svg width="20" height="20" viewBox="0 0 20 20" fill="none" xmlns="http://www.w3.org/2000/svg">
<path d="M13.3865 18.3334H17.8803C18.2749 18.3334 18.5877 18.2044 18.8188 17.9465C19.0498 17.6885 19.1654 17.3432 19.1654 16.9106V6.93566C19.1654 6.5031 19.0498 6.15783 18.8188 5.89986C18.5877 5.64188 18.2749 5.5129 17.8803 5.5129H13.7682V16.9106C13.7682 17.1764 13.7357 17.4279 13.6708 17.665C13.6059 17.9022 13.5112 18.125 13.3865 18.3334ZM15.5361 9.46849V8.21771C15.5361 8.03531 15.6269 7.9441 15.8087 7.9441H17.1015C17.2832 7.9441 17.3741 8.03531 17.3741 8.21771V9.46849C17.3741 9.6561 17.2832 9.7499 17.1015 9.7499H15.8087C15.6269 9.7499 15.5361 9.6561 15.5361 9.46849ZM15.5361 12.5485V11.2977C15.5361 11.1153 15.6269 11.0241 15.8087 11.0241H17.1015C17.2832 11.0241 17.3741 11.1153 17.3741 11.2977V12.5485C17.3741 12.7309 17.2832 12.8221 17.1015 12.8221H15.8087C15.6269 12.8221 15.5361 12.7309 15.5361 12.5485ZM15.5361 15.6286V14.3778C15.5361 14.1902 15.6269 14.0964 15.8087 14.0964H17.1015C17.2832 14.0964 17.3741 14.1902 17.3741 14.3778V15.6286C17.3741 15.811 17.2832 15.9022 17.1015 15.9022H15.8087C15.6269 15.9022 15.5361 15.811 15.5361 15.6286ZM0.832031 16.9106C0.832031 17.3432 0.947555 17.6885 1.1786 17.9465C1.40965 18.2044 1.72507 18.3334 2.12486 18.3334H11.4083C11.8081 18.3334 12.1236 18.2044 12.3546 17.9465C12.5856 17.6885 12.7012 17.3432 12.7012 16.9106V3.08951C12.7012 2.65174 12.5856 2.30517 12.3546 2.0498C12.1236 1.79443 11.8081 1.66675 11.4083 1.66675H2.12486C1.72507 1.66675 1.40965 1.79443 1.1786 2.0498C0.947555 2.30517 0.832031 2.65174 0.832031 3.08951V16.9106ZM4.0719 17.0748V14.5342C4.0719 14.3518 4.12642 14.2071 4.23546 14.1003C4.34449 13.9935 4.48727 13.94 4.66381 13.94H8.93949C9.12121 13.94 9.2653 13.9935 9.37174 14.1003C9.47818 14.2071 9.5314 14.3518 9.5314 14.5342V17.0748H4.0719ZM3.81489 5.86468V4.34811C3.81489 4.12401 3.92133 4.01196 4.13421 4.01196H5.69184C5.9151 4.01196 6.02673 4.12401 6.02673 4.34811V5.86468C6.02673 6.08878 5.9151 6.20083 5.69184 6.20083H4.13421C3.92133 6.20083 3.81489 6.08878 3.81489 5.86468ZM7.57657 5.86468V4.34811C7.57657 4.12401 7.68561 4.01196 7.90368 4.01196H9.45348C9.67678 4.01196 9.78843 4.12401 9.78843 4.34811V5.86468C9.78843 6.08878 9.67678 6.20083 9.45348 6.20083H7.90368C7.68561 6.20083 7.57657 6.08878 7.57657 5.86468ZM3.81489 9.05417V7.5376C3.81489 7.3135 3.92133 7.20145 4.13421 7.20145H5.69184C5.9151 7.20145 6.02673 7.3135 6.02673 7.5376V9.05417C6.02673 9.27827 5.9151 9.39032 5.69184 9.39032H4.13421C3.92133 9.39032 3.81489 9.27827 3.81489 9.05417ZM7.57657 9.05417V7.5376C7.57657 7.3135 7.68561 7.20145 7.90368 7.20145H9.45348C9.67678 7.20145 9.78843 7.3135 9.78843 7.5376V9.05417C9.78843 9.27827 9.67678 9.39032 9.45348 9.39032H7.90368C7.68561 9.39032 7.57657 9.27827 7.57657 9.05417ZM3.81489 12.2437V10.7271C3.81489 10.503 3.92133 10.3909 4.13421 10.3909H5.69184C5.9151 10.3909 6.02673 10.503 6.02673 10.7271V12.2437C6.02673 12.4678 5.9151 12.5798 5.69184 12.5798H4.13421C3.92133 12.5798 3.81489 12.4678 3.81489 12.2437ZM7.57657 12.2437V10.7271C7.57657 10.503 7.68561 10.3909 7.90368 10.3909H9.45348C9.67678 10.3909 9.78843 10.503 9.78843 10.7271V12.2437C9.78843 12.4678 9.67678 12.5798 9.45348 12.5798H7.90368C7.68561 12.5798 7.57657 12.4678 7.57657 12.2437Z" fill="#5D75EF"/>
</svg>
