<svg width="20" height="20" viewBox="0 0 20 20" fill="none" xmlns="http://www.w3.org/2000/svg">
<g clip-path="url(#clip0_2444_8641)">
<path fill-rule="evenodd" clip-rule="evenodd" d="M6.6435 18.75H13.3659C14.1037 18.75 14.6994 18.553 15.153 18.159C15.6066 17.7649 15.8334 17.2455 15.8334 16.6008V3.39927C15.8334 2.75449 15.6066 2.23508 15.153 1.84105C14.6994 1.44702 14.1037 1.25 13.3659 1.25H6.6435C5.89957 1.25 5.30081 1.44702 4.84722 1.84105C4.39357 2.23508 4.16675 2.75449 4.16675 3.39927V16.6008C4.16675 17.2455 4.39357 17.7649 4.84722 18.159C5.30081 18.553 5.89957 18.75 6.6435 18.75ZM8.01059 17.8289H11.999C12.1241 17.8289 12.2273 17.786 12.3086 17.7001C12.39 17.6144 12.4306 17.5021 12.4306 17.3635C12.4306 17.2248 12.39 17.1142 12.3086 17.0316C12.2273 16.9491 12.1241 16.9079 11.999 16.9079H8.01059C7.88546 16.9079 7.78067 16.9491 7.69622 17.0316C7.61176 17.1142 7.56953 17.2248 7.56953 17.3635C7.56953 17.5021 7.61176 17.6144 7.69622 17.7001C7.78067 17.786 7.88546 17.8289 8.01059 17.8289Z" fill="#5D75EF"/>
</g>
<defs>
<clipPath id="clip0_2444_8641">
<rect width="20" height="20" fill="white"/>
</clipPath>
</defs>
</svg>
