<svg width="20" height="20" viewBox="0 0 20 20" fill="none" xmlns="http://www.w3.org/2000/svg">
<g id="Icon/Floor" clip-path="url(#clip0_2659_5707)">
<path id="Vector" fill-rule="evenodd" clip-rule="evenodd" d="M6.62877 9.46674C7.03582 9.30505 7.20719 8.88074 7.03582 8.49672L6.77881 7.93086C6.60741 7.54684 6.67167 7.08207 6.9502 6.75871C7.6785 5.88978 7.76426 4.67714 7.14296 3.74748L6.84306 3.26241C6.62878 2.91887 6.13615 2.81781 5.77198 3.01994C5.40783 3.24225 5.3007 3.68685 5.51496 4.03041L5.83623 4.51548C6.11475 4.91963 6.07187 5.46532 5.7506 5.84933C5.10791 6.59705 4.95804 7.6278 5.36509 8.51705L5.6221 9.08291C5.75061 9.36584 6.02916 9.52752 6.3504 9.52752C6.43603 9.52738 6.52178 9.50706 6.62877 9.46674ZM10.6777 8.49671L10.4207 7.93085C10.2493 7.54683 10.3135 7.08205 10.5921 6.7587C11.3204 5.88977 11.4061 4.67713 10.7848 3.74746L10.4849 3.26251C10.2708 2.91897 9.77801 2.8179 9.41385 3.02004C9.0497 3.24235 8.94257 3.68695 9.15683 4.03051L9.4781 4.51557C9.75662 4.91972 9.71374 5.46541 9.39247 5.84943C8.74978 6.59714 8.59991 7.62789 9.00696 8.51714L9.26398 9.08301C9.39248 9.36593 9.67103 9.52762 9.99228 9.52762C10.0994 9.52762 10.2066 9.50746 10.2922 9.467C10.6777 9.30516 10.8491 8.88073 10.6777 8.49671ZM14.1264 3.26245L14.4478 3.74751C15.069 4.69735 14.9834 5.90986 14.2337 6.75891C13.9552 7.08226 13.8909 7.54704 14.0623 7.93106L14.3193 8.49692C14.4907 8.88093 14.2978 9.30524 13.9123 9.46693C13.8266 9.50739 13.7195 9.52755 13.6124 9.52755C13.2911 9.52755 13.0126 9.36587 12.8841 9.08295L12.627 8.51708C12.22 7.62783 12.3699 6.59708 13.0126 5.84937C13.3338 5.46535 13.3767 4.91966 13.0982 4.51551L12.7983 4.03045C12.584 3.68689 12.6911 3.24229 13.0553 3.01998C13.4196 2.81784 13.9123 2.9189 14.1264 3.26245ZM1.6665 13.3054C1.6665 12.7838 2.08106 12.3609 2.59243 12.3609H17.4072C17.9186 12.3609 18.3332 12.7838 18.3332 13.3054C18.3332 13.827 17.9186 14.2498 17.4072 14.2498H2.59243C2.08106 14.2498 1.6665 13.827 1.6665 13.3054ZM1.6665 16.1387C1.6665 15.6171 2.08106 15.1943 2.59243 15.1943H17.4072C17.9186 15.1943 18.3332 15.6171 18.3332 16.1387C18.3332 16.6603 17.9186 17.0832 17.4072 17.0832H2.59243C2.08106 17.0832 1.6665 16.6603 1.6665 16.1387Z" fill="#5D75EF"/>
</g>
<defs>
<clipPath id="clip0_2659_5707">
<rect width="20" height="20" fill="white"/>
</clipPath>
</defs>
</svg>
