<svg width="20" height="20" viewBox="0 0 20 20" fill="none" xmlns="http://www.w3.org/2000/svg">
<g id="Icon/Voice">
<path id="Vector" d="M1.52085 11.8048C1.72133 11.8048 1.88744 11.7361 2.01918 11.5986C2.15092 11.4612 2.21679 11.2979 2.21679 11.1089V8.50556C2.21679 8.31654 2.15092 8.15186 2.01918 8.01152C1.88744 7.87119 1.72133 7.80102 1.52085 7.80102C1.3261 7.80102 1.16285 7.87119 1.03111 8.01152C0.899367 8.15186 0.833496 8.31654 0.833496 8.50556V11.1089C0.833496 11.2979 0.899367 11.4612 1.03111 11.5986C1.16285 11.7361 1.3261 11.8048 1.52085 11.8048ZM4.40772 15.319C4.6082 15.319 4.77574 15.2517 4.91034 15.117C5.04495 14.9824 5.11225 14.8177 5.11225 14.6229V4.99148C5.11225 4.79673 5.04495 4.63062 4.91034 4.49315C4.77574 4.35568 4.6082 4.28694 4.40772 4.28694C4.21297 4.28694 4.05116 4.35568 3.92228 4.49315C3.7934 4.63062 3.72896 4.79673 3.72896 4.99148V14.6229C3.72896 14.8177 3.7934 14.9824 3.92228 15.117C4.05116 15.2517 4.21297 15.319 4.40772 15.319ZM7.29459 18.7814C7.49507 18.7814 7.66261 18.7141 7.79722 18.5795C7.93182 18.4449 7.99912 18.2802 7.99912 18.0855V1.52895C7.99912 1.3342 7.93182 1.16952 7.79722 1.03492C7.66261 0.900311 7.49507 0.833008 7.29459 0.833008C7.09984 0.833008 6.93803 0.900311 6.80915 1.03492C6.68027 1.16952 6.61584 1.3342 6.61584 1.52895V18.0855C6.61584 18.2802 6.68027 18.4449 6.80915 18.5795C6.93803 18.7141 7.09984 18.7814 7.29459 18.7814ZM10.1986 14.2708C10.3934 14.2708 10.5567 14.2049 10.6884 14.0731C10.8201 13.9413 10.886 13.7781 10.886 13.5834V6.0311C10.886 5.83635 10.8201 5.67167 10.6884 5.53706C10.5567 5.40246 10.3934 5.33515 10.1986 5.33515C9.99814 5.33515 9.83203 5.40246 9.70029 5.53706C9.56857 5.67167 9.50271 5.83635 9.50271 6.0311V13.5834C9.50271 13.7781 9.56857 13.9413 9.70029 14.0731C9.83203 14.2049 9.99814 14.2708 10.1986 14.2708ZM12.3981 11.7275C12.6044 11.6129 12.8321 11.5499 13.0812 11.5385C13.3304 11.5271 13.5638 11.57 13.7815 11.6674V3.42776C13.7815 3.23874 13.7142 3.07549 13.5795 2.93802C13.4449 2.80055 13.2803 2.73182 13.0855 2.73182C12.8851 2.73182 12.7204 2.80055 12.5915 2.93802C12.4626 3.07549 12.3981 3.23874 12.3981 3.42776V11.7275ZM13.833 18.9533H18.2063C18.3438 18.9533 18.454 18.9117 18.5371 18.8287C18.6201 18.7456 18.6617 18.6354 18.6617 18.4979C18.6617 18.3605 18.6201 18.2473 18.5371 18.1585C18.454 18.0697 18.3438 18.0253 18.2063 18.0253H16.4879V17.1662C17.055 17.0975 17.5519 16.917 17.9786 16.6249C18.4053 16.3328 18.7389 15.9547 18.9795 15.4908C19.2201 15.0268 19.3404 14.5027 19.3404 13.9185V13.1624C19.3404 13.0421 19.2946 12.9361 19.2029 12.8445C19.1113 12.7528 19.0054 12.707 18.8851 12.707C18.759 12.707 18.6516 12.7528 18.5629 12.8445C18.4741 12.9361 18.4297 13.0421 18.4297 13.1624V13.9185C18.4297 14.3881 18.3266 14.8034 18.1203 15.1643C17.9142 15.5251 17.6306 15.8072 17.2697 16.0106C16.9089 16.2139 16.4908 16.3156 16.0154 16.3156C15.5399 16.3156 15.1218 16.2139 14.761 16.0106C14.4001 15.8072 14.118 15.5251 13.9147 15.1643C13.7113 14.8034 13.6096 14.3881 13.6096 13.9185V13.1624C13.6096 13.0421 13.5638 12.9361 13.4721 12.8445C13.3805 12.7528 13.2717 12.707 13.1456 12.707C13.0254 12.707 12.9209 12.7528 12.8321 12.8445C12.7433 12.9361 12.6989 13.0421 12.6989 13.1624V13.9185C12.6989 14.5027 12.8177 15.0268 13.0554 15.4908C13.2932 15.9547 13.6268 16.3342 14.0564 16.6292C14.486 16.9241 14.9872 17.1031 15.56 17.1662V18.0253H13.833C13.6955 18.0253 13.5838 18.0697 13.4979 18.1585C13.412 18.2473 13.369 18.3605 13.369 18.4979C13.369 18.6354 13.412 18.7456 13.4979 18.8287C13.5838 18.9117 13.6955 18.9533 13.833 18.9533ZM16.0154 15.4478C16.4392 15.4478 16.7829 15.3031 17.0463 15.0139C17.3099 14.7246 17.4416 14.3623 17.4416 13.927V10.5504C17.4416 10.1151 17.3099 9.75423 17.0463 9.46788C16.7829 9.18146 16.4392 9.03825 16.0154 9.03825C15.5915 9.03825 15.2478 9.18146 14.9843 9.46788C14.7209 9.75423 14.5891 10.1151 14.5891 10.5504V13.927C14.5891 14.3623 14.7209 14.7246 14.9843 15.0139C15.2478 15.3031 15.5915 15.4478 16.0154 15.4478Z" fill="#5D75EF"/>
</g>
</svg>
