<svg width="68" height="30" viewBox="0 0 68 30" fill="none" xmlns="http://www.w3.org/2000/svg">
<g clip-path="url(#clip0_2192_40872)">
<path d="M7.26339 16.9676V12.9812H12.3001C13.3332 12.9812 14.2372 12.1839 14.2372 11.1209C14.2372 10.0578 13.4624 9.26057 12.4292 9.26057H7.39253L7.52168 6.86875C7.52168 5.80572 6.74681 5.00844 5.71365 5.00844C4.80963 5.00844 3.90561 5.9386 3.90561 7.00163L3.77647 9.39345H1.96843C0.935268 9.39345 0.03125 10.1907 0.03125 11.2538C0.03125 12.3168 0.806122 13.1141 1.83929 13.1141H3.77647L3.64732 16.9676C3.51817 21.0868 6.48852 24.4088 10.492 24.4088H12.4292C13.4624 24.4088 14.3664 23.6115 14.3664 22.5485C14.3664 21.4854 13.5915 20.6882 12.5583 20.6882H10.6212C8.55484 20.6882 7.13424 18.9607 7.26339 16.9676Z" fill="#575C6B"/>
<path d="M29.6055 11.2538C29.6055 10.1907 28.8307 9.39345 27.7975 9.39345C26.7643 9.39345 25.8603 10.1907 25.8603 11.2538L25.7312 16.8347C25.602 18.9607 24.698 20.5553 22.6317 20.5553C20.5654 20.5553 19.7905 18.8279 19.7905 16.8347L19.9196 11.2538C19.9196 10.1907 19.1448 9.39345 18.1116 9.39345C17.0784 9.39345 16.1744 10.1907 16.1744 11.2538L16.0453 16.8347C15.9161 20.9539 17.9825 24.2759 22.5025 24.2759C27.0226 24.2759 29.089 20.9539 29.2181 16.8347L29.6055 11.2538Z" fill="#575C6B"/>
<path d="M44.7155 11.3866C44.8447 10.3236 44.0698 9.52633 43.0367 9.52633C42.0035 9.52633 41.0995 10.3236 41.0995 11.3866L40.8412 16.9676C40.712 19.0936 39.6789 20.6882 37.7417 20.6882C35.8045 20.6882 34.9005 18.9607 35.0296 16.9676L35.2879 11.3866C35.4171 10.3236 34.6422 9.52633 33.609 9.52633C32.5759 9.52633 31.6719 10.3236 31.6719 11.3866L31.4136 16.9676C31.1553 21.0868 33.609 24.4088 37.6125 24.4088C38.904 24.4088 39.808 24.143 40.5829 23.3458C40.4537 25.3389 38.6457 26.2691 36.7085 26.2691C35.6754 26.2691 34.7714 27.0664 34.7714 28.1294C34.6422 29.1924 35.4171 29.9897 36.4502 29.9897C40.3246 29.9897 43.8115 27.465 44.0698 23.3458L44.7155 11.3866Z" fill="#575C6B"/>
<path d="M60.7296 16.5689C60.8587 12.4497 57.7592 9.1277 53.7557 9.1277C49.7522 9.1277 46.3944 12.5826 46.2653 16.7018C46.1361 20.8211 49.2356 24.0101 53.2391 24.0101C54.2723 24.0101 55.1763 23.2129 55.1763 22.1498C55.1763 21.0868 54.4014 20.2895 53.3683 20.2895C51.302 20.2895 49.7522 18.5621 49.8814 16.5689C50.0105 14.4429 51.6894 12.8483 53.6266 12.8483C55.6929 12.8483 57.2426 14.5757 57.1135 16.5689L56.9843 21.7512C56.9843 22.8142 57.7592 23.6115 58.7924 23.6115C59.8255 23.6115 60.7296 22.8142 60.7296 21.7512V16.5689Z" fill="#575C6B"/>
<path d="M62.2793 5.67284C61.2462 4.87557 59.6964 4.60981 58.405 5.2742H58.2758C57.7592 5.67284 57.5009 6.33723 57.7592 6.86875C58.0175 7.53315 58.6632 7.7989 59.309 7.53315C59.8256 7.26739 60.3421 7.40027 60.7296 7.66603C61.117 7.93178 61.2461 8.4633 61.2461 8.99482C61.117 9.65921 61.6336 10.1907 62.2793 10.3236H62.4085C62.925 10.3236 63.4416 9.92497 63.5708 9.26057C63.8291 7.79891 63.1833 6.33724 62.2793 5.67284Z" fill="#575C6B"/>
<path d="M64.8622 1.55359C62.5376 -0.173838 59.5673 -0.439596 56.9843 0.756316C56.4678 1.02207 56.2095 1.68647 56.4678 2.35086C56.5969 2.61662 56.8552 2.88238 57.1135 3.01526C57.3718 3.14814 57.7592 3.14814 58.0175 3.01526C59.8256 2.08511 61.8919 2.35086 63.4416 3.54678C65.1205 4.74269 65.8954 6.73587 65.6371 8.72906C65.6371 9.1277 65.7662 9.39345 65.8954 9.65921C66.0245 9.92497 66.2828 10.1907 66.6702 10.1907H66.7994C67.316 10.1907 67.8326 9.79209 67.9617 9.1277C68.22 6.20436 67.0577 3.28102 64.8622 1.55359Z" fill="#575C6B"/>
</g>
<defs>
<clipPath id="clip0_2192_40872">
<rect width="68" height="30" fill="white"/>
</clipPath>
</defs>
</svg>
