<svg width="86" height="16" viewBox="0 0 86 16" fill="none" xmlns="http://www.w3.org/2000/svg">
<path d="M5.64274 16C4.47273 16 3.46562 15.7667 2.62143 15.3002C1.78218 14.8289 1.13546 14.1631 0.681276 13.303C0.227092 12.438 0 11.415 0 10.2342C0 9.08246 0.227092 8.07168 0.681276 7.20182C1.13546 6.33197 1.77477 5.65406 2.59922 5.16811C3.4286 4.68216 4.40114 4.43918 5.51686 4.43918C6.26725 4.43918 6.9658 4.55824 7.61252 4.79636C8.26418 5.02961 8.83191 5.38193 9.31571 5.8533C9.80445 6.32468 10.1846 6.91754 10.4561 7.63189C10.7276 8.34138 10.8634 9.17236 10.8634 10.1248V10.9777H1.25888V9.0533H7.89392C7.89392 8.60623 7.79518 8.21018 7.59771 7.86515C7.40024 7.52012 7.12625 7.25042 6.77573 7.05604C6.43016 6.8568 6.02781 6.75718 5.56869 6.75718C5.08982 6.75718 4.66526 6.86652 4.295 7.08519C3.92968 7.29901 3.64335 7.58816 3.436 7.95262C3.22866 8.31223 3.12252 8.71314 3.11758 9.15535V10.985C3.11758 11.539 3.22125 12.0176 3.4286 12.421C3.64088 12.8243 3.93955 13.1353 4.32462 13.354C4.70969 13.5727 5.16634 13.682 5.69458 13.682C6.04509 13.682 6.36598 13.6334 6.65725 13.5362C6.94852 13.439 7.19783 13.2932 7.40517 13.0989C7.61252 12.9045 7.7705 12.6664 7.87911 12.3845L10.7967 12.574C10.6486 13.2641 10.345 13.8667 9.88591 14.3818C9.43172 14.892 8.84425 15.2905 8.12348 15.5772C7.40764 15.8591 6.58073 16 5.64274 16Z" fill="#575C6B"/>
<path d="M15.3361 15.7813L10.9967 0.852848H14.4993L17.0097 11.2255H17.1356L19.9051 0.852848H22.9042L25.6663 11.2474H25.7996L28.31 0.852848H31.8126L27.4732 15.7813H24.3482L21.4602 6.02096H21.3417L18.4611 15.7813H15.3361Z" fill="#575C6B"/>
<path d="M37.4313 16C36.2613 16 35.2542 15.7667 34.41 15.3002C33.5707 14.8289 32.924 14.1631 32.4698 13.303C32.0157 12.438 31.7886 11.415 31.7886 10.2342C31.7886 9.08246 32.0157 8.07168 32.4698 7.20182C32.924 6.33197 33.5633 5.65406 34.3878 5.16811C35.2172 4.68216 36.1897 4.43918 37.3054 4.43918C38.0558 4.43918 38.7544 4.55824 39.4011 4.79636C40.0527 5.02961 40.6205 5.38193 41.1043 5.8533C41.593 6.32468 41.9731 6.91754 42.2447 7.63189C42.5162 8.34138 42.652 9.17236 42.652 10.1248V10.9777H33.0474V9.0533H39.6825C39.6825 8.60623 39.5837 8.21018 39.3863 7.86515C39.1888 7.52012 38.9148 7.25042 38.5643 7.05604C38.2187 6.8568 37.8164 6.75718 37.3573 6.75718C36.8784 6.75718 36.4538 6.86652 36.0836 7.08519C35.7182 7.29901 35.4319 7.58816 35.2246 7.95262C35.0172 8.31223 34.9111 8.71314 34.9061 9.15535V10.985C34.9061 11.539 35.0098 12.0176 35.2172 12.421C35.4294 12.8243 35.7281 13.1353 36.1132 13.354C36.4983 13.5727 36.9549 13.682 37.4831 13.682C37.8337 13.682 38.1545 13.6334 38.4458 13.5362C38.7371 13.439 38.9864 13.2932 39.1937 13.0989C39.4011 12.9045 39.5591 12.6664 39.6677 12.3845L42.5853 12.574C42.4372 13.2641 42.1336 13.8667 41.6745 14.3818C41.2203 14.892 40.6328 15.2905 39.912 15.5772C39.1962 15.8591 38.3693 16 37.4313 16Z" fill="#575C6B"/>
<path d="M44.7698 15.7813V0.852848H47.9763V13.179H54.478V15.7813H44.7698Z" fill="#575C6B"/>
<path d="M56.5422 15.7813V4.58497H59.6968V15.7813H56.5422ZM58.1269 3.14169C57.6579 3.14169 57.2556 2.98861 56.9199 2.68246C56.5891 2.37145 56.4237 1.9997 56.4237 1.5672C56.4237 1.13956 56.5891 0.772666 56.9199 0.466516C57.2556 0.155505 57.6579 0 58.1269 0C58.5959 0 58.9958 0.155505 59.3266 0.466516C59.6623 0.772666 59.8301 1.13956 59.8301 1.5672C59.8301 1.9997 59.6623 2.37145 59.3266 2.68246C58.9958 2.98861 58.5959 3.14169 58.1269 3.14169Z" fill="#575C6B"/>
<path d="M65.3784 9.30843V15.7813H62.2238V4.58497H65.2303V6.56037H65.3636C65.6154 5.90919 66.0375 5.39408 66.6299 5.01503C67.2223 4.63113 67.9406 4.43918 68.7848 4.43918C69.5747 4.43918 70.2634 4.60926 70.8509 4.94943C71.4383 5.2896 71.895 5.77555 72.2208 6.40729C72.5466 7.03417 72.7096 7.78254 72.7096 8.65239V15.7813H69.555V9.20638C69.5599 8.52118 69.3822 7.98664 69.0218 7.60273C68.6614 7.21397 68.1653 7.01959 67.5333 7.01959C67.1088 7.01959 66.7336 7.10949 66.4078 7.28929C66.0869 7.4691 65.8351 7.73151 65.6524 8.07654C65.4747 8.41671 65.3834 8.82734 65.3784 9.30843Z" fill="#575C6B"/>
<path d="M78.0542 12.5595L78.0616 8.83462H78.5208L82.1641 4.58497H85.7852L80.8904 10.2123H80.1425L78.0542 12.5595ZM75.1958 15.7813V0.852848H78.3504V15.7813H75.1958ZM82.3048 15.7813L78.9577 10.9048L81.0607 8.71071L86 15.7813H82.3048Z" fill="#575C6B"/>
</svg>
