<svg width="106" height="22" viewBox="0 0 106 22" fill="none" xmlns="http://www.w3.org/2000/svg">
<g clip-path="url(#clip0_667_3745)">
<path d="M105.997 9.95305V8.1417H103.682V5.32574L103.604 5.34906L101.43 5.99548L101.387 6.00814V8.1418H97.9548V6.95317C97.9548 6.3997 98.0822 5.97616 98.3332 5.69369C98.5825 5.41462 98.939 5.27274 99.3938 5.27274C99.7207 5.27274 100.059 5.34756 100.4 5.49512L100.485 5.53219V3.62459L100.445 3.61025C100.127 3.49925 99.6951 3.44336 99.1593 3.44336C98.4841 3.44336 97.8706 3.58614 97.3355 3.8691C96.8001 4.15245 96.379 4.55697 96.084 5.07128C95.79 5.58499 95.6408 6.17831 95.6408 6.8349V8.1417H94.0289V9.95305H95.6408V17.5839H97.9548V9.95305H101.387V14.8023C101.387 16.7995 102.356 17.8116 104.268 17.8116C104.582 17.8116 104.913 17.7758 105.251 17.7058C105.595 17.6338 105.829 17.562 105.966 17.4853L105.997 17.4677V15.6397L105.903 15.7001C105.777 15.7814 105.621 15.8479 105.437 15.8973C105.253 15.9476 105.1 15.9728 104.98 15.9728C104.532 15.9728 104.201 15.8556 103.995 15.6241C103.788 15.3906 103.682 14.9822 103.682 14.4109V9.95305H105.997ZM88.8613 15.9731C88.0214 15.9731 87.3592 15.7025 86.8926 15.1695C86.423 14.6338 86.1851 13.87 86.1851 12.8995C86.1851 11.8983 86.423 11.1147 86.8928 10.5695C87.3597 10.0279 88.0156 9.75298 88.8425 9.75298C89.6448 9.75298 90.2835 10.0155 90.7411 10.5337C91.2009 11.0546 91.4342 11.8319 91.4342 12.8448C91.4342 13.8702 91.2148 14.6578 90.7821 15.1846C90.3524 15.7075 89.7061 15.9731 88.8613 15.9731ZM88.9642 7.91424C87.3618 7.91424 86.0891 8.37046 85.1816 9.27025C84.2747 10.1701 83.8149 11.4155 83.8149 12.972C83.8149 14.4503 84.2637 15.6395 85.1491 16.5058C86.0344 17.3724 87.2393 17.8114 88.7299 17.8114C90.2831 17.8114 91.5305 17.3488 92.4376 16.4365C93.3446 15.5253 93.804 14.2917 93.804 12.7716C93.804 11.2701 93.3729 10.0721 92.5221 9.21157C91.6709 8.35063 90.4737 7.91424 88.9642 7.91424ZM80.084 7.91424C78.994 7.91424 78.0924 8.18514 77.4036 8.71928C76.7107 9.2566 76.3592 9.96132 76.3592 10.8141C76.3592 11.2574 76.4351 11.6511 76.5843 11.9851C76.7346 12.3201 76.967 12.6152 77.2759 12.8628C77.5824 13.1084 78.0555 13.3656 78.6824 13.6273C79.2095 13.8381 79.6025 14.0163 79.8522 14.1568C80.0962 14.2945 80.2694 14.4329 80.3672 14.5677C80.4623 14.6996 80.5105 14.8801 80.5105 15.1029C80.5105 15.7373 80.0216 16.046 79.0156 16.046C78.6424 16.046 78.2168 15.9702 77.7505 15.821C77.2876 15.674 76.8507 15.4587 76.455 15.1827L76.359 15.1158V17.2805L76.3942 17.2965C76.7216 17.4433 77.1345 17.5672 77.621 17.6646C78.1067 17.7622 78.5479 17.8118 78.9312 17.8118C80.114 17.8118 81.0665 17.5396 81.7615 17.0022C82.4609 16.4612 82.8154 15.7399 82.8154 14.8576C82.8154 14.2212 82.6245 13.6754 82.2484 13.2352C81.8749 12.7986 81.2265 12.3978 80.3222 12.0435C79.6018 11.7625 79.1402 11.5293 78.9498 11.3502C78.7663 11.1772 78.6731 10.9326 78.6731 10.6229C78.6731 10.3483 78.7881 10.1283 79.0243 9.95016C79.2623 9.77111 79.5936 9.68005 80.0091 9.68005C80.3946 9.68005 80.7891 9.73923 81.1814 9.85521C81.5734 9.97118 81.9177 10.1265 82.2052 10.3165L82.2997 10.3793V8.32582L82.2634 8.31068C81.9982 8.20018 81.6486 8.10563 81.2239 8.02891C80.8011 7.95269 80.4176 7.91424 80.084 7.91424ZM70.3267 15.9731C69.487 15.9731 68.8246 15.7025 68.358 15.1695C67.8884 14.6338 67.6509 13.8702 67.6509 12.8995C67.6509 11.8983 67.8887 11.1147 68.3585 10.5695C68.8251 10.0279 69.4808 9.75298 70.3081 9.75298C71.1102 9.75298 71.7489 10.0155 72.2065 10.5337C72.6664 11.0546 72.8997 11.8319 72.8997 12.8448C72.8997 13.8702 72.6802 14.6578 72.2474 15.1846C71.8177 15.7075 71.1718 15.9731 70.3267 15.9731ZM70.4298 7.91424C68.827 7.91424 67.5542 8.37046 66.6472 9.27025C65.7404 10.1701 65.2803 11.4155 65.2803 12.972C65.2803 14.4509 65.7294 15.6395 66.6147 16.5058C67.5 17.3724 68.7048 17.8114 70.1954 17.8114C71.7485 17.8114 72.9962 17.3488 73.9032 16.4365C74.81 15.5253 75.2697 14.2917 75.2697 12.7716C75.2697 11.2701 74.8384 10.0721 73.9874 9.21157C73.136 8.35063 71.939 7.91424 70.4298 7.91424ZM61.7677 9.77689V8.1417H59.4819V17.5837H61.7677V12.7538C61.7677 11.9325 61.9593 11.2578 62.3375 10.7481C62.7108 10.2446 63.2084 9.98941 63.8158 9.98941C64.0217 9.98941 64.2528 10.0224 64.5031 10.0877C64.7509 10.1525 64.9303 10.223 65.0361 10.2971L65.1322 10.3647V8.12556L65.0952 8.11012C64.8823 8.02224 64.5812 7.9779 64.2001 7.9779C63.6257 7.9779 63.1117 8.15724 62.6714 8.51035C62.2849 8.82071 62.0056 9.24624 61.792 9.77689H61.7677ZM55.3884 7.91424C54.3397 7.91424 53.4043 8.13273 52.6087 8.56345C51.8115 8.99516 51.1949 9.6115 50.7754 10.3952C50.3578 11.177 50.1457 12.0903 50.1457 13.1088C50.1457 14.0009 50.3513 14.8196 50.7577 15.5411C51.1642 16.2639 51.7397 16.8293 52.4681 17.2214C53.1956 17.6131 54.0363 17.8117 54.9671 17.8117C56.0534 17.8117 56.9809 17.6007 57.7245 17.1845L57.7546 17.1677V15.1329L57.6585 15.2011C57.3217 15.4395 56.9452 15.6298 56.5402 15.7669C56.1362 15.9039 55.7679 15.9731 55.4449 15.9731C54.548 15.9731 53.8279 15.7004 53.3053 15.1628C52.7815 14.6245 52.5159 13.8686 52.5159 12.9174C52.5159 11.9602 52.7929 11.1848 53.3387 10.6127C53.8829 10.0423 54.6042 9.75298 55.4826 9.75298C56.2339 9.75298 56.966 10.0002 57.6587 10.4884L57.7546 10.556V8.41201L57.7236 8.39507C57.4629 8.25329 57.1074 8.13622 56.6661 8.04745C56.2266 7.95887 55.7968 7.91424 55.3884 7.91424ZM48.5714 8.1418H46.2856V17.5837H48.5714V8.1418ZM47.4519 4.11948C47.0757 4.11948 46.7476 4.24392 46.478 4.49051C46.2073 4.7378 46.07 5.04916 46.07 5.41661C46.07 5.77828 46.2056 6.08396 46.4738 6.32467C46.7402 6.56469 47.0693 6.68635 47.452 6.68635C47.8346 6.68635 48.165 6.56469 48.4345 6.32507C48.7059 6.08396 48.8435 5.77838 48.8435 5.41661C48.8435 5.06201 48.7096 4.75385 48.4457 4.50048C48.1821 4.2476 47.8476 4.11948 47.4519 4.11948ZM41.7486 7.44516V17.5837H44.0814V4.40851H40.8528L36.7489 14.1947L32.7664 4.40851H29.4062V17.5836H31.5984V7.44416H31.6737L35.8792 17.5837H37.5335L41.6734 7.44516H41.7486Z" fill="#575C6B"/>
<path d="M10.7531 10.4543H0V0.00585938H10.7531V10.4543Z" fill="#575C6B"/>
<path d="M22.6279 10.4543H11.875V0.00585938H22.6279V10.4543Z" fill="#575C6B"/>
<path d="M10.7528 21.9942H0V11.5459H10.7528V21.9942Z" fill="#575C6B"/>
<path d="M22.6279 21.9942H11.875V11.5459H22.6279V21.9942Z" fill="#575C6B"/>
</g>
<defs>
<clipPath id="clip0_667_3745">
<rect width="106" height="22" fill="white"/>
</clipPath>
</defs>
</svg>
