<svg width="24" height="25" viewBox="0 0 24 25" fill="none" xmlns="http://www.w3.org/2000/svg">
<g clip-path="url(#clip0_2093_29251)">
<path fill-rule="evenodd" clip-rule="evenodd" d="M6.37124 4.81479C7.86926 3.33176 9.89206 2.49989 12 2.5C14.1079 2.49989 16.1307 3.33176 17.6288 4.81479C19.1268 6.29782 19.9789 8.31216 20 10.42C20 15.9 13 22 12.65 22.26C12.4689 22.4149 12.2384 22.5001 12 22.5001C11.7616 22.5001 11.5311 22.4149 11.35 22.26L11.3484 22.2586C11.0253 21.9787 4 15.8904 4 10.42C4.02108 8.31216 4.87323 6.29782 6.37124 4.81479ZM10.6606 13.2336C11.0852 13.4095 11.5404 13.5 12 13.5C12.9283 13.5 13.8185 13.1313 14.4749 12.4749C15.1313 11.8185 15.5 10.9283 15.5 10C15.5 9.07174 15.1313 8.1815 14.4749 7.52513C13.8185 6.86875 12.9283 6.5 12 6.5C11.5404 6.5 11.0852 6.59053 10.6606 6.76642C10.236 6.94231 9.85013 7.20012 9.52513 7.52513C9.20012 7.85013 8.94231 8.23597 8.76642 8.66061C8.59053 9.08525 8.5 9.54037 8.5 10C8.5 10.4596 8.59053 10.9148 8.76642 11.3394C8.94231 11.764 9.20012 12.1499 9.52513 12.4749C9.85013 12.7999 10.236 13.0577 10.6606 13.2336ZM13.0607 11.0607C12.7794 11.342 12.3978 11.5 12 11.5C11.6022 11.5 11.2206 11.342 10.9393 11.0607C10.658 10.7794 10.5 10.3978 10.5 10C10.5 9.60218 10.658 9.22064 10.9393 8.93934C11.2206 8.65804 11.6022 8.5 12 8.5C12.3978 8.5 12.7794 8.65804 13.0607 8.93934C13.342 9.22064 13.5 9.60218 13.5 10C13.5 10.3978 13.342 10.7794 13.0607 11.0607Z" fill="#575C6B"/>
</g>
<defs>
<clipPath id="clip0_2093_29251">
<rect width="24" height="24" fill="white" transform="translate(0 0.5)"/>
</clipPath>
</defs>
</svg>
