<svg width="108" height="16" viewBox="0 0 108 16" fill="none" xmlns="http://www.w3.org/2000/svg">
<path d="M7.16859 11.2093C7.31718 11.57 7.27007 12.0322 7.19758 12.3124C7.07074 12.8096 6.72282 13.3174 5.69356 13.3174C4.72953 13.3174 4.14242 12.7781 4.14242 11.9657V10.5194H0V11.668C0 14.9948 2.70725 15.9998 5.6102 15.9998C8.40081 15.9998 10.6985 15.0823 11.0646 12.5925C11.253 11.3038 11.1153 10.4599 11.0501 10.1482C10.3977 7.02455 4.54107 6.09305 4.10255 4.34563C4.04166 4.08793 4.03672 3.82084 4.08805 3.56121C4.19678 3.08145 4.53383 2.55968 5.49785 2.55968C6.40389 2.55968 6.9294 3.09896 6.9294 3.9114V4.83589H10.7819V3.78533C10.7819 0.535602 7.76295 0.027832 5.58121 0.027832C2.83409 0.027832 0.590738 0.906799 0.181208 3.34059C0.0724832 4.00595 0.0543624 4.60126 0.21745 5.35066C0.887919 8.39728 6.37128 9.27975 7.16859 11.2093Z" fill="#575C6B"/>
<path d="M16.5271 0.504478L13.6641 15.4189H17.8355L19.9484 1.88421H20.0353L22.0902 15.4189H26.2399L23.3949 0.500977L16.5271 0.504478ZM39.8486 0.504478L37.9459 11.9065H37.8553L35.9563 0.504478H29.6611L29.3204 15.4189H33.1838L33.278 2.01028H33.365L35.9418 15.4189H39.8595L42.4399 2.01378H42.5233L42.6211 15.4189H46.4808L46.1402 0.500977L39.8486 0.504478Z" fill="#575C6B"/>
<path d="M57.3561 11.1814C57.5047 11.5421 57.4576 12.0044 57.3851 12.2845C57.2582 12.7818 56.9103 13.2896 55.8811 13.2896C54.917 13.2896 54.3299 12.7503 54.3299 11.9378V10.4916H50.1875V11.6402C50.1875 14.967 52.8947 15.972 55.7977 15.972C58.5883 15.972 60.886 15.0545 61.2521 12.5647C61.4405 11.276 61.3028 10.432 61.2376 10.1204C60.5852 6.99672 54.7286 6.06522 54.2901 4.31779C54.2292 4.0601 54.2242 3.79301 54.2756 3.53338C54.3843 3.05362 54.7213 2.53184 55.6854 2.53184C56.5914 2.53184 57.1169 3.07113 57.1169 3.88356V4.80805H60.9694V3.7575C60.9694 0.50777 57.9505 0 55.7687 0C53.0216 0 50.7782 0.878967 50.3687 3.31276C50.26 3.97811 50.2419 4.57343 50.4049 5.32283C51.0754 8.36945 56.5588 9.25191 57.3561 11.1814Z" fill="#575C6B"/>
<path d="M70.3085 13.1846C71.3812 13.1846 71.711 12.4702 71.7872 12.106C71.8198 11.9449 71.8234 11.7278 71.8234 11.5352V0.50436H75.7302V11.1955C75.731 11.5227 75.7189 11.8498 75.694 12.1761C75.4222 14.96 73.1462 15.8635 70.3085 15.8635C67.4672 15.8635 65.1912 14.96 64.9194 12.1761C64.9085 12.029 64.8795 11.4687 64.8831 11.1955V0.500858H68.79V11.5317C68.7863 11.7278 68.7936 11.9449 68.8262 12.106C68.8987 12.4702 69.2321 13.1846 70.3085 13.1846ZM89.1831 0.50436L89.3933 12.2111H89.31L85.7583 0.50436H80.0321V15.2612H83.8266L83.6164 3.14827H83.6998L87.5088 15.2612H93.0066V0.50436H89.1831ZM102.502 13.0305C103.618 13.0305 104.01 12.3477 104.078 11.9449C104.111 11.7804 104.115 11.5702 104.115 11.3846V9.21349H102.531V7.04233H108V11.0415C108 11.3216 107.993 11.5247 107.945 12.022C107.692 14.7394 105.253 15.7094 102.516 15.7094C99.7802 15.7094 97.3447 14.7394 97.0874 12.022C97.0439 11.5247 97.0331 11.3216 97.0331 11.0415V4.76612C97.0331 4.49998 97.0693 4.03073 97.0983 3.7856C97.4426 0.994621 99.7802 0.0981445 102.516 0.0981445C105.253 0.0981445 107.652 0.987617 107.935 3.7821C107.985 4.25836 107.971 4.76262 107.971 4.76262V5.26339H104.078V4.42644C104.078 4.42644 104.078 4.07626 104.031 3.85914C103.959 3.52997 103.669 2.77357 102.487 2.77357C101.364 2.77357 101.034 3.49145 100.951 3.85914C100.904 4.05525 100.886 4.32139 100.886 4.56302V11.3811C100.886 11.5702 100.893 11.7804 100.922 11.9484C100.994 12.3477 101.386 13.0305 102.502 13.0305Z" fill="#575C6B"/>
</svg>
