<svg width="21" height="20" viewBox="0 0 21 20" fill="none" xmlns="http://www.w3.org/2000/svg">
<g clip-path="url(#clip0_1972_24328)">
<path d="M10.4999 13.3334C10.3052 13.3338 10.1165 13.266 9.96657 13.1417L4.96657 8.97507C4.79639 8.83362 4.68937 8.63036 4.66905 8.41C4.64874 8.18965 4.71679 7.97025 4.85824 7.80007C4.99969 7.62989 5.20295 7.52287 5.4233 7.50255C5.64366 7.48223 5.86306 7.55028 6.03324 7.69173L10.4999 11.4251L14.9666 7.82507C15.0518 7.75585 15.1499 7.70415 15.2552 7.67296C15.3605 7.64177 15.4709 7.63169 15.5801 7.6433C15.6892 7.65492 15.7951 7.688 15.8914 7.74065C15.9878 7.79329 16.0728 7.86446 16.1416 7.95007C16.2179 8.03575 16.2757 8.13627 16.3113 8.24533C16.347 8.3544 16.3598 8.46965 16.3488 8.58387C16.3379 8.69809 16.3034 8.80881 16.2477 8.90911C16.192 9.00941 16.1161 9.09711 16.0249 9.16673L11.0249 13.1917C10.8707 13.2963 10.6858 13.3462 10.4999 13.3334Z" fill="#84899A"/>
</g>
<defs>
<clipPath id="clip0_1972_24328">
<rect width="20" height="20" fill="white" transform="translate(0.5)"/>
</clipPath>
</defs>
</svg>
