<svg width="18" height="19" viewBox="0 0 18 19" fill="none" xmlns="http://www.w3.org/2000/svg">
<g clip-path="url(#clip0_2101_3277)">
<path d="M4.67553 15.5235C4.46028 15.5235 4.24803 15.4665 4.06053 15.3592C3.8503 15.2362 3.67632 15.0598 3.5562 14.8479C3.43609 14.636 3.3741 14.3961 3.37653 14.1525V3.95699C3.37653 3.45224 3.63903 2.98949 4.06053 2.75024C4.25237 2.63998 4.47031 2.58326 4.69156 2.58603C4.91282 2.5888 5.12927 2.65096 5.31828 2.76599L14.0318 7.98149C14.2137 8.09514 14.3638 8.25321 14.4678 8.44083C14.5718 8.62845 14.6264 8.83946 14.6264 9.05399C14.6264 9.26852 14.5718 9.47953 14.4678 9.66715C14.3638 9.85477 14.2137 10.0128 14.0318 10.1265L5.31678 15.3435C5.12329 15.4605 4.90164 15.5227 4.67553 15.5235Z" fill="#84899A"/>
</g>
<defs>
<clipPath id="clip0_2101_3277">
<rect width="18" height="18" fill="white" transform="translate(0 0.0546875)"/>
</clipPath>
</defs>
</svg>
