<svg width="142" height="22" viewBox="0 0 142 22" fill="none" xmlns="http://www.w3.org/2000/svg">
<path d="M52.9089 3.89409V18.0761H62.0495V15.6114H55.7178V11.9751H61.6163V9.56741H55.7178V6.31866L61.8248 6.31996V3.89409H52.9089ZM63.1206 18.0761H65.872V3.83318H63.1206V18.0761ZM75.5968 12.7527C75.5968 9.93673 74.3721 7.96183 71.3386 7.96183C68.3051 7.96183 66.7209 9.84084 66.7209 13.0883C66.7209 16.5301 67.928 18.3119 71.4697 18.3119C73.1462 18.3119 74.693 17.7832 75.4282 17.274L74.9189 15.4157C74.1075 15.8459 72.9215 16.1595 71.9603 16.1595C70.999 16.1595 70.2837 15.8666 69.9816 15.5336C69.6233 15.1228 69.4535 14.458 69.4535 13.7738H75.5968V12.7527ZM72.9015 11.9531H69.4535C69.4922 10.5847 70.1314 9.91989 71.2624 9.91989C72.5096 9.91989 72.9015 10.7596 72.9015 11.9531ZM84.6762 9.27195C84.0158 8.5683 82.7349 8.02144 81.3018 8.02144C77.9662 8.02144 76.3845 9.58426 76.3845 13.2023C76.3845 16.6856 77.6466 18.3469 81.2082 18.3469C82.6788 18.3469 83.9409 17.9763 84.6387 17.5266L84.0732 15.5686C83.3754 15.9224 82.4903 16.1751 81.4541 16.1751C79.9848 16.1751 79.041 15.3353 79.041 13.2425C79.041 10.9747 79.8525 10.1311 81.3218 10.1311C82.132 10.1311 82.8286 10.4836 83.2805 10.9151L84.6762 9.27195ZM92.8268 8.21711H89.6422V5.85085L86.9457 6.31348V8.21711H85.3078V10.4292H86.9457V14.7716C86.9457 17.3724 87.7197 18.3119 89.9043 18.3119C91.1302 18.3119 92.2987 18.0372 93.2025 17.5279L92.8068 15.4934C92.2238 15.8083 91.4511 15.9833 90.9043 15.9833C89.9805 15.9833 89.6422 15.6684 89.6422 14.4179V10.4473H92.8268V8.21711ZM94.1787 8.21711V18.0761H96.9102V11.287C97.3821 10.6611 98.2497 10.2698 99.1335 10.2698C99.6254 10.2698 100.171 10.4071 100.473 10.5834L101.095 8.29357C100.679 8.06031 99.9837 7.96053 99.3432 7.96053C98.4182 7.96053 97.2747 8.39206 96.6905 9.1955L96.6917 8.21582L94.1787 8.21711ZM105.8 7.96183C102.332 7.96183 100.86 9.6659 100.86 13.1077C100.86 16.3357 101.917 18.3119 105.403 18.3119C108.776 18.3119 110.358 16.6481 110.358 13.2062C110.358 9.84214 109.304 7.96183 105.8 7.96183ZM107.589 13.03C107.589 15.3003 107.174 16.2567 105.46 16.2567C104.027 16.2567 103.633 15.1021 103.633 13.1285C103.633 10.8983 104.083 10.0158 105.742 10.0158C107.269 10.0158 107.589 11.1911 107.589 13.03ZM111.34 8.21711V18.0761H114.073V10.8179C114.412 10.5652 115.091 10.3099 115.657 10.3099C116.994 10.3099 117.277 10.8581 117.277 11.9531V18.0761H120.009V11.2715C120.009 9.29398 119.33 7.98256 117.05 7.98256C115.995 7.98256 114.88 8.25729 113.902 8.88578V8.21711H111.34ZM121.344 6.08411H124.115V3.7969H121.344V6.08411ZM121.364 18.0761H124.096V8.21711H121.364V18.0761ZM133.313 9.23308C132.651 8.52812 131.37 7.98127 129.937 7.98127C126.604 7.98127 125.02 9.54668 125.02 13.166C125.02 16.6468 126.284 18.3107 129.843 18.3107C131.313 18.3107 132.577 17.9387 133.274 17.4891L132.708 15.5323C132.012 15.8848 131.125 16.1388 130.089 16.1388C128.619 16.1388 127.677 15.299 127.677 13.2049C127.677 10.9358 128.488 10.0948 129.957 10.0948C130.768 10.0948 131.465 10.446 131.917 10.8762L133.313 9.23308ZM141.924 8.84302C140.81 8.3156 139.738 7.98256 138.194 7.98256C135.536 7.98256 134.122 9.15662 134.122 10.976C134.122 12.8343 135.271 13.6753 136.742 14.0265L137.815 14.2805C138.777 14.4956 139.378 14.8299 139.378 15.3185C139.378 15.925 138.777 16.2386 137.91 16.2386C136.817 16.2386 135.536 15.8666 134.744 15.3975L134.045 17.4308C135.008 17.9595 136.214 18.3495 137.892 18.3495C140.436 18.3495 142 17.3141 142 15.141C142 13.6948 141.132 12.8745 139.983 12.522C139.662 12.4235 139.078 12.2473 138.664 12.1501C137.664 11.935 136.667 11.7173 136.667 10.9371C136.667 10.3488 137.269 10.0365 138.249 10.0365C139.342 10.0365 140.397 10.3294 141.15 10.7596L141.924 8.84302ZM35.649 15.3405H29.0925V3.8915H25.9304V18.1111H35.649V15.3405ZM42.6124 12.6905H45.1903V15.1759C44.7146 15.3651 43.7883 15.5517 42.9057 15.5517C40.0582 15.5517 39.1082 14.0498 39.1082 11.0006C39.1082 8.09141 40.012 6.37827 42.8596 6.37827C44.4437 6.37827 45.3476 6.89403 46.0928 7.87889L48.0603 6.00247C46.8618 4.21935 44.7596 3.68027 42.7934 3.68027C38.3617 3.68027 36.0335 6.18908 36.0335 10.976C36.0335 15.7409 38.1357 18.3223 42.7697 18.3223C44.8944 18.3223 46.9754 17.7586 48.1052 16.937V10.0391H42.6124V12.6905Z" fill="#575C6B"/>
<path d="M10.5962 22C16.4485 22 21.1923 17.0731 21.1923 11.0006C21.1923 4.92431 16.4485 0 10.5962 0C4.7438 0 0 4.92431 0 11.0006C0 17.0731 4.7438 22 10.5962 22Z" fill="#575C6B"/>
<path d="M13.1261 15.8148V14.9531H11.0164V6.17094H10.175V15.8148H13.1261ZM7.21258 8.80415C7.91416 8.80415 8.48467 8.21194 8.48467 7.48625C8.48467 6.75927 7.91416 6.16835 7.21258 6.16835C6.51349 6.16835 5.94299 6.75927 5.94299 7.48625C5.94299 8.21194 6.51349 8.80415 7.21258 8.80415Z" fill="#1C1D22"/>
<path d="M11.0172 1.79609C10.9111 1.7909 10.7001 1.78961 10.5965 1.78961C5.70917 1.78961 1.73062 5.91955 1.73062 10.9968C1.73062 13.455 2.64817 15.7669 4.32223 17.5046C6.00253 19.2463 8.23087 20.2039 10.5965 20.2039C12.9634 20.2039 15.1918 19.2463 16.8696 17.5046C18.5436 15.7669 19.4637 13.455 19.4637 10.9968V10.5782H13.1332V11.4348H18.6223V11.5579C18.3402 15.8991 14.8472 19.3422 10.5965 19.3422C8.45059 19.3422 6.43322 18.4752 4.91271 16.8995C3.39344 15.3224 2.55704 13.2257 2.55704 10.9968C2.55704 8.76917 3.39344 6.67115 4.91271 5.09408C6.43322 3.51571 8.45059 2.64877 10.5965 2.64877C10.6939 2.64877 10.9211 2.65136 11.0172 2.65395V1.79609Z" fill="#1C1D22"/>
</svg>
