<svg width="20" height="22" viewBox="0 0 20 22" fill="none" xmlns="http://www.w3.org/2000/svg">
<g clip-path="url(#clip0_1318_12858)">
<path fill-rule="evenodd" clip-rule="evenodd" d="M9.99984 3.66669C7.7897 3.66669 5.67008 4.54466 4.10728 6.10746C2.54448 7.67027 1.6665 9.78988 1.6665 12C1.6665 14.2102 2.54448 16.3298 4.10728 17.8926C5.67008 19.4554 7.7897 20.3334 9.99984 20.3334C12.21 20.3334 14.3296 19.4554 15.8924 17.8926C17.4552 16.3298 18.3332 14.2102 18.3332 12C18.3332 9.78988 17.4552 7.67027 15.8924 6.10746C14.3296 4.54466 12.21 3.66669 9.99984 3.66669ZM9.99984 18.6667C9.1243 18.6667 8.25734 18.4942 7.44846 18.1592C6.63957 17.8241 5.90459 17.333 5.2855 16.7139C4.6664 16.0948 4.17531 15.3599 3.84026 14.551C3.5052 13.7421 3.33275 12.8751 3.33275 11.9996C3.33275 11.1241 3.5052 10.2571 3.84026 9.44822C4.17531 8.63933 4.6664 7.90436 5.2855 7.28526C5.90459 6.66617 6.63957 6.17507 7.44846 5.84002C8.25734 5.50497 9.1243 5.33252 9.99984 5.33252C11.7681 5.33252 13.4639 6.03494 14.7142 7.28526C15.9645 8.53558 16.6669 10.2314 16.6669 11.9996C16.6669 13.7678 15.9645 15.4636 14.7142 16.7139C13.4639 17.9643 11.7681 18.6667 9.99984 18.6667ZM9.99984 9.50002C10.2209 9.50002 10.4328 9.41222 10.5891 9.25594C10.7454 9.09966 10.8332 8.8877 10.8332 8.66669C10.8332 8.44567 10.7454 8.23371 10.5891 8.07743C10.4328 7.92115 10.2209 7.83335 9.99984 7.83335C9.77882 7.83335 9.56686 7.92115 9.41058 8.07743C9.2543 8.23371 9.1665 8.44567 9.1665 8.66669C9.1665 8.8877 9.2543 9.09966 9.41058 9.25594C9.56686 9.41222 9.77882 9.50002 9.99984 9.50002ZM9.41058 10.5774C9.56686 10.4212 9.77882 10.3334 9.99984 10.3334C10.2209 10.3334 10.4328 10.4212 10.5891 10.5774C10.7454 10.7337 10.8332 10.9457 10.8332 11.1667V15.3334C10.8332 15.5544 10.7454 15.7663 10.5891 15.9226C10.4328 16.0789 10.2209 16.1667 9.99984 16.1667C9.77882 16.1667 9.56686 16.0789 9.41058 15.9226C9.2543 15.7663 9.1665 15.5544 9.1665 15.3334V11.1667C9.1665 10.9457 9.2543 10.7337 9.41058 10.5774Z" fill="#6A7081"/>
</g>
<defs>
<clipPath id="clip0_1318_12858">
<rect width="20" height="20" fill="white" transform="translate(0 2)"/>
</clipPath>
</defs>
</svg>
