<svg width="32" height="20" viewBox="0 0 32 20" fill="none" xmlns="http://www.w3.org/2000/svg">
<path d="M31.3211 1.14441e-05H27.0792C26.8975 1.14441e-05 26.7505 0.144526 26.7505 0.322536V19.678C26.7505 19.8545 26.8975 19.999 27.0792 19.999H31.3211C31.5012 19.999 31.6503 19.8545 31.6503 19.678V0.322536C31.6503 0.144526 31.5012 1.14441e-05 31.3211 1.14441e-05ZM16.8374 1.14441e-05H0.679222C0.49758 1.14441e-05 0.351562 0.144526 0.351562 0.322536V19.678C0.351562 19.8545 0.49758 19.999 0.679222 19.999H4.92218C5.10278 19.999 5.25241 19.8545 5.25241 19.678V4.48685C5.25241 4.31143 5.39842 4.16587 5.58006 4.16587H14.7197C17.2899 4.16587 18.0195 6.13448 18.0195 7.40443V19.678C18.0195 19.8545 18.167 19.999 18.3487 19.999H22.589C22.7696 19.999 22.9178 19.8545 22.9178 19.678V5.94721C22.9178 4.81451 22.7815 3.18595 21.3202 1.75244C19.7914 0.255955 18.3967 1.14441e-05 16.8374 1.14441e-05Z" fill="#575C6B"/>
<path d="M13.8633 7.70938H9.40883C9.22719 7.70938 9.07812 7.85388 9.07812 8.03085V19.6796C9.07812 19.8555 9.22719 20 9.40883 20H13.8633C14.0434 20 14.191 19.8555 14.191 19.6796V8.03085C14.191 7.85384 14.0434 7.70938 13.8633 7.70938Z" fill="#575C6B"/>
</svg>
