<svg width="76" height="46" viewBox="0 0 76 46" fill="none" xmlns="http://www.w3.org/2000/svg">
<g clip-path="url(#clip0_2192_40874)">
<path fill-rule="evenodd" clip-rule="evenodd" d="M12.169 12.7791C13.5025 13.2776 14.5602 14.3156 15.0817 15.6337L20.8013 30.8342C20.8138 30.8675 20.7972 30.9048 20.7642 30.9174L20.7415 30.9217H18.093C18.0664 30.9217 18.0426 30.9051 18.0331 30.88L12.6704 16.6259C12.4249 15.9731 11.9081 15.4581 11.2532 15.2132C10.0193 14.752 8.64595 15.3592 8.1566 16.5712L6.86455 20.0034C5.62119 20.6311 4.76892 21.917 4.76892 23.4013C4.76892 23.9073 4.86798 24.3903 5.04784 24.832L2.77242 30.88C2.76298 30.9051 2.73917 30.9217 2.71259 30.9217L0.0640169 30.9223C0.0286706 30.9224 9.32995e-06 30.8935 0 30.8578L0.00416429 30.8349L5.69328 15.7131C6.66869 13.1204 9.56794 11.8068 12.169 12.7791ZM27.5453 16.0399L27.85 16.0366L28.2234 16.0497L28.5172 16.0733L28.843 16.1135L29.0715 16.1508L29.4021 16.2179L29.6359 16.2752L29.7787 16.3143L30.0433 16.3951L30.2672 16.4723L30.3709 16.5108L30.6493 16.6234L30.851 16.7135L31.0711 16.8204L31.3054 16.9445L31.4183 17.0083L31.6389 17.1407L31.8482 17.2764L31.9381 17.3379L32.1804 17.5136L32.3741 17.6653L32.5497 17.8122L32.6617 17.9109L32.8394 18.0762L32.946 18.1807L33.0575 18.2946L33.1731 18.4181L33.2859 18.5444L33.3843 18.6594L33.5623 18.8802L33.7902 19.1907L33.8739 19.3138L34.0122 19.5299L34.102 19.6796L34.2546 19.9544L34.3637 20.1695L34.4828 20.4269L34.5771 20.6509L34.6636 20.8777L34.7357 21.086L34.7963 21.2789L34.845 21.4489L34.8767 21.5695C34.9001 21.6612 34.9217 21.7536 34.9417 21.8465L34.9741 22.0071L35.0032 22.1696L35.0288 22.3335C35.0429 22.4306 35.0551 22.5285 35.0654 22.6268L35.0792 22.7749C35.09 22.9027 35.0975 23.0316 35.1017 23.1613L35.1056 23.3099V34.3137C35.1056 34.4167 35.0224 34.5002 34.92 34.5002H32.6939C32.5988 34.5002 32.5203 34.4282 32.5097 34.3354L32.5084 34.3137L32.5086 29.0293L32.2767 29.2186L32.0871 29.3622L31.9383 29.4683L31.8089 29.5562L31.6432 29.663L31.4416 29.7846L31.1663 29.9369L31.0447 29.9993L30.825 30.1049L30.5317 30.2321L30.2821 30.3286L30.1499 30.3756L29.8322 30.4766L29.7159 30.5097L29.4451 30.5786L29.1803 30.6353L28.9409 30.6779L28.8076 30.6979L28.5552 30.7291L28.4355 30.7408L28.2471 30.7552L28.0179 30.7662L27.7779 30.7701C23.7309 30.7701 20.4503 27.4719 20.4503 23.4032C20.4503 19.4128 23.606 16.1634 27.5453 16.0399ZM23.0474 23.4032C23.0474 20.7766 25.1653 18.6473 27.7779 18.6473C27.9328 18.6473 28.086 18.6548 28.2371 18.6695L28.3488 18.6816L28.5758 18.7148L28.6911 18.736L28.8243 18.7641L29.0371 18.8178L29.2592 18.8853L29.4922 18.9693C29.5927 19.0087 29.6917 19.0515 29.7888 19.0974L29.8573 19.1304L30.0923 19.2546L30.2774 19.3648C30.3454 19.4075 30.4123 19.4518 30.4779 19.4978L30.5879 19.577L30.7006 19.6634C30.8596 19.7893 31.0105 19.9251 31.1522 20.0701L31.3034 20.232C32.0026 21.0172 32.4461 22.0373 32.5024 23.1601L32.5049 23.2206L32.508 23.4698C32.4754 25.8582 30.6915 27.8213 28.3889 28.1198L28.2434 28.1364L28.0517 28.1512L27.7779 28.1591C25.1653 28.1591 23.0474 26.0298 23.0474 23.4032ZM8.70682 21.0196C10.1029 21.0196 11.2347 22.1495 11.2347 23.5433C11.2347 24.937 10.1029 26.0668 8.70682 26.0668C7.31072 26.0668 6.17894 24.937 6.17894 23.5433C6.17894 22.1495 7.31072 21.0196 8.70682 21.0196ZM47.9232 16.9662L47.7978 16.8974L47.4734 16.7341L47.2168 16.6188L46.8906 16.489C46.7261 16.428 46.5589 16.3729 46.3897 16.3238L46.2668 16.2894C46.0192 16.2225 45.7666 16.1682 45.5094 16.1273L45.4352 16.1159L45.0875 16.0728L44.9019 16.0566C44.7207 16.0432 44.5377 16.0363 44.353 16.0363C40.3061 16.0363 37.0254 19.327 37.0254 23.3863C37.0254 27.4456 40.3061 30.7363 44.353 30.7363L44.5857 30.7327L44.9337 30.7136L45.3031 30.6751L45.593 30.6316L45.8864 30.5751L46.175 30.5074L46.4471 30.4319L46.7832 30.3225L47.0278 30.2313L47.3027 30.1166L47.5926 29.9809L47.8255 29.8603L48.066 29.7242L48.3596 29.5414L48.6308 29.3545C48.7765 29.2493 48.9184 29.1387 49.0557 29.0232L49.0838 28.9995L49.0848 30.7581C49.0955 30.8506 49.1739 30.9224 49.2691 30.9224H51.4952C51.5976 30.9224 51.6807 30.8391 51.6807 30.7363V23.2932L51.6663 22.9212L51.6445 22.6509L51.6075 22.3432L51.5659 22.083L51.5047 21.778L51.4537 21.564L51.3588 21.2252L51.3051 21.0572L51.2197 20.8148L51.0575 20.4155L50.937 20.1562L50.7636 19.8232L50.6191 19.5737L50.5376 19.4425L50.3982 19.231L50.2924 19.0805L50.0949 18.8194L49.9839 18.6825L49.7672 18.4334L49.6088 18.2647L49.4129 18.0699L49.2889 17.9538L49.1338 17.816L48.7816 17.5299L48.5481 17.3592L48.2611 17.1677L47.9232 16.9662ZM44.353 18.6414C41.7405 18.6414 39.6226 20.7657 39.6226 23.3863C39.6226 26.0069 41.7405 28.1313 44.353 28.1313L44.6405 28.1227L44.8039 28.1101L45.0738 28.0768L45.12 28.0692C45.2537 28.0473 45.3855 28.0198 45.5152 27.9871L45.7524 27.9209L45.9983 27.8364L46.095 27.8001L46.2256 27.745L46.4588 27.6364L46.6786 27.52L46.8545 27.4144L47.0146 27.3101L47.1992 27.1767C48.3342 26.3178 49.0713 24.958 49.0835 23.4247L49.0759 23.113C49.0378 22.4401 48.8598 21.8048 48.5709 21.2356L48.4403 20.9959L48.2936 20.7599L48.2322 20.6699L48.1157 20.5099L48.0095 20.3756L47.8828 20.2271L47.7898 20.1257L47.656 19.9895L47.4526 19.8017L47.2453 19.6313L47.0814 19.5097L46.9083 19.3925L46.6781 19.2531L46.5673 19.1923L46.335 19.0767L46.1513 18.9962L45.9357 18.9134L45.7555 18.8534L45.5788 18.8022L45.3808 18.7536L45.1804 18.7136L44.9771 18.6823L44.8586 18.6681C44.6925 18.6504 44.5239 18.6414 44.353 18.6414ZM73.6516 17.9943L73.5558 17.9067L73.3358 17.7171L73.1998 17.6071L72.9746 17.4362L72.7422 17.2736L72.4554 17.0905L72.1993 16.9425L72.0543 16.8644L71.8724 16.7725L71.6315 16.6604L71.4293 16.5745L71.2649 16.5098L70.9374 16.3943L70.6727 16.3136L70.5299 16.2747L70.2961 16.2175L69.9655 16.1505L69.7369 16.1134L69.6081 16.0958L69.4113 16.0732L69.1866 16.0542L68.9248 16.0406L68.744 16.0366L68.4393 16.0399C64.5 16.1631 61.3443 19.4051 61.3443 23.3863C61.3443 27.4456 64.6249 30.7363 68.6719 30.7363L68.9119 30.7325L69.1411 30.7215L69.3295 30.7071L69.5549 30.6835L69.7017 30.6643L69.8349 30.6442L70.0743 30.6019L70.2284 30.5701L70.3391 30.5452L70.4929 30.5076L70.7262 30.4435L70.9366 30.3786L71.1761 30.2959L71.4257 30.1997L71.6254 30.1148L71.9387 29.9673L72.0604 29.905L72.3356 29.7531L72.6141 29.5831L72.8323 29.4376L72.9812 29.3316L73.1708 29.1883L73.4026 28.9995L73.4037 30.7581C73.4144 30.8506 73.4928 30.9224 73.5879 30.9224H75.814C75.9165 30.9224 75.9995 30.8391 75.9995 30.7363V23.2932L75.9957 23.1449C75.9915 23.0155 75.984 22.887 75.9732 22.7594L75.9594 22.6118L75.9229 22.319C75.907 22.2096 75.8888 22.1011 75.8682 21.9933L75.8357 21.8332L75.7707 21.5568L75.739 21.4366L75.6566 21.1576L75.6007 20.9885L75.5124 20.7456L75.4711 20.6404L75.3769 20.4168L75.2578 20.1601L75.1486 19.9454L75.0677 19.7967L74.9062 19.5219L74.8494 19.4313L74.6842 19.1835L74.5462 18.992L74.3817 18.7793L74.2783 18.6534L74.1799 18.5387L73.9515 18.2894L73.84 18.1757L73.6516 17.9943ZM68.6719 18.6414C66.0593 18.6414 63.9414 20.7657 63.9414 23.3863C63.9414 26.0069 66.0593 28.1313 68.6719 28.1313L68.9457 28.1235L69.1374 28.1087L69.2829 28.0921C71.5855 27.7942 73.3694 25.8357 73.402 23.4527L73.4015 23.2982L73.3964 23.1438C73.3401 22.0236 72.8966 21.0058 72.1974 20.2224L72.1141 20.1316L72.0462 20.0608C71.9045 19.9162 71.7536 19.7807 71.5946 19.6551L71.4819 19.5689L71.372 19.4898C71.3063 19.444 71.2394 19.3997 71.1714 19.3572L70.9863 19.2472L70.7513 19.1233L70.6828 19.0904C70.5857 19.0445 70.4868 19.0019 70.3862 18.9626L70.2587 18.9149L70.0027 18.8318L69.8451 18.7884L69.585 18.7297L69.4698 18.7087L69.3536 18.6903L69.1311 18.6634C68.98 18.6489 68.8269 18.6414 68.6719 18.6414ZM61.0882 18.881V16.2918L60.9655 16.2928C56.9221 16.3576 53.6647 19.6171 53.6647 23.6285V30.8578C53.6647 30.8935 53.6933 30.9224 53.7286 30.9224H56.2204C56.2558 30.9224 56.2844 30.8935 56.2844 30.8578L56.285 23.55C56.3275 20.9642 58.4617 18.881 61.0882 18.881Z" fill="#575C6B"/>
</g>
<defs>
<clipPath id="clip0_2192_40874">
<rect width="76" height="46" fill="white"/>
</clipPath>
</defs>
</svg>
