<svg width="21" height="20" viewBox="0 0 21 20" fill="none" xmlns="http://www.w3.org/2000/svg">
<g clip-path="url(#clip0_2309_10142)">
<path d="M15.0013 18.3338C11.599 18.3293 8.3374 16.9758 5.93164 14.5701C3.52587 12.1643 2.17238 8.90268 2.16797 5.50042C2.16797 4.48376 2.57184 3.50873 3.29073 2.78984C4.00962 2.07096 4.98464 1.66709 6.0013 1.66709C6.21659 1.66545 6.43151 1.68499 6.64297 1.72542C6.84714 1.75542 7.04797 1.80625 7.24297 1.87542C7.37984 1.92345 7.50181 2.00637 7.59681 2.11598C7.69181 2.2256 7.75655 2.35811 7.78464 2.50042L8.9263 7.50042C8.95708 7.63614 8.95337 7.7774 8.91552 7.91132C8.87768 8.04524 8.80689 8.16755 8.70964 8.26709C8.6013 8.38375 8.59297 8.39209 7.56797 8.92542C8.3888 10.7261 9.82897 12.1722 11.6263 13.0004C12.168 11.9671 12.1763 11.9588 12.293 11.8504C12.3925 11.7532 12.5148 11.6824 12.6487 11.6445C12.7827 11.6067 12.9239 11.603 13.0596 11.6338L18.0596 12.7754C18.1974 12.8075 18.3247 12.874 18.4296 12.9687C18.5346 13.0635 18.6137 13.1833 18.6596 13.3171C18.8012 13.7156 18.8717 14.1359 18.868 14.5588C18.8526 15.5711 18.4374 16.5362 17.7129 17.2435C16.9885 17.9507 16.0137 18.3427 15.0013 18.3338Z" fill="#575C6B"/>
</g>
<defs>
<clipPath id="clip0_2309_10142">
<rect width="20" height="20" fill="white" transform="translate(0.5)"/>
</clipPath>
</defs>
</svg>
