<svg width="14" height="14" viewBox="0 0 14 14" fill="none" xmlns="http://www.w3.org/2000/svg">
<g clip-path="url(#clip0_2229_33558)">
<path d="M5.83331 11.0822C5.72236 11.0823 5.61367 11.0509 5.51998 10.9915C5.42629 10.9321 5.35148 10.8472 5.30433 10.7467C5.25718 10.6463 5.23964 10.5345 5.25378 10.4245C5.26792 10.3145 5.31314 10.2107 5.38414 10.1255L7.99747 6.99883L5.47747 3.86633C5.42902 3.80666 5.39283 3.738 5.371 3.6643C5.34916 3.59061 5.34211 3.51332 5.35024 3.43689C5.35837 3.36045 5.38153 3.28638 5.41838 3.21893C5.45523 3.15147 5.50505 3.09196 5.56497 3.04383C5.62533 2.99072 5.69601 2.95067 5.77258 2.92617C5.84915 2.90168 5.92995 2.89328 6.00992 2.90149C6.0899 2.90971 6.1673 2.93437 6.23729 2.97392C6.30728 3.01347 6.36834 3.06706 6.41664 3.13133L9.23414 6.63133C9.31994 6.7357 9.36684 6.86663 9.36684 7.00174C9.36684 7.13686 9.31994 7.26778 9.23414 7.37216L6.31747 10.8722C6.25898 10.9428 6.18465 10.9986 6.10052 11.0351C6.01639 11.0716 5.92484 11.0877 5.83331 11.0822Z" fill="#A0A4B1"/>
</g>
<defs>
<clipPath id="clip0_2229_33558">
<rect width="14" height="14" fill="white"/>
</clipPath>
</defs>
</svg>
