<svg width="21" height="20" viewBox="0 0 21 20" fill="none" xmlns="http://www.w3.org/2000/svg">
<g clip-path="url(#clip0_2309_10136)">
<path d="M16.3346 3.33301H4.66797C4.00493 3.33301 3.36904 3.5964 2.9002 4.06524C2.43136 4.53408 2.16797 5.16997 2.16797 5.83301V14.1663C2.16797 14.8294 2.43136 15.4653 2.9002 15.9341C3.36904 16.4029 4.00493 16.6663 4.66797 16.6663H16.3346C16.9977 16.6663 17.6336 16.4029 18.1024 15.9341C18.5712 15.4653 18.8346 14.8294 18.8346 14.1663V5.83301C18.8346 5.16997 18.5712 4.53408 18.1024 4.06524C17.6336 3.5964 16.9977 3.33301 16.3346 3.33301ZM16.3346 4.99967L10.918 8.72467C10.7913 8.79781 10.6476 8.83632 10.5013 8.83632C10.355 8.83632 10.2113 8.79781 10.0846 8.72467L4.66797 4.99967H16.3346Z" fill="#575C6B"/>
</g>
<defs>
<clipPath id="clip0_2309_10136">
<rect width="20" height="20" fill="white" transform="translate(0.5)"/>
</clipPath>
</defs>
</svg>
