<svg width="26" height="26" viewBox="0 0 26 26" fill="none" xmlns="http://www.w3.org/2000/svg">
<g clip-path="url(#clip0_2192_40880)">
<path fill-rule="evenodd" clip-rule="evenodd" d="M12.484 0.154902C12.6275 0.106447 12.7686 0.0367201 12.925 0.0532656C13.0437 0.0686292 13.186 0.0213564 13.2918 0.08872C13.5798 0.145447 13.8326 0.312084 14.0349 0.521265C14.8944 1.38754 15.755 2.25263 16.6157 3.1189C16.7015 3.21108 16.8026 3.29145 16.8767 3.39545C15.9114 4.38581 14.9273 5.35963 13.9549 6.3429C13.6363 6.65963 13.3247 6.98463 13.0014 7.29663C12.5734 7.70081 12.1689 8.12981 11.7504 8.54345C9.85739 10.4533 7.95736 12.3548 6.06791 14.2694C5.18491 15.1687 4.29016 16.0586 3.40363 16.9544C2.44539 17.9153 1.49302 18.8808 0.532426 19.8381C0.53125 19.1822 0.53125 18.5263 0.53125 17.8704V17.7723V17.6742V17.5761V17.478C0.53125 16.1662 0.532426 14.8544 0.532426 13.5437C0.534777 13.1478 0.526547 12.7507 0.53948 12.356C0.535953 12.2756 0.595917 12.213 0.59239 12.1326C0.64765 12.0381 0.698208 11.94 0.752293 11.8454C0.888681 11.6634 1.05917 11.5098 1.21672 11.3467C4.79926 7.73863 8.38298 4.13054 11.9667 0.522447C12.1113 0.365265 12.2795 0.224629 12.484 0.154902Z" fill="#575C6B"/>
<path fill-rule="evenodd" clip-rule="evenodd" d="M13.9524 6.34296C14.9247 5.35851 15.9088 4.38587 16.8741 3.39551C19.502 6.05342 22.1404 8.69951 24.7741 11.3515C25.0116 11.5973 25.3008 11.8231 25.3937 12.1693C25.4842 12.3951 25.456 12.6409 25.4607 12.8772C25.4607 16.7595 25.4607 20.6418 25.4619 24.5252C25.5207 25.2911 24.7929 26.0072 24.0345 25.9458C22.6636 25.9458 21.2938 25.9458 19.9229 25.9458C19.917 24.0903 19.9241 22.2349 19.9194 20.3794C19.9229 18.3396 19.9205 16.301 19.9205 14.2611C18.2098 12.544 16.5026 10.8232 14.793 9.10605C14.1969 8.50096 13.5914 7.90533 13 7.29551C13.3233 6.98469 13.6337 6.65969 13.9524 6.34296Z" fill="#575C6B"/>
<path fill-rule="evenodd" clip-rule="evenodd" d="M3.40373 16.9532C4.29143 16.0573 5.18501 15.1674 6.068 14.2681C6.07623 16.3043 6.06683 18.3418 6.07271 20.3792C6.06918 22.2347 6.07506 24.089 6.07035 25.9444C4.6277 25.9432 3.18504 25.9444 1.74355 25.9432C1.14156 25.8676 0.611296 25.3571 0.533696 24.7472C0.528992 23.1104 0.53252 21.4724 0.53252 19.8356C1.49312 18.8807 2.44666 17.914 3.40373 16.9532Z" fill="#575C6B"/>
<path fill-rule="evenodd" clip-rule="evenodd" d="M6.07266 20.3794C10.6887 20.3806 15.3047 20.3794 19.9208 20.3794C19.9255 22.2348 19.9184 24.0903 19.9243 25.9458C15.3059 25.9446 10.6875 25.9458 6.07031 25.9458C6.07502 24.0903 6.06914 22.2348 6.07266 20.3794Z" fill="#575C6B"/>
</g>
<defs>
<clipPath id="clip0_2192_40880">
<rect width="25.1613" height="26" fill="white" transform="translate(0.421875)"/>
</clipPath>
</defs>
</svg>
