<svg width="20" height="21" viewBox="0 0 20 21" fill="none" xmlns="http://www.w3.org/2000/svg">
<g id="Icon/Light" clip-path="url(#clip0_2669_18952)">
<path id="Vector" d="M9.35247 18.8332C9.25013 18.833 9.14899 18.8104 9.05564 18.7668C8.96229 18.7233 8.87883 18.6597 8.81072 18.5804C8.74261 18.501 8.69137 18.4076 8.66035 18.3063C8.62934 18.2049 8.61924 18.0979 8.63073 17.9923L9.19208 12.6211H4.8981C4.76566 12.6213 4.63566 12.584 4.52207 12.5132C4.40849 12.4424 4.3156 12.3408 4.25339 12.2193C4.19119 12.0978 4.162 11.961 4.16898 11.8236C4.17596 11.6862 4.21884 11.5533 4.293 11.4393L10.045 2.49991C10.136 2.36001 10.2694 2.25571 10.4239 2.20355C10.5784 2.1514 10.7453 2.15438 10.898 2.21203C11.0448 2.26867 11.1702 2.37293 11.2555 2.50937C11.3409 2.64581 11.3817 2.80719 11.3719 2.9696L10.8105 8.37867H15.1045C15.2369 8.37846 15.3669 8.41575 15.4805 8.48653C15.5941 8.55731 15.687 8.65891 15.7492 8.78041C15.8114 8.90191 15.8406 9.03872 15.8336 9.17616C15.8266 9.3136 15.7838 9.44646 15.7096 9.56048L9.95756 18.4998C9.89069 18.6026 9.80053 18.6868 9.69502 18.7449C9.58952 18.8031 9.47188 18.8334 9.35247 18.8332Z" fill="#5B8CA1"/>
</g>
<defs>
<clipPath id="clip0_2669_18952">
<rect width="20" height="20" fill="white" transform="translate(0 0.5)"/>
</clipPath>
</defs>
</svg>
