<svg width="32" height="18" viewBox="0 0 32 18" fill="none" xmlns="http://www.w3.org/2000/svg">
<path fill-rule="evenodd" clip-rule="evenodd" d="M9 2.5H23C26.5898 2.5 29.5 5.41016 29.5 9C29.5 12.5898 26.5898 15.5 23 15.5H9C5.41016 15.5 2.5 12.5898 2.5 9C2.5 5.41016 5.41016 2.5 9 2.5ZM0 9C0 4.02942 4.0293 0 9 0H23C27.9707 0 32 4.02942 32 9C32 13.9706 27.9707 18 23 18H9C4.0293 18 0 13.9706 0 9ZM23 13C25.209 13 27 11.2091 27 9C27 6.79089 25.209 5 23 5C20.791 5 19 6.79089 19 9C19 11.2091 20.791 13 23 13Z" fill="white"/>
</svg>
