<svg width="20" height="20" viewBox="0 0 20 20" fill="none" xmlns="http://www.w3.org/2000/svg">
<g clip-path="url(#clip0_1972_23657)">
<path d="M8.33371 15.8317C8.17523 15.8319 8.01995 15.787 7.8861 15.7021C7.75226 15.6172 7.64539 15.496 7.57803 15.3525C7.51067 15.209 7.48562 15.0493 7.50582 14.8921C7.52601 14.7349 7.59061 14.5868 7.69205 14.465L11.4254 9.99832L7.82538 5.52332C7.75616 5.43808 7.70446 5.34 7.67327 5.23472C7.64208 5.12944 7.632 5.01903 7.64362 4.90984C7.65523 4.80065 7.68831 4.69483 7.74096 4.59847C7.7936 4.5021 7.86477 4.41709 7.95038 4.34832C8.0366 4.27246 8.13757 4.21524 8.24696 4.18025C8.35634 4.14525 8.47178 4.13325 8.58602 4.14499C8.70027 4.15673 8.81085 4.19195 8.91084 4.24845C9.01082 4.30495 9.09805 4.38151 9.16705 4.47332L13.192 9.47332C13.3146 9.62243 13.3816 9.80947 13.3816 10.0025C13.3816 10.1955 13.3146 10.3825 13.192 10.5317L9.02538 15.5317C8.94182 15.6326 8.83564 15.7123 8.71545 15.7644C8.59527 15.8166 8.46448 15.8396 8.33371 15.8317Z" fill="#E3E4E8"/>
</g>
<defs>
<clipPath id="clip0_1972_23657">
<rect width="20" height="20" fill="white"/>
</clipPath>
</defs>
</svg>
