<svg width="20" height="21" viewBox="0 0 20 21" fill="none" xmlns="http://www.w3.org/2000/svg">
<g id="Icon/Light" clip-path="url(#clip0_2659_7050)">
<path id="Vector" d="M9.351 18.8337C9.24867 18.8335 9.14753 18.8109 9.05418 18.7673C8.96082 18.7237 8.87737 18.6602 8.80925 18.5808C8.74114 18.5015 8.6899 18.4081 8.65889 18.3068C8.62787 18.2054 8.61778 18.0984 8.62926 17.9928L9.19062 12.6216H4.89663C4.76419 12.6218 4.6342 12.5845 4.52061 12.5137C4.40702 12.4429 4.31414 12.3413 4.25193 12.2198C4.18972 12.0983 4.16054 11.9615 4.16752 11.8241C4.1745 11.6866 4.21737 11.5538 4.29154 11.4398L10.0436 2.5004C10.1346 2.3605 10.2679 2.2562 10.4224 2.20404C10.577 2.15189 10.7438 2.15487 10.8965 2.21252C11.0434 2.26916 11.1687 2.37342 11.2541 2.50986C11.3394 2.6463 11.3802 2.80768 11.3704 2.97009L10.8091 8.37916H15.103C15.2355 8.37895 15.3655 8.41624 15.4791 8.48702C15.5927 8.5578 15.6855 8.65939 15.7477 8.78089C15.81 8.9024 15.8391 9.03921 15.8322 9.17665C15.8252 9.31408 15.7823 9.44695 15.7081 9.56097L9.9561 18.5003C9.88922 18.6031 9.79907 18.6873 9.69356 18.7454C9.58805 18.8035 9.47042 18.8338 9.351 18.8337Z" fill="#E56262"/>
</g>
<defs>
<clipPath id="clip0_2659_7050">
<rect width="20" height="20" fill="white" transform="translate(0 0.5)"/>
</clipPath>
</defs>
</svg>
