<svg width="21" height="20" viewBox="0 0 21 20" fill="none" xmlns="http://www.w3.org/2000/svg">
<g clip-path="url(#clip0_2309_10148)">
<path d="M17.5 0H3.5H0.5V3V17V20H3.5H17.5H20.5V17V3V0H17.5Z" fill="#37AEE2"/>
<path d="M8.58605 14.587C8.19605 14.587 8.2315 14.4495 8.12514 14.1057L6.99058 10.4957L15.677 5.54477" fill="#C8DAEA"/>
<path d="M8.58605 14.587C8.83424 14.587 8.97606 14.4495 9.15333 14.312L10.7488 12.8336L8.76333 11.6646" fill="#A9C9DD"/>
<path d="M8.76333 11.6646L13.5497 15.0684C14.0461 15.3778 14.4716 15.2059 14.6134 14.587L16.5634 5.71668C16.7407 4.96029 16.2443 4.61648 15.7125 4.85715L4.33145 9.12042C3.5869 9.39547 3.5869 9.84242 4.18963 10.0143L7.1324 10.9082L13.8688 6.74811C14.1879 6.57621 14.4716 6.64497 14.2588 6.88564" fill="#F6FBFE"/>
</g>
<defs>
<clipPath id="clip0_2309_10148">
<rect x="0.5" width="20" height="20" rx="6" fill="white"/>
</clipPath>
</defs>
</svg>
