<svg width="21" height="20" viewBox="0 0 21 20" fill="none" xmlns="http://www.w3.org/2000/svg">
<g clip-path="url(#clip0_2309_10155)">
<path d="M16.0109 0H4.98909H0.5V4.48909V15.5109V20H4.98909H16.0109H20.5V15.5109V4.48909V0H16.0109Z" fill="#7D3DAF"/>
<path d="M17.0113 6.88774C16.7727 6.15927 16.3594 5.50029 15.8074 4.96831C15.2555 4.43633 14.5818 4.04753 13.8451 3.83584C11.6545 3.4154 9.40406 3.4154 7.21356 3.83584C6.4642 4.03448 5.77566 4.41552 5.20937 4.94497C4.64309 5.47442 4.21667 6.13582 3.96817 6.87015C3.56269 8.7097 3.56269 10.6155 3.96817 12.455C4.1982 13.1545 4.5883 13.7906 5.10743 14.3128C5.62656 14.835 6.26039 15.2288 6.9585 15.463V16.9493C6.95876 17.0685 6.99461 17.1848 7.06144 17.2835C7.12828 17.3821 7.22306 17.4586 7.33363 17.503C7.4442 17.5474 7.56551 17.5578 7.68202 17.5328C7.79852 17.5078 7.90491 17.4486 7.98752 17.3627L9.49149 15.806H10.4677C11.5805 15.8051 12.6907 15.699 13.7835 15.4893C14.5202 15.2776 15.194 14.8888 15.7459 14.3569C16.2978 13.8249 16.7111 13.1659 16.9497 12.4374C17.3704 10.6136 17.3914 8.72042 17.0113 6.88774ZM15.8239 12.1648C15.64 12.6693 15.3431 13.1249 14.9559 13.4969C14.5687 13.8689 14.1014 14.1473 13.59 14.3108C12.4308 14.5308 11.2513 14.6252 10.072 14.5922C10.0622 14.5881 10.0518 14.586 10.0412 14.586C10.0306 14.586 10.0201 14.5881 10.0104 14.5922L8.90221 15.7884L7.73247 16.9845C7.71283 17.0031 7.68825 17.0157 7.66165 17.0207C7.63506 17.0257 7.60759 17.0229 7.58253 17.0127C7.55747 17.0025 7.53588 16.9853 7.52036 16.9631C7.50483 16.941 7.49603 16.9148 7.495 16.8878V14.4339C7.49346 14.4149 7.48576 14.3969 7.47307 14.3826C7.46038 14.3683 7.44337 14.3585 7.42464 14.3548C6.9132 14.1913 6.44597 13.9129 6.05875 13.5409C5.67153 13.1689 5.37459 12.7132 5.19069 12.2088C4.82548 10.5458 4.82548 8.82337 5.19069 7.16039C5.37459 6.65592 5.67153 6.20025 6.05875 5.82827C6.44597 5.4563 6.9132 5.17789 7.42464 5.01439C9.45841 4.62559 11.5474 4.62559 13.5812 5.01439C14.0926 5.17789 14.5599 5.4563 14.9471 5.82827C15.3343 6.20025 15.6312 6.65592 15.8152 7.16039C16.1835 8.8227 16.1865 10.5452 15.8239 12.2088V12.1648Z" fill="white"/>
<path d="M13.4845 11.7778C13.3015 11.6244 13.1107 11.4805 12.9128 11.3469C12.7105 11.2061 12.517 11.0654 12.3059 10.9335C12.2132 10.8642 12.1006 10.8268 11.9849 10.8268C11.8692 10.8268 11.7566 10.8642 11.6639 10.9335C11.4704 11.0918 11.3736 11.3996 11.101 11.4348C10.941 11.439 10.7828 11.3995 10.6436 11.3205C10.2256 11.1361 9.85219 10.864 9.54867 10.5225C9.24516 10.1811 9.01868 9.77831 8.88462 9.34157C8.8575 9.2869 8.84339 9.2267 8.84339 9.16567C8.84339 9.10464 8.8575 9.04444 8.88462 8.98977C8.9227 8.9323 8.97029 8.88173 9.02535 8.84025L9.21004 8.69953C9.33097 8.61569 9.4149 8.48845 9.44439 8.34429C9.47388 8.20013 9.44664 8.05015 9.36836 7.92556C9.11775 7.49724 8.82297 7.09634 8.48885 6.72943C8.42715 6.64528 8.33755 6.5858 8.23604 6.56164C8.13454 6.53747 8.02775 6.55018 7.93476 6.5975C7.67209 6.72022 7.43831 6.89705 7.24874 7.11641C7.12801 7.22448 7.03948 7.3638 6.99292 7.519C6.94636 7.6742 6.94358 7.83924 6.98489 7.99592C7.12561 8.33893 7.26633 8.68194 7.42464 9.01615C7.75979 9.72149 8.18877 10.3783 8.69993 10.9687C9.62529 11.9588 10.7657 12.7231 12.0333 13.2026C12.1564 13.2554 12.2883 13.2818 12.4203 13.3257C12.5409 13.2988 12.6587 13.2605 12.7721 13.2114C13.133 13.0149 13.4202 12.7062 13.59 12.3319C13.6385 12.2414 13.6544 12.137 13.6352 12.0362C13.616 11.9353 13.5628 11.8441 13.4845 11.7778ZM10.5117 6.19293H10.415C10.386 6.19268 10.3574 6.19865 10.3309 6.21042C10.3045 6.22219 10.2809 6.2395 10.2617 6.26118C10.2426 6.28285 10.2283 6.30839 10.2198 6.33607C10.2113 6.36374 10.2089 6.39291 10.2127 6.4216C10.2127 6.57112 10.3886 6.57112 10.5117 6.58871C10.6348 6.6063 10.8899 6.58871 11.0658 6.65027C11.6687 6.76257 12.2215 7.06019 12.6472 7.50163C13.0728 7.94307 13.3502 8.50634 13.4405 9.1129C13.4405 9.34157 13.4845 9.57904 13.502 9.8165C13.5196 10.054 13.5724 10.0452 13.7043 10.0452C13.7323 10.0444 13.7597 10.0375 13.7847 10.0251C13.8097 10.0127 13.8318 9.99507 13.8493 9.97334C13.8669 9.95162 13.8795 9.92635 13.8863 9.89928C13.8932 9.8722 13.8941 9.84397 13.889 9.8165C13.889 9.53506 13.889 9.25362 13.8011 8.937C13.6594 8.16754 13.2529 7.47192 12.6521 6.97072C12.0513 6.46953 11.2941 6.19437 10.5117 6.19293Z" fill="white"/>
<path d="M12.6313 9.41193C12.6229 9.46437 12.6229 9.5178 12.6313 9.57024C12.6433 9.60752 12.6667 9.64004 12.6984 9.66311C12.73 9.68619 12.7681 9.69862 12.8072 9.69862C12.8464 9.69862 12.8845 9.68619 12.9161 9.66311C12.9477 9.64004 12.9712 9.60752 12.9831 9.57024C12.986 9.53218 12.986 9.49396 12.9831 9.45591V9.06892C12.9414 8.70974 12.8111 8.36655 12.6038 8.07025C12.3966 7.77395 12.1189 7.53382 11.7958 7.37147C11.46 7.1999 11.0908 7.10384 10.714 7.09003C10.6895 7.08756 10.6647 7.09028 10.6413 7.09801C10.6179 7.10574 10.5963 7.1183 10.5781 7.13489C10.5598 7.15148 10.5453 7.17171 10.5354 7.19429C10.5254 7.21686 10.5204 7.24127 10.5205 7.26593C10.5168 7.29042 10.5183 7.31541 10.5249 7.33929C10.5315 7.36316 10.543 7.38538 10.5588 7.40447C10.5746 7.42357 10.5942 7.43912 10.6164 7.4501C10.6386 7.46109 10.6629 7.46726 10.6876 7.46821L11.0042 7.52099C11.2207 7.55476 11.4311 7.61994 11.6287 7.71448C11.9553 7.87608 12.2275 8.12987 12.4115 8.44447C12.565 8.74332 12.6406 9.07608 12.6313 9.41193Z" fill="white"/>
<path d="M12.1388 9.28C12.1469 9.22754 12.1469 9.17415 12.1388 9.12169C12.14 8.97196 12.1115 8.82348 12.055 8.68481C11.9985 8.54614 11.9151 8.42003 11.8096 8.31374C11.7042 8.20745 11.5787 8.1231 11.4405 8.06553C11.3022 8.00796 11.154 7.97833 11.0042 7.97833C10.9559 7.97509 10.9081 7.98929 10.8693 8.01834C10.8306 8.04738 10.8036 8.08936 10.7932 8.13664C10.7881 8.16093 10.7879 8.186 10.7928 8.21035C10.7976 8.2347 10.8072 8.25782 10.8212 8.27835C10.8352 8.29887 10.8531 8.31637 10.874 8.3298C10.8949 8.34323 10.9182 8.35232 10.9427 8.35652C11.0394 8.35652 11.145 8.35652 11.2505 8.4005C11.3293 8.42277 11.4037 8.45848 11.4704 8.50604C11.6095 8.61277 11.7062 8.76553 11.743 8.937C11.7487 9.02486 11.7487 9.11299 11.743 9.20085C11.743 9.22817 11.7485 9.25521 11.7592 9.28035C11.7699 9.30548 11.7856 9.32819 11.8054 9.34709C11.8251 9.36599 11.8484 9.3807 11.874 9.39034C11.8996 9.39997 11.9268 9.40432 11.9541 9.40314C11.9946 9.40878 12.0358 9.39936 12.0699 9.37667C12.1039 9.35397 12.1284 9.31958 12.1388 9.28Z" fill="white"/>
</g>
<defs>
<clipPath id="clip0_2309_10155">
<rect x="0.5" width="20" height="20" rx="6" fill="white"/>
</clipPath>
</defs>
</svg>
