<svg width="21" height="20" viewBox="0 0 21 20" fill="none" xmlns="http://www.w3.org/2000/svg">
<g clip-path="url(#clip0_2309_10162)">
<path d="M17.5 0H3.5H0.5V3V17V20H3.5H17.5H20.5V17V16.9231V3V0H17.5Z" fill="#25D366"/>
<path fill-rule="evenodd" clip-rule="evenodd" d="M10.9359 4.88514C9.6964 4.84644 8.4851 5.2516 7.52922 6.0246C6.57335 6.7976 5.93859 7.88532 5.74404 9.08367C5.5495 10.282 5.80853 11.5087 6.47255 12.5334L6.59943 12.7293L6.17646 14.6507L8.11 14.1186L8.31764 14.2305C9.404 14.8156 10.6713 14.9928 11.8816 14.7287C13.092 14.4647 14.1623 13.7776 14.8917 12.7963C15.6212 11.815 15.9596 10.6071 15.8435 9.399C15.7275 8.19095 15.1649 7.06585 14.2613 6.23479C13.3577 5.40373 12.1753 4.92384 10.9359 4.88514ZM6.7918 5.15158C7.96495 4.20287 9.45158 3.70562 10.9728 3.75311C12.494 3.80061 13.9452 4.38959 15.0541 5.40955C16.1631 6.4295 16.8535 7.81034 16.996 9.29299C17.1384 10.7756 16.7231 12.2582 15.8278 13.4625C14.9326 14.6668 13.619 15.5101 12.1335 15.8342C10.7268 16.1411 9.25757 15.9624 7.97348 15.3327L4.64034 16.25L5.36946 12.9377C4.64783 11.7226 4.37474 10.2987 4.60084 8.90599C4.83961 7.43524 5.61865 6.10028 6.7918 5.15158Z" fill="white"/>
<path d="M13.0111 10.6251C12.8878 10.5447 12.7645 10.5045 12.6413 10.6653L12.1481 11.3087C12.0248 11.3891 11.9426 11.4293 11.7782 11.3489C11.1618 11.0272 10.2988 10.6653 9.55907 9.45898C9.51797 9.29813 9.60017 9.21771 9.68236 9.13729L10.0522 8.57434C10.1344 8.49392 10.0933 8.4135 10.0522 8.33308L9.55907 7.16697C9.43578 6.84528 9.3125 6.88549 9.18921 6.88549H8.86044C8.77825 6.88549 8.61387 6.9257 8.44948 7.08655C7.54538 7.97118 7.91524 9.21771 8.57277 10.0219C8.69606 10.1828 9.51797 11.6304 11.2851 12.3944C12.6002 12.9573 12.8878 12.8769 13.2577 12.7965C13.7097 12.7563 14.1618 12.3944 14.3673 12.0325C14.4084 11.9118 14.6139 11.3891 14.4495 11.3087" fill="white"/>
</g>
<defs>
<clipPath id="clip0_2309_10162">
<rect x="0.5" width="20" height="20" rx="6" fill="white"/>
</clipPath>
</defs>
</svg>
