<svg width="24" height="24" viewBox="0 0 24 24" fill="none" xmlns="http://www.w3.org/2000/svg">
<g clip-path="url(#clip0_2193_16835)">
<path fill-rule="evenodd" clip-rule="evenodd" d="M12 2C10.6868 2 9.38642 2.25866 8.17317 2.7612C6.95991 3.26375 5.85752 4.00035 4.92893 4.92893C4.00035 5.85752 3.26375 6.95991 2.7612 8.17317C2.25866 9.38642 2 10.6868 2 12V16C2 16.7956 2.31607 17.5587 2.87868 18.1213C3.44129 18.6839 4.20435 19 5 19C5.79565 19 6.55871 18.6839 7.12132 18.1213C7.68393 17.5587 8 16.7956 8 16V14C8 13.2044 7.68393 12.4413 7.12132 11.8787C6.55871 11.3161 5.79565 11 5 11H4.06275C4.15182 10.293 4.33513 9.59962 4.60896 8.93853C5.011 7.96793 5.60028 7.08601 6.34315 6.34315C7.08601 5.60028 7.96793 5.011 8.93853 4.60896C9.90914 4.20693 10.9494 4 12 4C13.0506 4 14.0909 4.20693 15.0615 4.60896C16.0321 5.011 16.914 5.60028 17.6569 6.34315C18.3997 7.08602 18.989 7.96793 19.391 8.93853C19.6649 9.59962 19.8482 10.293 19.9373 11H19C18.2043 11 17.4413 11.3161 16.8787 11.8787C16.3161 12.4413 16 13.2043 16 14V16C16 16.7957 16.3161 17.5587 16.8787 18.1213C17.4413 18.6839 18.2043 19 19 19C19.3239 19 19.6425 18.9476 19.9443 18.8475C19.8829 19.2601 19.7782 19.5298 19.6679 19.6953C19.5426 19.8831 19.3751 20 19 20H14C13.4477 20 13 20.4477 13 21C13 21.5523 13.4477 22 14 22H19C19.9579 22 20.7904 21.6169 21.3319 20.8047C21.8257 20.0641 22 19.0796 22 18V16V14V12C22 10.6868 21.7413 9.38642 21.2388 8.17317C20.7362 6.95991 19.9997 5.85752 19.0711 4.92893C18.1425 4.00035 17.0401 3.26375 15.8268 2.7612C14.6136 2.25866 13.3132 2 12 2Z" fill="white"/>
</g>
<defs>
<clipPath id="clip0_2193_16835">
<rect width="24" height="24" fill="white"/>
</clipPath>
</defs>
</svg>
