<svg width="36" height="36" viewBox="0 0 36 36" fill="none" xmlns="http://www.w3.org/2000/svg">
<rect width="36" height="36" rx="7" fill="#5D75EF"/>
<path d="M11.3774 22.4041H24.6174C25.1907 22.4041 25.6196 22.2651 25.9041 21.987C26.1885 21.709 26.3307 21.2763 26.3307 20.689V13.0414C26.3307 12.4586 26.1885 12.0281 25.9041 11.7501C25.6196 11.472 25.1907 11.333 24.6174 11.333H11.3774C10.8085 11.333 10.3807 11.472 10.0941 11.7501C9.8074 12.0281 9.66406 12.4586 9.66406 13.0414V20.689C9.66406 21.2763 9.8074 21.709 10.0941 21.987C10.3807 22.2651 10.8085 22.4041 11.3774 22.4041ZM14.6441 24.6663H21.3507C21.4974 24.6663 21.624 24.6141 21.7307 24.5096C21.8374 24.405 21.8907 24.2771 21.8907 24.1258C21.8907 23.979 21.8374 23.8522 21.7307 23.7455C21.624 23.6387 21.4974 23.5853 21.3507 23.5853H14.6441C14.4974 23.5853 14.3707 23.6387 14.2641 23.7455C14.1574 23.8522 14.1041 23.979 14.1041 24.1258C14.1041 24.2771 14.1574 24.405 14.2641 24.5096C14.3707 24.6141 14.4974 24.6663 14.6441 24.6663Z" fill="white"/>
</svg>
