<svg width="24" height="24" viewBox="0 0 24 24" fill="none" xmlns="http://www.w3.org/2000/svg">
<g clip-path="url(#clip0_1972_14228)">
<path d="M6.72476 19.2226V17.556C6.72476 17.249 6.97355 17.0004 7.28035 17.0004H17.2802C17.5871 17.0004 17.8358 17.249 17.8358 17.556V19.2226H21.4468C21.6003 19.2226 21.7245 19.3469 21.7245 19.5003V20.0559C21.7245 20.2093 21.6003 20.3337 21.4468 20.3337H3.11367C2.96022 20.3337 2.83594 20.2093 2.83594 20.0559V19.5003C2.83594 19.3469 2.96022 19.2226 3.11367 19.2226H6.72476ZM7.83594 13.1114C7.83594 10.6567 9.82544 8.66706 12.2802 8.66706C14.735 8.66706 16.7245 10.6566 16.7245 13.1114V17.0003H7.83594V13.1114ZM15.0579 12.8336C15.0579 11.453 13.9387 10.3337 12.5579 10.3337H12.2802C12.1267 10.3337 12.0024 10.458 12.0024 10.6114V11.167C12.0024 11.3204 12.1267 11.4447 12.2802 11.4447H12.5579C13.325 11.4447 13.9468 12.0666 13.9468 12.8336V13.1114C13.9468 13.2648 14.0712 13.3892 14.2246 13.3892H14.7801C14.9336 13.3892 15.0579 13.2648 15.0579 13.1114V12.8336ZM5.61364 12.5559C5.92046 12.5559 6.16923 12.8046 6.16923 13.1114C6.16923 13.4183 5.92044 13.6669 5.61364 13.6669H3.39141C3.0846 13.6669 2.83594 13.4183 2.83594 13.1114C2.83594 12.8045 3.08461 12.5559 3.39141 12.5559H5.61364ZM21.1691 12.5559C21.4759 12.5559 21.7246 12.8046 21.7246 13.1114C21.7246 13.4183 21.4759 13.6669 21.1691 13.6669H18.9469C18.6401 13.6669 18.3913 13.4183 18.3913 13.1114C18.3913 12.8045 18.6401 12.5559 18.9469 12.5559H21.1691ZM7.17345 8.79016L5.60213 7.21883C5.07826 6.69509 5.86394 5.90933 6.38777 6.43319L7.95909 8.00451C8.48284 8.52826 7.69717 9.3139 7.17345 8.79016ZM16.6013 8.00451L18.1726 6.43319C18.6965 5.90933 19.4821 6.69511 18.9583 7.21883L17.387 8.79016C16.8632 9.3139 16.0776 8.52823 16.6013 8.00451ZM11.7246 6.44471V4.22259C11.7246 3.48179 12.8358 3.48179 12.8358 4.22259V6.44471C12.8358 7.1855 11.7246 7.1855 11.7246 6.44471Z" fill="white"/>
</g>
<defs>
<clipPath id="clip0_1972_14228">
<rect width="20" height="20" fill="white" transform="translate(2 2)"/>
</clipPath>
</defs>
</svg>
