<svg width="20" height="20" viewBox="0 0 20 20" fill="none" xmlns="http://www.w3.org/2000/svg">
<g clip-path="url(#clip0_1104_12153)">
<path d="M10.9395 2.65738C9.30794 2.44686 7.65241 2.77861 6.22795 3.60154C5.3953 4.08257 4.6686 4.71583 4.08213 5.46229V4.16652C4.08213 3.75231 3.74635 3.41652 3.33213 3.41652C2.91792 3.41652 2.58213 3.75231 2.58213 4.16652V7.49986C2.58213 7.91407 2.91792 8.24986 3.33213 8.24986H3.72893C3.742 8.2502 3.75504 8.2502 3.76805 8.24986H6.66547C7.07968 8.24986 7.41547 7.91407 7.41547 7.49986C7.41547 7.08564 7.07968 6.74986 6.66547 6.74986H4.99922C5.50645 5.99482 6.18178 5.36053 6.9783 4.90037C8.11787 4.24203 9.44229 3.97663 10.7475 4.14505C12.0528 4.31347 13.2665 4.90636 14.2016 5.83241C15.1367 6.75846 15.7414 7.96628 15.9226 9.26982C15.9796 9.68009 16.3584 9.96646 16.7687 9.90945C17.179 9.85243 17.4653 9.47362 17.4083 9.06335C17.1819 7.43392 16.426 5.92415 15.2571 4.76659C14.0881 3.60903 12.5711 2.8679 10.9395 2.65738Z" fill="#EEEFF1"/>
<path d="M4.07498 10.7299C4.01797 10.3197 3.63916 10.0333 3.22889 10.0903C2.81862 10.1473 2.53225 10.5261 2.58926 10.9364C2.81571 12.5658 3.57161 14.0756 4.74052 15.2332C5.90944 16.3907 7.42652 17.1319 9.05808 17.3424C10.6896 17.5529 12.3452 17.2212 13.7696 16.3982C14.6023 15.9172 15.329 15.2839 15.9155 14.5375V15.8332C15.9155 16.2474 16.2513 16.5832 16.6655 16.5832C17.0797 16.5832 17.4155 16.2474 17.4155 15.8332V12.4999C17.4155 12.0856 17.0797 11.7499 16.6655 11.7499H16.2666C16.2549 11.7496 16.2432 11.7496 16.2316 11.7499H13.3321C12.9179 11.7499 12.5821 12.0856 12.5821 12.4999C12.5821 12.9141 12.9179 13.2499 13.3321 13.2499H14.9984C14.4912 14.0049 13.8158 14.6392 13.0193 15.0994C11.8797 15.7577 10.5553 16.0231 9.25004 15.8547C7.94479 15.6863 6.73113 15.0934 5.79599 14.1674C4.86086 13.2413 4.25614 12.0335 4.07498 10.7299Z" fill="#EEEFF1"/>
</g>
<defs>
<clipPath id="clip0_1104_12153">
<rect width="20" height="20" fill="white"/>
</clipPath>
</defs>
</svg>
