<svg width="24" height="24" viewBox="0 0 24 24" fill="none" xmlns="http://www.w3.org/2000/svg">
<g clip-path="url(#clip0_2503_5335)">
<path fill-rule="evenodd" clip-rule="evenodd" d="M19.338 8.27711L22.7662 11.4719C23.0596 11.7452 23.083 12.2139 22.8014 12.4987C22.6666 12.6347 22.4818 12.7131 22.2877 12.7167C22.0936 12.7203 21.906 12.6487 21.7659 12.5177L12.2547 3.66501C12.1864 3.60126 12.0955 3.56567 12.001 3.56567C11.9064 3.56567 11.8155 3.60126 11.7472 3.66501L2.23697 12.5177C2.16528 12.5851 2.08023 12.6374 1.98705 12.6717C1.89386 12.7059 1.79449 12.7213 1.69501 12.7168C1.59552 12.7123 1.49801 12.6882 1.40845 12.6457C1.31888 12.6033 1.23914 12.5436 1.17409 12.4701C1.05169 12.3275 0.989897 12.1446 1.00135 11.9591C1.0128 11.7735 1.09663 11.5992 1.23569 11.4719L10.9845 2.38577C11.2329 2.14002 11.6015 2 11.9995 2C12.3984 2 12.7681 2.14002 13.0164 2.38482L15.6712 4.85756V3.42878C15.6712 3.23931 15.7485 3.0576 15.886 2.92363C16.0235 2.78966 16.2101 2.71439 16.4046 2.71439H18.6046C18.7991 2.71439 18.9857 2.78966 19.1232 2.92363C19.2607 3.0576 19.338 3.23931 19.338 3.42878V8.27711ZM11.9987 4.99197C12.093 4.99197 12.1837 5.02739 12.2519 5.09086L20.6875 12.9434C20.7234 12.9767 20.752 13.0168 20.7715 13.0612C20.791 13.1055 20.801 13.1533 20.801 13.2016V20.5712C20.801 20.9502 20.6464 21.3136 20.3714 21.5815C20.0963 21.8495 19.7232 22 19.3342 22H14.9311C14.7366 22 14.5501 21.9247 14.4126 21.7908C14.275 21.6568 14.1978 21.4751 14.1978 21.2856V15.2133C14.1978 15.1186 14.1591 15.0277 14.0904 14.9607C14.0216 14.8937 13.9283 14.8561 13.8311 14.8561H10.1643C10.067 14.8561 9.97376 14.8937 9.905 14.9607C9.83623 15.0277 9.7976 15.1186 9.7976 15.2133V21.2856C9.7976 21.4751 9.72033 21.6568 9.5828 21.7908C9.44527 21.9247 9.25874 22 9.06424 22H4.65917C4.27017 22 3.89711 21.8495 3.62204 21.5815C3.34698 21.3136 3.19245 20.9502 3.19245 20.5712L3.1944 13.2016C3.19425 13.1534 3.20413 13.1056 3.22346 13.0613C3.24279 13.0169 3.27116 12.9768 3.30685 12.9434L11.7454 5.09086C11.8136 5.02739 11.9043 4.99197 11.9987 4.99197Z" fill="#EEEFF1"/>
</g>
<defs>
<clipPath id="clip0_2503_5335">
<rect width="24" height="24" fill="white"/>
</clipPath>
</defs>
</svg>
