<svg width="16" height="16" viewBox="0 0 16 16" fill="none" xmlns="http://www.w3.org/2000/svg">
<g clip-path="url(#clip0_3367_26029)">
<path fill-rule="evenodd" clip-rule="evenodd" d="M4.24684 2.8762C5.24552 1.88751 6.59405 1.33294 7.99935 1.33301C9.40464 1.33294 10.7532 1.88751 11.7519 2.8762C12.7505 3.86489 13.3186 5.20778 13.3327 6.61301C13.3327 10.2663 8.66601 14.333 8.43268 14.5063C8.31193 14.6096 8.15825 14.6664 7.99935 14.6664C7.84045 14.6664 7.68677 14.6096 7.56602 14.5063L7.56492 14.5054C7.34958 14.3188 2.66602 10.26 2.66602 6.61301C2.68007 5.20778 3.24817 3.86489 4.24684 2.8762ZM7.10642 8.48873C7.38951 8.60599 7.69293 8.66634 7.99935 8.66634C8.61819 8.66634 9.21168 8.42051 9.64926 7.98292C10.0868 7.54534 10.3327 6.95185 10.3327 6.33301C10.3327 5.71417 10.0868 5.12068 9.64926 4.68309C9.21168 4.24551 8.61819 3.99967 7.99935 3.99967C7.69293 3.99967 7.38951 4.06003 7.10642 4.17729C6.82333 4.29455 6.5661 4.46642 6.34943 4.68309C6.13276 4.89976 5.96089 5.15699 5.84363 5.44008C5.72637 5.72317 5.66602 6.02659 5.66602 6.33301C5.66602 6.63943 5.72637 6.94284 5.84363 7.22594C5.96089 7.50903 6.13276 7.76625 6.34943 7.98292C6.5661 8.19959 6.82333 8.37147 7.10642 8.48873ZM8.70646 7.04012C8.51892 7.22765 8.26457 7.33301 7.99935 7.33301C7.73413 7.33301 7.47978 7.22765 7.29224 7.04012C7.10471 6.85258 6.99935 6.59822 6.99935 6.33301C6.99935 6.06779 7.10471 5.81344 7.29224 5.6259C7.47978 5.43836 7.73413 5.33301 7.99935 5.33301C8.26457 5.33301 8.51892 5.43836 8.70646 5.6259C8.89399 5.81344 8.99935 6.06779 8.99935 6.33301C8.99935 6.59822 8.89399 6.85258 8.70646 7.04012Z" fill="#E3E4E8"/>
</g>
<defs>
<clipPath id="clip0_3367_26029">
<rect width="16" height="16" fill="white"/>
</clipPath>
</defs>
</svg>
