<svg width="20" height="20" viewBox="0 0 20 20" fill="none" xmlns="http://www.w3.org/2000/svg">
<g clip-path="url(#clip0_2046_8905)">
<path d="M9.92499 18.3324C9.04673 18.3245 8.17886 18.1337 7.37254 17.7712C6.56621 17.4087 5.83774 16.8818 5.23007 16.2215C3.99633 14.8738 3.31559 13.0785 3.33233 11.2167C3.34907 9.35494 4.06198 7.57324 5.31973 6.24978L9.44438 1.94404C9.52491 1.85388 9.6229 1.78255 9.73187 1.73475C9.84084 1.68696 9.95832 1.66378 10.0765 1.66676C10.1948 1.66845 10.3115 1.69467 10.4199 1.74388C10.5283 1.79309 10.6261 1.86431 10.7078 1.95337L14.7625 6.32353C15.9975 7.66995 16.68 9.46449 16.6651 11.3263C16.6502 13.188 15.9391 14.9705 14.6827 16.2953C14.0638 16.953 13.3228 17.4728 12.5049 17.823C11.687 18.1732 10.8093 18.3465 9.92499 18.3324Z" fill="#E3E4E8"/>
</g>
<defs>
<clipPath id="clip0_2046_8905">
<rect width="20" height="20" fill="white"/>
</clipPath>
</defs>
</svg>
