<svg width="24" height="24" viewBox="0 0 24 24" fill="none" xmlns="http://www.w3.org/2000/svg">
<g clip-path="url(#clip0_1972_14636)">
<path fill-rule="evenodd" clip-rule="evenodd" d="M20.4817 7.95849H3.52348C3.13391 7.95849 2.83594 7.66052 2.83594 7.27095V5.52103C2.83594 5.13147 3.1339 4.8335 3.52348 4.8335H20.4817C20.8713 4.8335 21.1693 5.13146 21.1693 5.52103V7.27095C21.1693 7.66051 20.8713 7.95849 20.4817 7.95849ZM20.0234 8.41678V13.4584C20.0234 13.848 19.7255 14.146 19.3359 14.146H12.2318V17.6063C12.8734 17.7209 13.3776 18.2708 13.3776 18.9584C13.3776 19.7146 12.7588 20.3334 12.0025 20.3334C11.2462 20.3334 10.6274 19.7146 10.6274 18.9584C10.6274 18.2708 11.1316 17.7209 11.7733 17.6063V14.146H4.66914C4.27958 14.146 3.9816 13.848 3.9816 13.4584V8.41678H20.0234ZM11.3151 18.9584C11.3151 19.348 11.6131 19.6459 12.0027 19.6459C12.3923 19.6459 12.6902 19.348 12.6902 18.9584C12.6902 18.5688 12.3923 18.2709 12.0027 18.2709C11.6131 18.2709 11.3151 18.5687 11.3151 18.9584Z" fill="white"/>
</g>
<defs>
<clipPath id="clip0_1972_14636">
<rect width="20" height="20" fill="white" transform="translate(2 2)"/>
</clipPath>
</defs>
</svg>
