<svg width="20" height="20" viewBox="0 0 20 20" fill="none" xmlns="http://www.w3.org/2000/svg">
<g clip-path="url(#clip0_2101_11353)">
<path fill-rule="evenodd" clip-rule="evenodd" d="M9.34398 0.833496C7.17435 0.833496 5.41539 2.59246 5.41539 4.76209V5.41686C5.41539 7.14293 6.36947 8.64613 7.77913 9.42777C7.73207 9.61075 7.70708 9.80252 7.70708 10.0001H1.4868C1.12521 10.0001 0.832031 10.2933 0.832031 10.6549C0.832031 12.8245 2.59099 14.5835 4.76063 14.5835H5.41539C7.14147 14.5835 8.64466 13.6294 9.4263 12.2197C9.60929 12.2668 9.80105 12.2918 9.99864 12.2918V18.5121C9.99864 18.8736 10.2918 19.1668 10.6534 19.1668C12.823 19.1668 14.582 17.4079 14.582 15.2382V14.5835C14.582 12.8574 13.6279 11.3542 12.2183 10.5726C12.2653 10.3896 12.2903 10.1978 12.2903 10.0002H18.5106C18.8722 10.0002 19.1654 9.70703 19.1654 9.34545C19.1654 7.17581 17.4064 5.41685 15.2368 5.41685H14.582C12.8559 5.41685 11.3527 6.37094 10.5711 7.78059C10.3881 7.73353 10.1963 7.70854 9.99875 7.70854V1.48826C9.99875 1.12668 9.70557 0.833496 9.34398 0.833496ZM9.99875 11.1459C10.6316 11.1459 11.1446 10.6329 11.1446 10C11.1446 9.36719 10.6316 8.85419 9.99875 8.85419C9.36591 8.85419 8.85291 9.36719 8.85291 10C8.85291 10.6329 9.36591 11.1459 9.99875 11.1459Z" fill="#E3E4E8"/>
</g>
<defs>
<clipPath id="clip0_2101_11353">
<rect width="20" height="20" fill="white"/>
</clipPath>
</defs>
</svg>
