<svg width="24" height="24" viewBox="0 0 24 24" fill="none" xmlns="http://www.w3.org/2000/svg">
<g clip-path="url(#clip0_2391_5923)">
<g clip-path="url(#clip1_2391_5923)">
<path d="M13.4104 11.9963L17.7104 7.70628C17.8036 7.61304 17.8776 7.50235 17.928 7.38053C17.9785 7.25871 18.0045 7.12814 18.0045 6.99628C18.0045 6.86442 17.9785 6.73385 17.928 6.61203C17.8776 6.49021 17.8036 6.37952 17.7104 6.28628C17.6171 6.19304 17.5064 6.11908 17.3846 6.06862C17.2628 6.01816 17.1322 5.99219 17.0004 5.99219C16.8685 5.99219 16.7379 6.01816 16.6161 6.06862C16.4943 6.11908 16.3836 6.19304 16.2904 6.28628L12.0004 10.5863L7.71036 6.28628C7.52206 6.09798 7.26666 5.99219 7.00036 5.99219C6.73406 5.99219 6.47866 6.09798 6.29036 6.28628C6.10206 6.47458 5.99627 6.72998 5.99627 6.99628C5.99627 7.26258 6.10206 7.51798 6.29036 7.70628L10.5904 11.9963L6.29036 16.2863C6.19651 16.3792 6.12201 16.4898 6.07116 16.6116C6.02032 16.7335 5.99414 16.8642 5.99414 16.9963C5.99414 17.1283 6.02032 17.2591 6.07116 17.3809C6.12201 17.5028 6.19651 17.6134 6.29036 17.7063C6.38332 17.8 6.49392 17.8744 6.61578 17.9252C6.73764 17.9759 6.86835 18.0021 7.00036 18.0021C7.13237 18.0021 7.26308 17.9759 7.38494 17.9252C7.5068 17.8744 7.6174 17.8 7.71036 17.7063L12.0004 13.4063L16.2904 17.7063C16.4067 17.8241 16.5505 17.9112 16.7087 17.9598C16.867 18.0084 17.0349 18.017 17.1973 17.9848C17.3597 17.9526 17.5116 17.8806 17.6394 17.7753C17.7671 17.67 17.8668 17.5346 17.9294 17.3813C18.0058 17.1976 18.0257 16.9953 17.9865 16.8002C17.9473 16.6051 17.8508 16.4262 17.7094 16.2863L13.4104 11.9963Z" fill="#E3E4E8"/>
</g>
</g>
<defs>
<clipPath id="clip0_2391_5923">
<rect width="24" height="24" fill="white"/>
</clipPath>
<clipPath id="clip1_2391_5923">
<rect width="24" height="24" fill="white"/>
</clipPath>
</defs>
</svg>
