<svg width="21" height="21" viewBox="0 0 21 21" fill="none" xmlns="http://www.w3.org/2000/svg">
<g clip-path="url(#clip0_2125_109)">
<path d="M16.9487 6.60832L13.2487 2.44165C13.1708 2.35533 13.0757 2.28626 12.9695 2.2389C12.8633 2.19154 12.7483 2.16693 12.632 2.16665H5.96536C5.68849 2.16335 5.41367 2.21462 5.15661 2.31753C4.89956 2.42045 4.66528 2.57299 4.46718 2.76645C4.26908 2.95991 4.11103 3.1905 4.00205 3.44504C3.89307 3.69959 3.83529 3.97311 3.83203 4.24999V16.75C3.83529 17.0269 3.89307 17.3004 4.00205 17.5549C4.11103 17.8095 4.26908 18.0401 4.46718 18.2335C4.66528 18.427 4.89956 18.5795 5.15661 18.6824C5.41367 18.7854 5.68849 18.8366 5.96536 18.8333H15.032C15.5911 18.8398 16.1299 18.6239 16.53 18.2333C16.93 17.8426 17.1586 17.3091 17.1654 16.75V7.16665C17.1648 6.96012 17.0876 6.76115 16.9487 6.60832ZM12.1654 3.83332L15.282 7.16665H12.782C12.6948 7.16139 12.6094 7.13879 12.531 7.10018C12.4525 7.06157 12.3826 7.00773 12.3252 6.94179C12.2678 6.87585 12.2241 6.79914 12.1966 6.71613C12.1692 6.63312 12.1586 6.54548 12.1654 6.45832V3.83332Z" fill="#EEEFF1"/>
</g>
<defs>
<clipPath id="clip0_2125_109">
<rect width="20" height="20" fill="white" transform="translate(0.5 0.5)"/>
</clipPath>
</defs>
</svg>
