<svg width="16" height="16" viewBox="0 0 16 16" fill="none" xmlns="http://www.w3.org/2000/svg">
<g clip-path="url(#clip0_1972_15614)">
<path d="M4.61325 14.0002H11.3727C11.8318 14.0002 12.1738 13.893 12.3987 13.6788C12.6236 13.4645 12.736 13.1302 12.736 12.6757V7.91031C12.736 7.46017 12.6236 7.12797 12.3987 6.91372C12.1738 6.69947 11.8318 6.59235 11.3727 6.59235L4.75526 6.60533C4.30084 6.60533 3.93636 6.71138 3.66182 6.92346C3.38727 7.13555 3.25 7.4645 3.25 7.91031V12.6757C3.25 13.1302 3.3636 13.4645 3.59081 13.6788C3.81802 13.893 4.15883 14.0002 4.61325 14.0002ZM4.37894 7.02734H5.52209V4.82641C5.52209 4.28105 5.63569 3.82334 5.8629 3.45327C6.09011 3.0832 6.39187 2.80403 6.76819 2.61575C7.1445 2.42747 7.55276 2.33333 7.99298 2.33333C8.43793 2.33333 8.84738 2.42747 9.22133 2.61575C9.59528 2.80403 9.89586 3.0832 10.1231 3.45327C10.3503 3.82334 10.4639 4.28105 10.4639 4.82641V7.02734H11.607V4.96275C11.607 4.35246 11.5076 3.82009 11.3088 3.36562C11.11 2.91115 10.8402 2.53351 10.4994 2.2327C10.1586 1.93188 9.7716 1.70681 9.33848 1.55748C8.90537 1.40816 8.45687 1.3335 7.99298 1.3335C7.5291 1.3335 7.08178 1.40816 6.65103 1.55748C6.22028 1.70681 5.8345 1.93188 5.49369 2.2327C5.15287 2.53351 4.88188 2.91115 4.6807 3.36562C4.47953 3.82009 4.37894 4.35246 4.37894 4.96275V7.02734Z" fill="#EEEFF1"/>
</g>
<defs>
<clipPath id="clip0_1972_15614">
<rect width="16" height="16" fill="white"/>
</clipPath>
</defs>
</svg>
