<svg width="20" height="20" viewBox="0 0 20 20" fill="none" xmlns="http://www.w3.org/2000/svg">
<g clip-path="url(#clip0_2046_8929)">
<path fill-rule="evenodd" clip-rule="evenodd" d="M3.45368 1.6665H16.5489C17.5608 1.6665 18.3346 2.44031 18.3346 3.45222V7.61889C18.3346 8.63079 17.5608 9.4046 16.5489 9.4046V11.7856C16.5489 15.4165 13.6323 18.3332 10.0013 18.3332C6.37035 18.3332 3.45368 15.4165 3.45368 11.7856V9.4046C2.44178 9.4046 1.66797 8.63079 1.66797 7.61889V3.45222C1.66797 2.44031 2.44178 1.6665 3.45368 1.6665ZM10.0013 17.1427C12.9775 17.1427 15.3584 14.7617 15.3584 11.7856V9.4046H4.64416V11.7856C4.64416 14.7617 7.02511 17.1427 10.0013 17.1427ZM12.3823 13.5714C12.3823 14.8809 11.3108 15.9523 10.0013 15.9523C8.69178 15.9523 7.62035 14.8809 7.62035 13.5714C7.62035 12.2618 8.69178 11.1904 10.0013 11.1904C11.3108 11.1904 12.3823 12.2618 12.3823 13.5714ZM11.1918 13.5714C11.1918 12.9166 10.6561 12.3809 10.0013 12.3809C9.34654 12.3809 8.81083 12.9166 8.81083 13.5714C8.81083 14.2261 9.34654 14.7618 10.0013 14.7618C10.6561 14.7618 11.1918 14.2261 11.1918 13.5714Z" fill="#E3E4E8"/>
</g>
<defs>
<clipPath id="clip0_2046_8929">
<rect width="20" height="20" fill="white"/>
</clipPath>
</defs>
</svg>
