<svg width="32" height="32" viewBox="0 0 32 32" fill="none" xmlns="http://www.w3.org/2000/svg">
<g clip-path="url(#clip0_1682_26699)">
<path d="M18.7351 29.3175C18.6409 29.7725 18.3515 30 17.8671 30C17.3557 30 17.0664 29.7666 16.9991 29.2997C16.7838 28.0065 16.5584 26.9199 16.3228 26.0398C16.0873 25.1597 15.7778 24.4413 15.3943 23.8845C15.0108 23.3278 14.5061 22.8818 13.8804 22.5466C13.2546 22.2112 12.4573 21.9448 11.4883 21.7473C10.5194 21.5498 9.32172 21.3612 7.89525 21.1816C7.65302 21.1577 7.45453 21.0739 7.29978 20.9302C7.14502 20.7865 7.06763 20.6128 7.06763 20.4093C7.06763 20.2057 7.14502 20.0321 7.29978 19.8884C7.45453 19.7447 7.65302 19.6609 7.89525 19.637C9.32172 19.4574 10.5127 19.2658 11.4682 19.0622C12.4236 18.8587 13.2041 18.5893 13.8097 18.254C14.4153 17.9188 14.9065 17.4698 15.2833 16.907C15.6601 16.3442 15.973 15.6258 16.2219 14.7518C16.4709 13.8777 16.7299 12.7941 16.9991 11.501C17.0933 11.034 17.3826 10.8005 17.8671 10.8005C18.3784 10.8005 18.6678 11.04 18.7351 11.5189C18.9504 12.8121 19.1758 13.8957 19.4113 14.7697C19.6468 15.6438 19.9563 16.3622 20.3398 16.925C20.7234 17.4877 21.228 17.9367 21.8538 18.272C22.4795 18.6072 23.2769 18.8736 24.2458 19.0712C25.2147 19.2688 26.4124 19.4574 27.8389 19.637C28.3907 19.6968 28.6666 19.9543 28.6666 20.4093C28.6666 20.6128 28.5892 20.7865 28.4345 20.9302C28.2796 21.0739 28.0811 21.1577 27.8389 21.1816C26.4124 21.3612 25.2215 21.5528 24.2661 21.7563C23.3105 21.9598 22.53 22.2292 21.9244 22.5644C21.3188 22.8997 20.831 23.3488 20.4609 23.9116C20.0909 24.4742 19.778 25.1926 19.5223 26.0667C19.2666 26.9407 19.0042 28.0243 18.7351 29.3175Z" fill="#EEEFF1"/>
<path d="M9.42938 16.2604C9.36209 16.6077 9.13332 16.7813 8.74307 16.7813C8.37972 16.7813 8.15095 16.5897 8.05675 16.2066C7.8818 15.4522 7.74049 14.8625 7.63284 14.4375C7.52518 14.0124 7.36032 13.6891 7.13828 13.4676C6.91624 13.2461 6.56299 13.0785 6.07852 12.9647C5.59406 12.851 4.89429 12.7283 3.9792 12.5965C3.54857 12.5367 3.33325 12.3331 3.33325 11.9859C3.33325 11.6387 3.53511 11.4351 3.93883 11.3753C4.86738 11.2316 5.57388 11.0999 6.05834 10.9801C6.5428 10.8604 6.89605 10.6898 7.11809 10.4683C7.34014 10.2467 7.50837 9.92346 7.62276 9.4984C7.73713 9.07334 7.8818 8.48964 8.05675 7.74728C8.15095 7.3761 8.37972 7.19052 8.74307 7.19052C9.13332 7.19052 9.36209 7.3761 9.42938 7.74728C9.60432 8.48964 9.74562 9.07334 9.85329 9.4984C9.96094 9.92346 10.1258 10.2467 10.3478 10.4683C10.5699 10.6898 10.9265 10.8604 11.4177 10.9801C11.9089 11.0999 12.6187 11.2316 13.5473 11.3753C13.951 11.4351 14.1529 11.6387 14.1529 11.9859C14.1529 12.3331 13.951 12.5367 13.5473 12.5965C12.6187 12.7283 11.9089 12.851 11.4177 12.9647C10.9265 13.0785 10.5699 13.2461 10.3478 13.4676C10.1258 13.6891 9.96094 14.0184 9.85329 14.4554C9.74562 14.8925 9.60432 15.4941 9.42938 16.2604Z" fill="#EEEFF1"/>
<path d="M15.7274 8.21425C15.6735 8.45372 15.5255 8.57345 15.2833 8.57345C15.041 8.57345 14.8863 8.44174 14.819 8.17833C14.6575 7.50781 14.5229 7.01989 14.4153 6.71457C14.3076 6.40924 14.0889 6.19371 13.7593 6.06799C13.4296 5.94228 12.8408 5.81955 11.993 5.69981C11.7238 5.65192 11.5893 5.51423 11.5893 5.28673C11.5893 5.05923 11.7171 4.92153 11.9728 4.87364C12.8206 4.72995 13.4127 4.59525 13.7491 4.46953C14.0856 4.3438 14.3076 4.12828 14.4153 3.82296C14.5229 3.51764 14.6575 3.03571 14.819 2.37716C14.8863 2.12572 15.041 2 15.2833 2C15.5255 2 15.6735 2.12572 15.7274 2.37716C15.8619 3.03571 15.9831 3.51764 16.0907 3.82296C16.1984 4.12828 16.4238 4.3438 16.7669 4.46953C17.1101 4.59525 17.7123 4.72995 18.5736 4.87364C18.8293 4.92153 18.9571 5.05923 18.9571 5.28673C18.9571 5.51423 18.8293 5.65192 18.5736 5.69981C17.7258 5.83152 17.1303 5.96023 16.7871 6.08596C16.444 6.21168 16.2186 6.4272 16.1109 6.73252C16.0032 7.03785 15.8754 7.53176 15.7274 8.21425Z" fill="#EEEFF1"/>
</g>
<defs>
<clipPath id="clip0_1682_26699">
<rect width="32" height="32" fill="white"/>
</clipPath>
</defs>
</svg>
