<svg width="21" height="20" viewBox="0 0 21 20" fill="none" xmlns="http://www.w3.org/2000/svg">
<g clip-path="url(#clip0_1972_20733)">
<path d="M4.66536 10.8334H14.5487L11.5237 14.4668C11.4537 14.551 11.4009 14.6482 11.3684 14.7529C11.336 14.8576 11.3245 14.9676 11.3345 15.0767C11.3548 15.297 11.4619 15.5003 11.632 15.6418C11.8022 15.7832 12.0216 15.8513 12.242 15.8309C12.4623 15.8106 12.6656 15.7036 12.807 15.5334L16.9737 10.5334C17.002 10.4934 17.027 10.4518 17.0487 10.4084C17.0487 10.3668 17.0904 10.3418 17.107 10.3001C17.1448 10.2045 17.1646 10.1028 17.1654 10.0001C17.1646 9.89734 17.1448 9.79563 17.107 9.70008C17.107 9.65842 17.0654 9.63342 17.0487 9.59175C17.0268 9.54831 17.0017 9.50653 16.9737 9.46675L12.807 4.46675C12.7371 4.38237 12.6512 4.31262 12.5542 4.26149C12.4572 4.21036 12.3512 4.17887 12.242 4.1688C12.1329 4.15874 12.0228 4.17031 11.9181 4.20284C11.8135 4.23538 11.7162 4.28825 11.632 4.35842C11.5476 4.42831 11.4777 4.5142 11.4265 4.61116C11.3753 4.70812 11.3438 4.81423 11.3337 4.92341C11.3237 5.03259 11.3353 5.14268 11.3679 5.24736C11.4005 5.35204 11.4534 5.44926 11.5237 5.53342L14.5487 9.16675H4.66536C4.44435 9.16675 4.23239 9.25455 4.07611 9.41083C3.91983 9.56711 3.83203 9.77907 3.83203 10.0001C3.83203 10.2211 3.91983 10.4331 4.07611 10.5893C4.23239 10.7456 4.44435 10.8334 4.66536 10.8334Z" fill="#EEEFF1"/>
</g>
<defs>
<clipPath id="clip0_1972_20733">
<rect width="20" height="20" fill="white" transform="translate(0.5)"/>
</clipPath>
</defs>
</svg>
