<svg width="16" height="16" viewBox="0 0 16 16" fill="none" xmlns="http://www.w3.org/2000/svg">
<g clip-path="url(#clip0_1972_14457)">
<path fill-rule="evenodd" clip-rule="evenodd" d="M5.31734 15H10.6952C11.2855 15 11.7621 14.8424 12.125 14.5272C12.4878 14.2119 12.6693 13.7964 12.6693 13.2806V2.71941C12.6693 2.20359 12.4878 1.78806 12.125 1.47284C11.7621 1.15761 11.2855 1 10.6952 1H5.31734C4.7222 1 4.24319 1.15761 3.88032 1.47284C3.5174 1.78806 3.33594 2.20359 3.33594 2.71941V13.2806C3.33594 13.7964 3.5174 14.2119 3.88032 14.5272C4.24319 14.8424 4.7222 15 5.31734 15ZM6.41101 14.2632H9.60171C9.70181 14.2632 9.78439 14.2288 9.84945 14.1601C9.91452 14.0915 9.94705 14.0017 9.94705 13.8908C9.94705 13.7798 9.91452 13.6913 9.84945 13.6253C9.78439 13.5593 9.70181 13.5263 9.60171 13.5263H6.41101C6.31091 13.5263 6.22708 13.5593 6.15951 13.6253C6.09194 13.6913 6.05816 13.7798 6.05816 13.8908C6.05816 14.0017 6.09194 14.0915 6.15951 14.1601C6.22708 14.2288 6.31091 14.2632 6.41101 14.2632Z" fill="#EEEFF1"/>
</g>
<defs>
<clipPath id="clip0_1972_14457">
<rect width="16" height="16" fill="white"/>
</clipPath>
</defs>
</svg>
