<svg width="24" height="24" viewBox="0 0 24 24" fill="none" xmlns="http://www.w3.org/2000/svg">
<g id="Icon/Robot">
<path id="Vector" fill-rule="evenodd" clip-rule="evenodd" d="M12 22C17.5228 22 22 17.5228 22 12C22 6.47715 17.5228 2 12 2C6.47715 2 2 6.47715 2 12C2 17.5228 6.47715 22 12 22ZM20.9747 12.6744C21.0026 12.3026 20.6978 12 20.325 12C19.9522 12 19.6531 12.3028 19.6202 12.6741C19.5518 13.4477 19.3659 14.2076 19.0677 14.9275C18.6832 15.8557 18.1197 16.699 17.4094 17.4094C16.699 18.1197 15.8557 18.6832 14.9275 19.0677C13.9994 19.4521 13.0046 19.65 12 19.65C10.9954 19.65 10.0006 19.4521 9.07247 19.0677C8.14433 18.6832 7.301 18.1197 6.59063 17.4094C5.88026 16.699 5.31677 15.8557 4.93232 14.9275C4.63414 14.2076 4.44819 13.4477 4.37976 12.6741C4.34691 12.3028 4.04779 12 3.675 12C3.30221 12 2.99737 12.3026 3.0253 12.6744C3.09676 13.6254 3.31904 14.5604 3.68508 15.4441C4.13738 16.5361 4.80031 17.5282 5.63604 18.364C6.47177 19.1997 7.46392 19.8626 8.55585 20.3149C9.64778 20.7672 10.8181 21 12 21C13.1819 21 14.3522 20.7672 15.4442 20.3149C16.5361 19.8626 17.5282 19.1997 18.364 18.364C19.1997 17.5282 19.8626 16.5361 20.3149 15.4442C20.681 14.5604 20.9032 13.6254 20.9747 12.6744ZM9 7C9 5.89543 9.89543 5 11 5H13C14.1046 5 15 5.89543 15 7C15 8.10457 14.1046 9 13 9H11C9.89543 9 9 8.10457 9 7ZM11 6C10.4477 6 10 6.44772 10 7C10 7.55228 10.4477 8 11 8H13C13.5523 8 14 7.55228 14 7C14 6.44772 13.5523 6 13 6H11Z" fill="#EEEFF1"/>
</g>
</svg>
