<svg width="24" height="24" viewBox="0 0 24 24" fill="none" xmlns="http://www.w3.org/2000/svg">
<g clip-path="url(#clip0_1972_14296)">
<path fill-rule="evenodd" clip-rule="evenodd" d="M5.42156 4.12151C5.33073 4.29977 5.33073 4.53313 5.33073 4.99984V5.78189C5.33073 5.90741 5.33073 5.97017 5.3087 6.01911C5.28363 6.07481 5.23904 6.11941 5.18333 6.14448C5.13439 6.1665 5.07163 6.1665 4.94611 6.1665C4.52771 6.1665 4.31851 6.1665 4.15539 6.23992C3.96971 6.32349 3.82105 6.47215 3.73748 6.65783C3.66406 6.82095 3.66406 7.03015 3.66406 7.44856V10.6665C3.66406 11.1332 3.66406 11.3666 3.75489 11.5448C3.83478 11.7016 3.96227 11.8291 4.11907 11.909C4.29733 11.9998 4.53069 11.9998 4.9974 11.9998H18.9974C19.4641 11.9998 19.6975 11.9998 19.8757 11.909C20.0325 11.8291 20.16 11.7016 20.2399 11.5448C20.3307 11.3666 20.3307 11.1332 20.3307 10.6665V7.44856C20.3307 7.03015 20.3307 6.82095 20.2573 6.65783C20.1737 6.47215 20.0251 6.32349 19.8394 6.23992C19.6763 6.1665 19.4671 6.1665 19.0487 6.1665C18.9232 6.1665 18.8604 6.1665 18.8115 6.14448C18.7558 6.11941 18.7112 6.07481 18.6861 6.01911C18.6641 5.97017 18.6641 5.90741 18.6641 5.78189V4.99984C18.6641 4.53313 18.6641 4.29977 18.5732 4.12151C18.4933 3.96471 18.3659 3.83723 18.2091 3.75733C18.0308 3.6665 17.7974 3.6665 17.3307 3.6665H6.66406C6.19735 3.6665 5.964 3.6665 5.78574 3.75733C5.62894 3.83723 5.50145 3.96471 5.42156 4.12151ZM17.8307 8.6665C18.291 8.6665 18.6641 9.0396 18.6641 9.49984C18.6641 9.96007 18.291 10.3332 17.8307 10.3332H16.1641C15.7038 10.3332 15.3307 9.96007 15.3307 9.49984C15.3307 9.0396 15.7038 8.6665 16.1641 8.6665H17.8307ZM9.50418 18.7576C9.65535 19.108 9.50418 19.4951 9.14511 19.6426C9.05074 19.6794 8.97509 19.6979 8.89957 19.6981C8.61619 19.6981 8.37048 19.5505 8.25712 19.2924L8.03041 18.7762C7.67134 17.9648 7.80355 17.0244 8.37047 16.3423C8.65387 15.9919 8.6917 15.4941 8.446 15.1253L8.16261 14.6828C7.97361 14.3693 8.06811 13.9637 8.38933 13.7609C8.71057 13.5765 9.14513 13.6687 9.33415 13.9821L9.59869 14.4246C10.1467 15.2728 10.0711 16.3792 9.42865 17.1719C9.18295 17.4669 9.12628 17.891 9.27746 18.2413L9.50418 18.7576ZM12.49 18.2413L12.7167 18.7576C12.8679 19.108 12.7167 19.4952 12.3766 19.6428C12.3011 19.6797 12.2066 19.6981 12.1121 19.6981C11.8287 19.6981 11.583 19.5506 11.4697 19.2925L11.2429 18.7762C10.8839 17.9649 11.0161 17.0245 11.583 16.3424C11.8664 15.992 11.9042 15.4941 11.6585 15.1254L11.3752 14.6829C11.1861 14.3694 11.2806 13.9638 11.6019 13.761C11.9231 13.5765 12.3578 13.6688 12.5467 13.9822L12.8112 14.4246C13.3593 15.2728 13.2836 16.3792 12.6412 17.1719C12.3955 17.4669 12.3388 17.891 12.49 18.2413ZM15.7589 13.9821L16.0424 14.4247C16.5903 15.2913 16.5148 16.3975 15.8535 17.1721C15.6078 17.4671 15.5511 17.8912 15.7023 18.2415L15.929 18.7578C16.0802 19.1081 15.91 19.4953 15.57 19.6428C15.4944 19.6797 15.3999 19.6981 15.3054 19.6981C15.022 19.6981 14.7763 19.5506 14.663 19.2924L14.4363 18.7762C14.0772 17.9649 14.2094 17.0245 14.7763 16.3423C15.0597 15.9919 15.0976 15.4941 14.8519 15.1254L14.5873 14.6828C14.3983 14.3694 14.4928 13.9637 14.814 13.7609C15.1354 13.5765 15.57 13.6687 15.7589 13.9821Z" fill="white"/>
</g>
<defs>
<clipPath id="clip0_1972_14296">
<rect width="20" height="20" fill="white" transform="translate(2 2)"/>
</clipPath>
</defs>
</svg>
