<svg width="24" height="24" viewBox="0 0 24 24" fill="none" xmlns="http://www.w3.org/2000/svg">
<g clip-path="url(#clip0_1117_12362)">
<path d="M4.73307 2.23434C5.46633 1.97796 6.25877 1.93084 7.01828 2.09845C7.77778 2.26607 8.47314 2.64153 9.02352 3.18119C9.57389 3.72085 9.95667 4.40255 10.1273 5.14701C10.298 5.89148 10.2496 6.66813 9.98768 7.38668L21.4838 18.6541C22.1723 19.3288 22.172 20.4229 21.4832 21.0973C20.795 21.7713 19.6797 21.7711 18.9917 21.0969L7.49432 9.83042C6.76107 10.0868 5.96862 10.1339 5.20911 9.96631C4.44961 9.79869 3.75425 9.42323 3.20388 8.88356C2.6535 8.3439 2.27072 7.66221 2.10005 6.91775C1.92937 6.17328 1.9778 5.39663 2.23972 4.67808L4.86702 7.25425C5.02894 7.42195 5.22353 7.55614 5.43927 7.64888C5.65501 7.74161 5.88754 7.79102 6.12309 7.79418C6.35865 7.79733 6.59246 7.75418 6.81071 7.66725C7.02896 7.58033 7.22721 7.4514 7.39376 7.2881C7.5603 7.1248 7.69174 6.93043 7.78033 6.71648C7.86892 6.50253 7.91284 6.27335 7.90951 6.04248C7.90618 5.81162 7.85566 5.58374 7.76094 5.37234C7.66621 5.16093 7.52921 4.97029 7.35802 4.81166L4.73307 2.23204V2.23434ZM16.7169 5.36745C16.8422 4.75618 17.2347 4.22952 17.7908 3.92671L19.6262 2.92717C20.2341 2.59615 20.9922 2.7002 21.4839 3.18212C21.9756 3.66405 22.0818 4.40707 21.744 5.00283L20.7245 6.80129C20.4153 7.34655 19.8776 7.73134 19.2535 7.8538L18.9818 7.90714C18.4458 8.01232 17.9536 8.27057 17.5671 8.64939L15.6688 10.5099L14.0062 8.88263L15.9048 7.02096C16.2911 6.64215 16.5546 6.1599 16.6622 5.63479L16.7169 5.36745ZM8.60587 13.3613L11.0969 15.805L5.28062 21.5055C4.95937 21.8145 4.52968 21.9913 4.07968 21.9997C3.62967 22.0081 3.19344 21.8474 2.86043 21.5506C2.52743 21.2539 2.32288 20.8435 2.28874 20.4036C2.2546 19.9637 2.39345 19.5277 2.67682 19.185L2.79079 19.0618L8.60587 13.3613Z" fill="white"/>
</g>
<defs>
<clipPath id="clip0_1117_12362">
<rect width="24" height="24" fill="white"/>
</clipPath>
</defs>
</svg>
