<svg width="36" height="36" viewBox="0 0 36 36" fill="none" xmlns="http://www.w3.org/2000/svg">
<rect width="36" height="36" rx="7" fill="#5D75EF"/>
<g clip-path="url(#clip0_1972_15656)">
<path fill-rule="evenodd" clip-rule="evenodd" d="M14.6263 17.4667C15.0334 17.305 15.2048 16.8807 15.0334 16.4967L14.7764 15.9309C14.605 15.5468 14.6692 15.0821 14.9478 14.7587C15.6761 13.8898 15.7618 12.6771 15.1405 11.7475L14.8406 11.2624C14.6263 10.9189 14.1337 10.8178 13.7695 11.0199C13.4054 11.2423 13.2983 11.6869 13.5125 12.0304L13.8338 12.5155C14.1123 12.9196 14.0694 13.4653 13.7482 13.8493C13.1055 14.597 12.9556 15.6278 13.3626 16.517L13.6197 17.0829C13.7482 17.3658 14.0267 17.5275 14.348 17.5275C14.4336 17.5274 14.5193 17.5071 14.6263 17.4667ZM18.6752 16.4967L18.4182 15.9308C18.2468 15.5468 18.3111 15.0821 18.5896 14.7587C19.3179 13.8898 19.4037 12.6771 18.7824 11.7475L18.4825 11.2625C18.2684 10.919 17.7756 10.8179 17.4114 11.02C17.0473 11.2424 16.9401 11.687 17.1544 12.0305L17.4757 12.5156C17.7542 12.9197 17.7113 13.4654 17.39 13.8494C16.7473 14.5971 16.5975 15.6279 17.0045 16.5171L17.2615 17.083C17.39 17.3659 17.6686 17.5276 17.9898 17.5276C18.097 17.5276 18.2041 17.5075 18.2897 17.467C18.6752 17.3052 18.8467 16.8807 18.6752 16.4967ZM22.1239 11.2624L22.4454 11.7475C23.0665 12.6974 22.9809 13.9099 22.2312 14.7589C21.9527 15.0823 21.8885 15.547 22.0599 15.9311L22.3169 16.4969C22.4882 16.8809 22.2953 17.3052 21.9098 17.4669C21.8242 17.5074 21.7171 17.5276 21.6099 17.5276C21.2887 17.5276 21.0101 17.3659 20.8816 17.0829L20.6246 16.5171C20.2175 15.6278 20.3674 14.5971 21.0101 13.8494C21.3314 13.4654 21.3743 12.9197 21.0957 12.5155L20.7958 12.0304C20.5816 11.6869 20.6887 11.2423 21.0529 11.02C21.4171 10.8178 21.9098 10.9189 22.1239 11.2624ZM9.66406 21.3054C9.66406 20.7838 10.0786 20.3609 10.59 20.3609H25.4048C25.9162 20.3609 26.3307 20.7838 26.3307 21.3054C26.3307 21.827 25.9162 22.2498 25.4048 22.2498H10.59C10.0786 22.2498 9.66406 21.827 9.66406 21.3054ZM9.66406 24.1387C9.66406 23.6171 10.0786 23.1943 10.59 23.1943H25.4048C25.9162 23.1943 26.3307 23.6171 26.3307 24.1387C26.3307 24.6603 25.9162 25.0832 25.4048 25.0832H10.59C10.0786 25.0832 9.66406 24.6603 9.66406 24.1387Z" fill="white"/>
</g>
<defs>
<clipPath id="clip0_1972_15656">
<rect width="20" height="20" fill="white" transform="translate(8 8)"/>
</clipPath>
</defs>
</svg>
