<svg width="16" height="16" viewBox="0 0 16 16" fill="none" xmlns="http://www.w3.org/2000/svg">
<g clip-path="url(#clip0_1972_14449)">
<path fill-rule="evenodd" clip-rule="evenodd" d="M9.88822 9.21911C9.38813 9.71921 8.70985 10.0002 8.0026 10.0002C7.29536 10.0002 6.61708 9.71921 6.11699 9.21911C5.61689 8.71902 5.33594 8.04074 5.33594 7.3335V4.00016C5.33594 3.29292 5.61689 2.61464 6.11699 2.11454C6.61708 1.61445 7.29536 1.3335 8.0026 1.3335C8.70985 1.3335 9.38813 1.61445 9.88822 2.11454C10.3883 2.61464 10.6693 3.29292 10.6693 4.00016V7.3335C10.6693 8.04074 10.3883 8.71902 9.88822 9.21911ZM12.474 6.86198C12.599 6.987 12.6693 7.15657 12.6693 7.33338C12.668 8.45461 12.263 9.53789 11.5285 10.385C10.794 11.2322 9.779 11.7865 8.66927 11.9467V13.3334H10.0759C10.2333 13.3334 10.3842 13.3959 10.4955 13.5072C10.6068 13.6184 10.6693 13.7694 10.6693 13.9267V14.0734C10.6693 14.2307 10.6068 14.3817 10.4955 14.4929C10.3842 14.6042 10.2333 14.6667 10.0759 14.6667H5.92927C5.77191 14.6667 5.62099 14.6042 5.50972 14.4929C5.39845 14.3817 5.33594 14.2307 5.33594 14.0734V13.9267C5.33594 13.7694 5.39845 13.6184 5.50972 13.5072C5.62099 13.3959 5.77191 13.3334 5.92927 13.3334H7.33594V11.9467C6.22621 11.7865 5.21124 11.2322 4.47672 10.385C3.74221 9.53789 3.33725 8.45461 3.33594 7.33338C3.33594 7.15657 3.40618 6.987 3.5312 6.86198C3.65622 6.73695 3.82579 6.66672 4.0026 6.66672C4.17942 6.66672 4.34898 6.73695 4.47401 6.86198C4.59903 6.987 4.66927 7.15657 4.66927 7.33338C4.66927 8.21744 5.02046 9.06528 5.64558 9.69041C6.2707 10.3155 7.11855 10.6667 8.0026 10.6667C8.88666 10.6667 9.7345 10.3155 10.3596 9.69041C10.9847 9.06528 11.3359 8.21744 11.3359 7.33338C11.3359 7.15657 11.4062 6.987 11.5312 6.86198C11.6562 6.73695 11.8258 6.66672 12.0026 6.66672C12.1794 6.66672 12.349 6.73695 12.474 6.86198Z" fill="#EEEFF1"/>
</g>
<defs>
<clipPath id="clip0_1972_14449">
<rect width="16" height="16" fill="white"/>
</clipPath>
</defs>
</svg>
