<svg width="32" height="32" viewBox="0 0 32 32" fill="none" xmlns="http://www.w3.org/2000/svg">
<g id="Icon/Voice">
<path id="Vector" d="M2.43375 18.8884C2.75451 18.8884 3.02029 18.7784 3.23108 18.5584C3.44186 18.3386 3.54726 18.0774 3.54726 17.7749V13.6096C3.54726 13.3071 3.44186 13.0437 3.23108 12.8191C3.02029 12.5946 2.75451 12.4823 2.43375 12.4823C2.12215 12.4823 1.86095 12.5946 1.65017 12.8191C1.43938 13.0437 1.33398 13.3071 1.33398 13.6096V17.7749C1.33398 18.0774 1.43938 18.3386 1.65017 18.5584C1.86095 18.7784 2.12215 18.8884 2.43375 18.8884ZM7.05274 24.511C7.37351 24.511 7.64157 24.4033 7.85694 24.1879C8.07231 23.9726 8.17999 23.7091 8.17999 23.3974V7.98706C8.17999 7.67545 8.07231 7.40967 7.85694 7.18972C7.64157 6.96977 7.37351 6.85979 7.05274 6.85979C6.74114 6.85979 6.48224 6.96977 6.27603 7.18972C6.06983 7.40967 5.96673 7.67545 5.96673 7.98706V23.3974C5.96673 23.7091 6.06983 23.9726 6.27603 24.1879C6.48224 24.4033 6.74114 24.511 7.05274 24.511ZM11.6717 30.051C11.9925 30.051 12.2606 29.9433 12.4759 29.7279C12.6913 29.5126 12.799 29.2491 12.799 28.9375V2.447C12.799 2.13541 12.6913 1.87192 12.4759 1.65655C12.2606 1.44118 11.9925 1.3335 11.6717 1.3335C11.3601 1.3335 11.1012 1.44118 10.895 1.65655C10.6888 1.87192 10.5857 2.13541 10.5857 2.447V28.9375C10.5857 29.2491 10.6888 29.5126 10.895 29.7279C11.1012 29.9433 11.3601 30.051 11.6717 30.051ZM16.3182 22.8339C16.6298 22.8339 16.8911 22.7285 17.1018 22.5176C17.3126 22.3068 17.418 22.0456 17.418 21.7341V9.65044C17.418 9.33884 17.3126 9.07535 17.1018 8.85998C16.8911 8.64461 16.6298 8.53693 16.3182 8.53693C15.9974 8.53693 15.7316 8.64461 15.5209 8.85998C15.3101 9.07535 15.2047 9.33884 15.2047 9.65044V21.7341C15.2047 22.0456 15.3101 22.3068 15.5209 22.5176C15.7316 22.7285 15.9974 22.8339 16.3182 22.8339ZM19.8374 18.7647C20.1674 18.5814 20.5317 18.4806 20.9303 18.4623C21.329 18.444 21.7025 18.5127 22.0507 18.6685V5.48509C22.0507 5.18266 21.943 4.92147 21.7277 4.70151C21.5123 4.48157 21.2488 4.37159 20.9372 4.37159C20.6165 4.37159 20.353 4.48157 20.1468 4.70151C19.9405 4.92147 19.8374 5.18266 19.8374 5.48509V18.7647ZM22.1332 30.3259H29.1304C29.3504 30.3259 29.5269 30.2595 29.6597 30.1266C29.7926 29.9937 29.8591 29.8173 29.8591 29.5973C29.8591 29.3774 29.7926 29.1964 29.6597 29.0543C29.5269 28.9123 29.3504 28.8412 29.1304 28.8412H26.3811V27.4666C27.2884 27.3566 28.0834 27.0679 28.7661 26.6005C29.4489 26.1331 29.9827 25.5283 30.3677 24.7859C30.7526 24.0436 30.9451 23.2051 30.9451 22.2703V21.0605C30.9451 20.868 30.8718 20.6985 30.7251 20.5519C30.5785 20.4052 30.409 20.3319 30.2165 20.3319C30.0148 20.3319 29.843 20.4052 29.701 20.5519C29.5589 20.6985 29.4879 20.868 29.4879 21.0605V22.2703C29.4879 23.0217 29.3229 23.6861 28.9929 24.2635C28.663 24.8409 28.2094 25.2922 27.632 25.6176C27.0546 25.943 26.3856 26.1056 25.625 26.1056C24.8643 26.1056 24.1953 25.943 23.6179 25.6176C23.0405 25.2922 22.5891 24.8409 22.2639 24.2635C21.9385 23.6861 21.7758 23.0217 21.7758 22.2703V21.0605C21.7758 20.868 21.7025 20.6985 21.5558 20.5519C21.4092 20.4052 21.2351 20.3319 21.0334 20.3319C20.841 20.3319 20.6738 20.4052 20.5317 20.5519C20.3896 20.6985 20.3186 20.868 20.3186 21.0605V22.2703C20.3186 23.2051 20.5087 24.0436 20.8891 24.7859C21.2695 25.5283 21.8033 26.1354 22.4906 26.6074C23.178 27.0793 23.9799 27.3657 24.8964 27.4666V28.8412H22.1332C21.9132 28.8412 21.7345 28.9123 21.597 29.0543C21.4595 29.1964 21.3908 29.3774 21.3908 29.5973C21.3908 29.8173 21.4595 29.9937 21.597 30.1266C21.7345 30.2595 21.9132 30.3259 22.1332 30.3259ZM25.625 24.7171C26.3031 24.7171 26.853 24.4857 27.2745 24.023C27.6962 23.5601 27.907 22.9804 27.907 22.2839V16.8813C27.907 16.1848 27.6962 15.6074 27.2745 15.1493C26.853 14.691 26.3031 14.4619 25.625 14.4619C24.9468 14.4619 24.3969 14.691 23.9753 15.1493C23.5538 15.6074 23.343 16.1848 23.343 16.8813V22.2839C23.343 22.9804 23.5538 23.5601 23.9753 24.023C24.3969 24.4857 24.9468 24.7171 25.625 24.7171Z" fill="#E3E4E8"/>
</g>
</svg>
