<svg width="24" height="24" viewBox="0 0 24 24" fill="none" xmlns="http://www.w3.org/2000/svg">
<path d="M12 23C12.0978 23 12.218 22.9834 12.3606 22.9503C12.5032 22.917 12.652 22.8635 12.8068 22.7897C14.5509 21.9634 16.0118 21.2183 17.1895 20.5543C18.3671 19.8904 19.3084 19.2337 20.0133 18.5845C20.7184 17.9352 21.2257 17.2362 21.5354 16.4874C21.8451 15.7386 22 14.8662 22 13.8703V5.52616C22 4.95808 21.8676 4.54862 21.6027 4.29779C21.3378 4.04695 20.9486 3.82562 20.4352 3.6338C20.15 3.52314 19.7588 3.38297 19.2616 3.21328C18.7645 3.0436 18.2164 2.85916 17.6173 2.65996C17.0183 2.46077 16.4193 2.26157 15.8202 2.06237C15.2213 1.86318 14.6752 1.68427 14.1821 1.52565C13.689 1.36704 13.2999 1.24346 13.0146 1.15493C12.8517 1.11066 12.6846 1.07378 12.5134 1.04427C12.3423 1.01476 12.1711 1 12 1C11.8288 1 11.6597 1.01476 11.4926 1.04427C11.3256 1.07378 11.1605 1.11066 10.9975 1.15493C10.7123 1.24346 10.3211 1.36704 9.82394 1.52565C9.3268 1.68427 8.77871 1.86133 8.17969 2.05684C7.58067 2.25235 6.98165 2.45154 6.38263 2.65443C5.78361 2.85731 5.23552 3.04544 4.73838 3.21881C4.24124 3.39218 3.85004 3.53051 3.56479 3.6338C3.05949 3.81824 2.67237 4.03772 2.40342 4.29226C2.13447 4.54678 2 4.95808 2 5.52616V13.8703C2 14.8662 2.16096 15.7312 2.48288 16.4653C2.80481 17.1994 3.32233 17.8818 4.03545 18.5125C4.74857 19.1433 5.69396 19.7944 6.87162 20.4658C8.04929 21.1371 9.48979 21.9118 11.1931 22.7897C11.348 22.8635 11.4967 22.917 11.6393 22.9503C11.782 22.9834 11.9022 23 12 23Z" fill="#EEEFF1"/>
</svg>
