<svg width="24" height="24" viewBox="0 0 24 24" fill="none" xmlns="http://www.w3.org/2000/svg">
<g id="Icon/Ventilation" clip-path="url(#clip0_2503_1503)">
<path id="Vector" fill-rule="evenodd" clip-rule="evenodd" d="M11.2143 1C8.61078 1 6.50003 3.11076 6.50003 5.71432V6.50004C6.50003 8.57133 7.64493 10.3752 9.33652 11.3131C9.28005 11.5327 9.25005 11.7628 9.25005 11.9999H1.78572C1.35182 11.9999 1 12.3518 1 12.7857C1 15.3892 3.11076 17.5 5.71432 17.5H6.50004C8.57133 17.5 10.3752 16.3551 11.3131 14.6635C11.5327 14.72 11.7628 14.7499 11.9999 14.7499V22.2143C11.9999 22.6482 12.3518 23 12.7857 23C15.3892 23 17.5 20.8892 17.5 18.2857V17.5C17.5 15.4287 16.3551 13.6248 14.6635 12.6869C14.72 12.4673 14.7499 12.2372 14.7499 12.0001H22.2143C22.6482 12.0001 23 11.6482 23 11.2143C23 8.61078 20.8892 6.50003 18.2857 6.50003H17.5C15.4287 6.50003 13.6248 7.64493 12.6869 9.33652C12.4673 9.28005 12.2372 9.25005 12.0001 9.25005V1.78572C12.0001 1.35182 11.6482 1 11.2143 1ZM12.0001 13.3749C12.7595 13.3749 13.3751 12.7593 13.3751 11.9998C13.3751 11.2404 12.7595 10.6248 12.0001 10.6248C11.2407 10.6248 10.6251 11.2404 10.6251 11.9998C10.6251 12.7593 11.2407 13.3749 12.0001 13.3749Z" fill="#EEEFF1"/>
</g>
<defs>
<clipPath id="clip0_2503_1503">
<rect width="24" height="24" fill="white"/>
</clipPath>
</defs>
</svg>
