<svg width="32" height="32" viewBox="0 0 32 32" fill="none" xmlns="http://www.w3.org/2000/svg">
<g id="Icon/Socket" clip-path="url(#clip0_3367_6179)">
<g id="Vector">
<path d="M5.33333 17C5.33333 22.891 10.109 27.6667 16 27.6667C21.891 27.6667 26.6667 22.891 26.6667 17V14.3333C26.6667 13.597 26.0697 13 25.3333 13H6.66667C5.93029 13 5.33333 13.597 5.33333 14.3333V17Z" fill="white"/>
<path fill-rule="evenodd" clip-rule="evenodd" d="M4 17C4 23.6274 9.37258 29 16 29C22.6274 29 28 23.6274 28 17V14.3333C28 12.8606 26.8061 11.6667 25.3333 11.6667H22V4.33333C22 3.59695 21.403 3 20.6667 3C19.9303 3 19.3333 3.59695 19.3333 4.33333V11.6667H12.6667V4.33333C12.6667 3.59695 12.0697 3 11.3333 3C10.597 3 10 3.59695 10 4.33333V11.6667H6.66667C5.19391 11.6667 4 12.8606 4 14.3333V17ZM16 26.3333C10.8453 26.3333 6.66667 22.1547 6.66667 17V14.3333H25.3333V17C25.3333 22.1547 21.1547 26.3333 16 26.3333Z" fill="white"/>
</g>
</g>
<defs>
<clipPath id="clip0_3367_6179">
<rect width="32" height="32" fill="white"/>
</clipPath>
</defs>
</svg>
