<svg width="24" height="24" viewBox="0 0 24 24" fill="none" xmlns="http://www.w3.org/2000/svg">
<g clip-path="url(#clip0_2503_5559)">
<path d="M1.73076 8.09129C1.31574 8.45617 1.31691 9.09307 1.70766 9.48382L2.29287 10.069C2.68339 10.4596 3.31478 10.4555 3.7344 10.0965C8.48324 6.03269 15.5167 6.03269 20.2656 10.0965C20.6852 10.4555 21.3166 10.4596 21.7071 10.069L22.2929 9.48324C22.6834 9.09271 22.6848 8.45626 22.2703 8.0913C16.4134 2.93441 7.59617 2.93441 1.73076 8.09129ZM9.614 16.2668C9.24923 16.5154 9.25278 17.0289 9.56491 17.3411L11.2929 19.069C11.6834 19.4595 12.3166 19.4595 12.7071 19.069L14.435 17.3411C14.7472 17.0289 14.7507 16.5154 14.386 16.2668C14.1473 16.1042 13.8921 15.966 13.624 15.8548C13.1092 15.6411 12.5573 15.5311 12 15.5311C11.4426 15.5311 10.8907 15.6411 10.3759 15.8548C10.1079 15.966 9.85266 16.1042 9.614 16.2668ZM5.74304 12.1054C5.31468 12.4548 5.31711 13.0933 5.708 13.4842L6.29316 14.0693C6.68357 14.4597 7.31295 14.4531 7.75459 14.1218C8.97208 13.2083 10.4602 12.7063 12 12.7063C13.5398 12.7063 15.0279 13.2083 16.2454 14.1218C16.687 14.4531 17.3164 14.4597 17.7068 14.0693L18.2929 13.4832C18.6834 13.0927 18.6863 12.4549 18.2586 12.1054C14.6305 9.13972 9.37888 9.13972 5.74304 12.1054Z" fill="#EEEFF1"/>
</g>
<defs>
<clipPath id="clip0_2503_5559">
<rect width="24" height="24" fill="white"/>
</clipPath>
</defs>
</svg>
