<svg width="136" height="16" viewBox="0 0 136 16" fill="none" xmlns="http://www.w3.org/2000/svg">
<path d="M40.1766 15.1111C39.3294 15.1111 38.4885 15.0266 37.6541 14.8575C36.8197 14.7014 36.1329 14.4803 35.5938 14.1942V11.0922C36.287 11.4564 37.0058 11.7295 37.7504 11.9116C38.5078 12.0937 39.2267 12.1848 39.9071 12.1848C40.5361 12.1848 41.0111 12.0872 41.332 11.8921C41.6529 11.697 41.8134 11.4174 41.8134 11.0532C41.8134 10.7801 41.7235 10.546 41.5438 10.3509C41.3769 10.1428 41.1266 9.9542 40.7928 9.78512C40.4591 9.61604 39.9392 9.38193 39.2331 9.08279C37.9879 8.54954 37.0829 7.95776 36.518 7.30745C35.9532 6.65714 35.6708 5.85726 35.6708 4.90782C35.6708 4.12745 35.8826 3.43162 36.3062 2.82033C36.7427 2.20904 37.346 1.73432 38.1163 1.39616C38.8865 1.058 39.7723 0.888916 40.7736 0.888916C41.5952 0.888916 42.3269 0.953947 42.9687 1.08401C43.6106 1.21407 44.2268 1.42217 44.8173 1.7083V4.73223C43.6876 4.13395 42.5515 3.83481 41.409 3.83481C40.7928 3.83481 40.2986 3.93886 39.9263 4.14696C39.5669 4.34205 39.3872 4.62818 39.3872 5.00536C39.3872 5.38254 39.5733 5.68818 39.9456 5.92229C40.3179 6.15641 41.0046 6.47506 42.0059 6.87825C42.9174 7.25543 43.6234 7.6261 44.1241 7.99027C44.6376 8.35445 45.0099 8.77714 45.2409 9.25837C45.472 9.7396 45.5875 10.3509 45.5875 11.0922C45.5875 12.3538 45.1318 13.3423 44.2204 14.0576C43.3218 14.76 41.9739 15.1111 40.1766 15.1111Z" fill="white"/>
<path d="M46.9419 5.45407H50.0806V6.46855C50.4657 6.05236 50.9086 5.73371 51.4093 5.5126C51.9099 5.27849 52.4427 5.16144 53.0075 5.16144C53.7007 5.16144 54.2527 5.26548 54.6635 5.47358C55.0871 5.68168 55.4273 5.99383 55.6841 6.41003C56.0692 6.01984 56.5378 5.7142 57.0898 5.49309C57.6418 5.27199 58.2002 5.16144 58.765 5.16144C59.9846 5.16144 60.8511 5.48009 61.3646 6.11739C61.878 6.74168 62.1348 7.64561 62.1348 8.82917V14.8185H58.8998V9.3169C58.8998 8.79665 58.8035 8.41948 58.611 8.18537C58.4184 7.95126 58.0975 7.8342 57.6482 7.8342C57.0705 7.8342 56.6019 8.0423 56.2425 8.45849C56.2553 8.6796 56.2618 9.01776 56.2618 9.47297V14.8185H53.0268V9.18034C53.0268 8.69911 52.9433 8.35444 52.7764 8.14635C52.6096 7.93825 52.3143 7.8342 51.8907 7.8342C51.236 7.8342 50.6711 8.20487 50.1962 8.94622V14.8185H46.9419V5.45407Z" fill="white"/>
<path d="M66.9752 15.1111C65.8199 15.1111 64.8828 14.8315 64.1639 14.2722C63.4578 13.7 63.1048 12.9066 63.1048 11.8921C63.1048 10.8386 63.445 10.0322 64.1254 9.47297C64.8186 8.9007 65.807 8.61457 67.0908 8.61457C67.5914 8.61457 68.0921 8.6731 68.5927 8.79015C69.0934 8.8942 69.5234 9.03727 69.8829 9.21935V9.02426C69.8829 8.02279 69.0741 7.52205 67.4566 7.52205C66.3269 7.52205 65.2935 7.74316 64.3564 8.18537V5.82475C64.7672 5.62966 65.3064 5.47358 65.9739 5.35653C66.6415 5.22647 67.3347 5.16144 68.0536 5.16144C69.7737 5.16144 71.0703 5.5126 71.9432 6.21493C72.829 6.90426 73.2719 7.87322 73.2719 9.12181V14.8185H70.0947V14.0186C69.7481 14.3568 69.3116 14.6234 68.7853 14.8185C68.259 15.0136 67.6556 15.1111 66.9752 15.1111ZM67.9765 13.0041C68.3745 13.0041 68.7468 12.9261 69.0934 12.77C69.44 12.601 69.7031 12.3864 69.8829 12.1262V11.3068C69.3309 10.9297 68.7018 10.7411 67.9958 10.7411C67.5465 10.7411 67.1999 10.8386 66.956 11.0337C66.7121 11.2288 66.5901 11.5149 66.5901 11.8921C66.5901 12.2433 66.7056 12.5164 66.9367 12.7115C67.1806 12.9066 67.5272 13.0041 67.9765 13.0041Z" fill="white"/>
<path d="M74.9043 5.45407H78.1778V6.62463C78.5372 6.20843 79.0443 5.88978 79.699 5.66868C80.3537 5.43457 80.9901 5.31751 81.786 5.31751V7.95125C80.9387 7.95125 80.2767 8.07481 79.622 8.32193C78.9801 8.56905 78.5372 8.93972 78.2933 9.43396V14.8185H74.9043V5.45407Z" fill="white"/>
<path d="M87.0857 15.1111C85.9432 15.1111 85.0767 14.7925 84.4862 14.1552C83.9085 13.5049 83.6197 12.6205 83.6197 11.5019V7.8342H82.3103V5.45407H83.6197V2.64475H87.0087V5.45407H89.1268V7.8342H87.0087V11.0337C87.0087 11.5409 87.0986 11.9051 87.2783 12.1262C87.4708 12.3473 87.8046 12.4579 88.2796 12.4579C88.7032 12.4579 89.1268 12.3408 89.5505 12.1067V14.6624C89.2167 14.8185 88.8573 14.9291 88.4721 14.9941C88.0999 15.0721 87.6377 15.1111 87.0857 15.1111Z" fill="white"/>
<path d="M100.324 15.1094C98.6291 15.1094 97.2876 14.6802 96.2991 13.8218C95.3106 12.9634 94.8164 11.7408 94.8164 10.154C94.8164 8.56728 95.3106 7.3382 96.2991 6.46679C97.3004 5.59537 98.6483 5.15967 100.343 5.15967C101.1 5.15967 101.806 5.23771 102.461 5.39378C103.129 5.53685 103.681 5.74494 104.117 6.01807V8.69084C103.334 8.11857 102.301 7.83243 101.017 7.83243C100.195 7.83243 99.5341 8.02752 99.0334 8.41771C98.5456 8.79489 98.3017 9.37366 98.3017 10.154C98.3017 10.9474 98.5456 11.5327 99.0334 11.9099C99.5212 12.274 100.176 12.4561 100.998 12.4561C102.243 12.4561 103.321 12.157 104.233 11.5587V14.2119C103.257 14.8102 101.954 15.1094 100.324 15.1094Z" fill="white"/>
<path d="M108.973 15.1094C107.818 15.1094 106.88 14.8297 106.162 14.2705C105.456 13.6982 105.102 12.9048 105.102 11.8903C105.102 10.8369 105.443 10.0305 106.123 9.47121C106.816 8.89894 107.805 8.6128 109.088 8.6128C109.589 8.6128 110.09 8.67133 110.59 8.78838C111.091 8.89243 111.521 9.0355 111.881 9.21759V9.02249C111.881 8.02102 111.072 7.52028 109.454 7.52028C108.325 7.52028 107.291 7.74139 106.354 8.1836V5.82298C106.765 5.62789 107.304 5.47182 107.972 5.35476C108.639 5.2247 109.332 5.15967 110.051 5.15967C111.771 5.15967 113.068 5.51083 113.941 6.21317C114.827 6.90249 115.27 7.87145 115.27 9.12004V14.8167H112.092V14.0169C111.746 14.355 111.309 14.6216 110.783 14.8167C110.257 15.0118 109.653 15.1094 108.973 15.1094ZM109.974 13.0024C110.372 13.0024 110.744 12.9243 111.091 12.7683C111.438 12.5992 111.701 12.3846 111.881 12.1245V11.3051C111.329 10.9279 110.7 10.7393 109.993 10.7393C109.544 10.7393 109.198 10.8369 108.954 11.0319C108.71 11.227 108.588 11.5132 108.588 11.8903C108.588 12.2415 108.703 12.5146 108.934 12.7097C109.178 12.9048 109.525 13.0024 109.974 13.0024Z" fill="white"/>
<path d="M116.902 5.45231H120.175V6.62286C120.535 6.20666 121.042 5.88801 121.697 5.66691C122.351 5.4328 123.077 5.31574 123.873 5.31574V7.94949C123.025 7.94949 122.274 8.07305 121.62 8.32016C120.978 8.56728 120.535 8.93795 120.291 9.43219V14.8167H116.902V5.45231Z" fill="white"/>
<path d="M130.268 15.1094C128.458 15.1094 127.033 14.6802 125.993 13.8218C124.966 12.9634 124.452 11.7473 124.452 10.1735C124.452 8.62581 124.908 7.40323 125.82 6.5058C126.744 5.60838 128.072 5.15967 129.805 5.15967C130.909 5.15967 131.853 5.37427 132.636 5.80347C133.432 6.21967 134.029 6.79844 134.427 7.53979C134.838 8.26814 135.043 9.09403 135.043 10.0175V11.2856H127.668C127.796 11.8058 128.117 12.183 128.631 12.4171C129.144 12.6512 129.844 12.7683 130.73 12.7683C131.333 12.7683 131.949 12.7162 132.578 12.6122C133.22 12.5081 133.772 12.3651 134.234 12.183V14.4461C133.759 14.6412 133.162 14.7972 132.444 14.9143C131.737 15.0443 131.012 15.1094 130.268 15.1094ZM131.847 9.13955C131.795 8.63231 131.59 8.23562 131.23 7.94949C130.871 7.66335 130.377 7.52028 129.748 7.52028C129.132 7.52028 128.644 7.66985 128.284 7.969C127.925 8.25513 127.719 8.64532 127.668 9.13955H131.847Z" fill="white"/>
<path fill-rule="evenodd" clip-rule="evenodd" d="M8.3961 2.22222H20.6789C23.8285 2.22222 26.3817 4.80903 26.3817 8C26.3817 11.191 23.8285 13.7778 20.6789 13.7778H8.3961C5.24657 13.7778 2.69336 11.191 2.69336 8C2.69336 4.80903 5.24657 2.22222 8.3961 2.22222ZM0.5 8C0.5 3.58171 4.03508 0 8.3961 0H20.6789C25.04 0 28.575 3.58171 28.575 8C28.575 12.4183 25.04 16 20.6789 16H8.3961C4.03508 16 0.5 12.4183 0.5 8ZM20.6789 11.5556C22.617 11.5556 24.1883 9.96365 24.1883 8C24.1883 6.03635 22.617 4.44444 20.6789 4.44444C18.7409 4.44444 17.1696 6.03635 17.1696 8C17.1696 9.96365 18.7409 11.5556 20.6789 11.5556Z" fill="white"/>
</svg>
