<svg width="24" height="24" viewBox="0 0 24 24" fill="none" xmlns="http://www.w3.org/2000/svg">
<g clip-path="url(#clip0_2503_17485)">
<path fill-rule="evenodd" clip-rule="evenodd" d="M12 2C9.34784 2 6.8043 3.05357 4.92893 4.92893C3.05357 6.8043 2 9.34784 2 12C2 14.6522 3.05357 17.1957 4.92893 19.0711C6.8043 20.9464 9.34784 22 12 22C14.6522 22 17.1957 20.9464 19.0711 19.0711C20.9464 17.1957 22 14.6522 22 12C22 9.34784 20.9464 6.8043 19.0711 4.92893C17.1957 3.05357 14.6522 2 12 2ZM12 20C10.9494 20 9.90901 19.7931 8.93834 19.391C7.96768 18.9889 7.08571 18.3996 6.34279 17.6567C5.59988 16.9138 5.01056 16.0318 4.6085 15.0612C4.20644 14.0905 3.9995 13.0501 3.9995 11.9995C3.9995 10.9489 4.20644 9.90851 4.6085 8.93784C5.01056 7.96718 5.59988 7.08521 6.34279 6.34229C7.08571 5.59938 7.96768 5.01006 8.93834 4.608C9.90901 4.20594 10.9494 3.999 12 3.999C14.1219 3.999 16.1568 4.84191 17.6572 6.34229C19.1576 7.84268 20.0005 9.87764 20.0005 11.9995C20.0005 14.1214 19.1576 16.1563 17.6572 17.6567C16.1568 19.1571 14.1219 20 12 20ZM12 9C12.2652 9 12.5196 8.89464 12.7071 8.70711C12.8946 8.51957 13 8.26522 13 8C13 7.73478 12.8946 7.48043 12.7071 7.29289C12.5196 7.10536 12.2652 7 12 7C11.7348 7 11.4804 7.10536 11.2929 7.29289C11.1054 7.48043 11 7.73478 11 8C11 8.26522 11.1054 8.51957 11.2929 8.70711C11.4804 8.89464 11.7348 9 12 9ZM11.2929 10.2929C11.4804 10.1054 11.7348 10 12 10C12.2652 10 12.5196 10.1054 12.7071 10.2929C12.8946 10.4804 13 10.7348 13 11V16C13 16.2652 12.8946 16.5196 12.7071 16.7071C12.5196 16.8946 12.2652 17 12 17C11.7348 17 11.4804 16.8946 11.2929 16.7071C11.1054 16.5196 11 16.2652 11 16V11C11 10.7348 11.1054 10.4804 11.2929 10.2929Z" fill="#E3E4E8"/>
</g>
<defs>
<clipPath id="clip0_2503_17485">
<rect width="24" height="24" fill="white"/>
</clipPath>
</defs>
</svg>
