<svg width="24" height="24" viewBox="0 0 24 24" fill="none" xmlns="http://www.w3.org/2000/svg">
<path d="M9.57694 19C9.42309 18.9993 9.27101 18.966 9.13011 18.902C8.98921 18.838 8.86248 18.7448 8.75777 18.628L3.30417 12.6183C3.10031 12.3933 2.9911 12.0935 3.00057 11.7851C3.01004 11.4766 3.13741 11.1847 3.35467 10.9735C3.57192 10.7623 3.86126 10.6492 4.15904 10.659C4.45681 10.6688 4.73863 10.8008 4.9425 11.0258L9.56572 16.1288L19.0029 5.43458C19.0987 5.31104 19.2178 5.20908 19.353 5.13498C19.4882 5.06087 19.6366 5.01618 19.7891 5.00364C19.9415 4.99111 20.0949 5.01099 20.2397 5.06208C20.3845 5.11317 20.5176 5.19438 20.631 5.30072C20.7444 5.40706 20.8356 5.53629 20.899 5.68048C20.9624 5.82466 20.9967 5.98075 20.9998 6.13916C21.0028 6.29757 20.9746 6.45496 20.9168 6.60166C20.859 6.74835 20.7729 6.88126 20.6637 6.99222L10.4073 18.6164C10.3036 18.7353 10.1773 18.8307 10.0364 18.8967C9.89541 18.9627 9.74283 18.9979 9.58816 19H9.57694Z" fill="#EEEFF1"/>
</svg>
