<svg width="24" height="24" viewBox="0 0 24 24" fill="none" xmlns="http://www.w3.org/2000/svg">
<g clip-path="url(#clip0_2503_4095)">
<path fill-rule="evenodd" clip-rule="evenodd" d="M18.7127 15.0233C18.7127 15.5879 18.6469 16.1454 18.5197 16.6849L16.2837 14.3591C16.8533 14.0188 17.5081 13.504 18.2655 12.7256C18.507 13.4447 18.7127 14.2177 18.7127 15.0233ZM11.1113 2C15.9003 5.32103 18.5521 8.64206 15.2519 13.2859L9.70945 7.5208C10.6224 6.24069 11.3498 4.48115 11.1113 2ZM16.522 20.1811L7.04717 10.3258C6.26298 11.2216 5.71443 12.3169 5.45975 13.5054C5.16736 14.8699 5.27581 16.2943 5.77102 17.594C6.26622 18.8936 7.12536 20.0085 8.23703 20.7941C9.3487 21.5798 10.6616 21.9999 12.0056 22C13.6799 22 15.2897 21.3488 16.522 20.1811ZM5.5375 4.54222L19.7409 19.5344C19.8238 19.6217 19.8895 19.7251 19.9339 19.8388C19.9784 19.9524 20.0008 20.0741 20 20.1969C19.9991 20.3196 19.975 20.4409 19.9289 20.5539C19.8828 20.6669 19.8158 20.7693 19.7316 20.8553C19.6478 20.9419 19.5484 21.0103 19.4391 21.0567C19.3298 21.1031 19.2128 21.1265 19.0947 21.1256C18.9767 21.1247 18.8599 21.0995 18.7513 21.0515C18.6427 21.0034 18.5442 20.9335 18.4617 20.8457L4.25837 5.85346C4.1756 5.76609 4.11019 5.66262 4.06586 5.54896C4.02153 5.4353 3.99916 5.31367 4.00002 5.19101C4.00089 5.06835 4.02497 4.94707 4.07089 4.8341C4.11681 4.72112 4.18367 4.61866 4.26766 4.53256C4.35165 4.44647 4.45112 4.37842 4.56039 4.33231C4.66966 4.2862 4.78659 4.26293 4.9045 4.26383C5.02242 4.26472 5.13901 4.28977 5.24762 4.33754C5.35623 4.38531 5.45473 4.45486 5.5375 4.54222Z" fill="#EEEFF1"/>
</g>
<defs>
<clipPath id="clip0_2503_4095">
<rect width="24" height="24" fill="white"/>
</clipPath>
</defs>
</svg>
