<svg width="24" height="24" viewBox="0 0 24 24" fill="none" xmlns="http://www.w3.org/2000/svg">
<path d="M16.0654 22H21.458C21.9314 22 22.3068 21.8452 22.5841 21.5356C22.8614 21.2261 23 20.8117 23 20.2926V8.3227C23 7.80362 22.8614 7.3893 22.5841 7.07973C22.3068 6.77016 21.9314 6.61538 21.458 6.61538H16.5233V20.2926C16.5233 20.6116 16.4844 20.9134 16.4065 21.1979C16.3287 21.4825 16.215 21.7499 16.0654 22ZM18.6448 11.3621V9.86116C18.6448 9.64227 18.7539 9.53282 18.972 9.53282H20.5234C20.7414 9.53282 20.8505 9.64227 20.8505 9.86116V11.3621C20.8505 11.5872 20.7414 11.6998 20.5234 11.6998H18.972C18.7539 11.6998 18.6448 11.5872 18.6448 11.3621ZM18.6448 15.0581V13.5572C18.6448 13.3383 18.7539 13.2289 18.972 13.2289H20.5234C20.7414 13.2289 20.8505 13.3383 20.8505 13.5572V15.0581C20.8505 15.277 20.7414 15.3865 20.5234 15.3865H18.972C18.7539 15.3865 18.6448 15.277 18.6448 15.0581ZM18.6448 18.7542V17.2533C18.6448 17.0281 18.7539 16.9155 18.972 16.9155H20.5234C20.7414 16.9155 20.8505 17.0281 20.8505 17.2533V18.7542C20.8505 18.9731 20.7414 19.0826 20.5234 19.0826H18.972C18.7539 19.0826 18.6448 18.9731 18.6448 18.7542ZM1 20.2926C1 20.8117 1.13863 21.2261 1.41589 21.5356C1.69315 21.8452 2.07165 22 2.5514 22H13.6916C14.1713 22 14.5498 21.8452 14.8271 21.5356C15.1043 21.2261 15.243 20.8117 15.243 20.2926V3.70732C15.243 3.18199 15.1043 2.7661 14.8271 2.45966C14.5498 2.15322 14.1713 2 13.6916 2H2.5514C2.07165 2 1.69315 2.15322 1.41589 2.45966C1.13863 2.7661 1 3.18199 1 3.70732V20.2926ZM4.88785 20.4897V17.4409C4.88785 17.222 4.95327 17.0485 5.08411 16.9203C5.21495 16.792 5.38629 16.7279 5.59813 16.7279H10.7289C10.947 16.7279 11.1199 16.792 11.2476 16.9203C11.3754 17.0485 11.4392 17.222 11.4392 17.4409V20.4897H4.88785ZM4.57943 7.03752V5.21764C4.57943 4.94871 4.70716 4.81425 4.96261 4.81425H6.83177C7.09968 4.81425 7.23364 4.94871 7.23364 5.21764V7.03752C7.23364 7.30644 7.09968 7.4409 6.83177 7.4409H4.96261C4.70716 7.4409 4.57943 7.30644 4.57943 7.03752ZM9.09345 7.03752V5.21764C9.09345 4.94871 9.22429 4.81425 9.48598 4.81425H11.3457C11.6137 4.81425 11.7477 4.94871 11.7477 5.21764V7.03752C11.7477 7.30644 11.6137 7.4409 11.3457 7.4409H9.48598C9.22429 7.4409 9.09345 7.30644 9.09345 7.03752ZM4.57943 10.8649V9.04502C4.57943 8.7761 4.70716 8.64165 4.96261 8.64165H6.83177C7.09968 8.64165 7.23364 8.7761 7.23364 9.04502V10.8649C7.23364 11.1338 7.09968 11.2683 6.83177 11.2683H4.96261C4.70716 11.2683 4.57943 11.1338 4.57943 10.8649ZM9.09345 10.8649V9.04502C9.09345 8.7761 9.22429 8.64165 9.48598 8.64165H11.3457C11.6137 8.64165 11.7477 8.7761 11.7477 9.04502V10.8649C11.7477 11.1338 11.6137 11.2683 11.3457 11.2683H9.48598C9.22429 11.2683 9.09345 11.1338 9.09345 10.8649ZM4.57943 14.6923V12.8724C4.57943 12.6035 4.70716 12.469 4.96261 12.469H6.83177C7.09968 12.469 7.23364 12.6035 7.23364 12.8724V14.6923C7.23364 14.9612 7.09968 15.0957 6.83177 15.0957H4.96261C4.70716 15.0957 4.57943 14.9612 4.57943 14.6923ZM9.09345 14.6923V12.8724C9.09345 12.6035 9.22429 12.469 9.48598 12.469H11.3457C11.6137 12.469 11.7477 12.6035 11.7477 12.8724V14.6923C11.7477 14.9612 11.6137 15.0957 11.3457 15.0957H9.48598C9.22429 15.0957 9.09345 14.9612 9.09345 14.6923Z" fill="#EEEFF1"/>
</svg>
