<svg width="24" height="24" viewBox="0 0 24 24" fill="none" xmlns="http://www.w3.org/2000/svg">
<g clip-path="url(#clip0_2503_4879)">
<path d="M5.66561 20.6667V18.6667C5.66561 18.2985 5.96416 18 6.33232 18H18.3322C18.7004 18 18.9989 18.2985 18.9989 18.6667V20.6667H23.3321C23.5162 20.6667 23.6653 20.8159 23.6653 21V21.6667C23.6653 21.8507 23.5162 22 23.3321 22H1.33231C1.14816 22 0.999023 21.8507 0.999023 21.6667V21C0.999023 20.8159 1.14816 20.6667 1.33231 20.6667H5.66561ZM6.99903 13.3332C6.99903 10.3877 9.38643 8.00008 12.3322 8.00008C15.2779 8.00008 17.6653 10.3875 17.6653 13.3332V18H6.99903V13.3332ZM15.6654 13C15.6654 11.3432 14.3223 9.99999 12.6654 9.99999H12.3321C12.148 9.99999 11.9988 10.1493 11.9988 10.3333V11C11.9988 11.1841 12.148 11.3333 12.3321 11.3333H12.6654C13.5858 11.3333 14.3321 12.0795 14.3321 13V13.3332C14.3321 13.5174 14.4814 13.6667 14.6654 13.6667H15.3321C15.5162 13.6667 15.6654 13.5174 15.6654 13.3332V13ZM4.33227 12.6667C4.70045 12.6667 4.99898 12.9651 4.99898 13.3332C4.99898 13.7015 4.70043 13.9999 4.33227 13.9999H1.66559C1.29741 13.9999 0.999023 13.7015 0.999023 13.3332C0.999023 12.9651 1.29743 12.6667 1.66559 12.6667H4.33227ZM22.9988 12.6667C23.367 12.6667 23.6654 12.9651 23.6654 13.3332C23.6654 13.7015 23.367 13.9999 22.9988 13.9999H20.3322C19.964 13.9999 19.6655 13.7015 19.6655 13.3332C19.6655 12.9651 19.964 12.6667 20.3322 12.6667H22.9988ZM6.20404 8.1478L4.31845 6.26221C3.68981 5.63372 4.63262 4.6908 5.26123 5.31944L7.14681 7.20502C7.7753 7.83352 6.8325 8.77629 6.20404 8.1478ZM17.5175 7.20502L19.4031 5.31944C20.0317 4.6908 20.9745 5.63375 20.3458 6.26221L18.4603 8.1478C17.8318 8.77629 16.889 7.83349 17.5175 7.20502ZM11.6654 5.33326V2.66672C11.6654 1.77776 12.9988 1.77776 12.9988 2.66672V5.33326C12.9988 6.22221 11.6654 6.22221 11.6654 5.33326Z" fill="#EEEFF1"/>
</g>
<defs>
<clipPath id="clip0_2503_4879">
<rect width="24" height="24" fill="white"/>
</clipPath>
</defs>
</svg>
