<svg width="24" height="24" viewBox="0 0 24 24" fill="none" xmlns="http://www.w3.org/2000/svg">
<g clip-path="url(#clip0_1972_14432)">
<path d="M13.0391 4.70841C13.0391 4.43215 12.9293 4.1672 12.734 3.97184C12.5386 3.77649 12.2737 3.66675 11.9974 3.66675C11.7211 3.66675 11.4562 3.77649 11.2608 3.97184C11.0655 4.1672 10.9557 4.43215 10.9557 4.70841V5.75008C10.9557 6.02635 11.0655 6.2913 11.2608 6.48665C11.4562 6.682 11.7211 6.79175 11.9974 6.79175C12.2737 6.79175 12.5386 6.682 12.734 6.48665C12.9293 6.2913 13.0391 6.02635 13.0391 5.75008V4.70841ZM17.8898 7.57994C18.0738 7.38248 18.1739 7.1213 18.1692 6.85144C18.1644 6.58158 18.0551 6.3241 17.8642 6.13325C17.6734 5.94239 17.4159 5.83307 17.146 5.82831C16.8762 5.82355 16.615 5.92372 16.4175 6.10772L15.6806 6.84383C15.4878 7.03972 15.3803 7.30382 15.3814 7.57862C15.3826 7.85342 15.4922 8.11664 15.6865 8.31095C15.8808 8.50526 16.1441 8.61492 16.4189 8.61604C16.6937 8.61715 16.9578 8.50964 17.1536 8.31692L17.8898 7.57994ZM20.3307 12.0001C20.3307 12.2763 20.221 12.5413 20.0256 12.7367C19.8303 12.932 19.5653 13.0417 19.2891 13.0417H18.2474C17.9711 13.0417 17.7062 12.932 17.5108 12.7367C17.3155 12.5413 17.2057 12.2763 17.2057 12.0001C17.2057 11.7238 17.3155 11.4589 17.5108 11.2635C17.7062 11.0682 17.9711 10.9584 18.2474 10.9584H19.2891C19.5653 10.9584 19.8303 11.0682 20.0256 11.2635C20.221 11.4589 20.3307 11.7238 20.3307 12.0001ZM6.84115 8.31692C6.93758 8.41494 7.05247 8.4929 7.17919 8.5463C7.30591 8.59969 7.44194 8.62747 7.57945 8.62803C7.71695 8.62859 7.85321 8.60192 7.98036 8.54956C8.1075 8.4972 8.22303 8.42018 8.32026 8.32294C8.41749 8.22571 8.49451 8.11019 8.54687 7.98304C8.59924 7.8559 8.62591 7.71964 8.62535 7.58213C8.62479 7.44463 8.59701 7.30859 8.54361 7.18188C8.49021 7.05516 8.41226 6.94027 8.31424 6.84383L7.57726 6.10772C7.37979 5.92372 7.11862 5.82355 6.84875 5.82831C6.57889 5.83307 6.32141 5.94239 6.13056 6.13325C5.93971 6.3241 5.83039 6.58158 5.82563 6.85144C5.82086 7.1213 5.92103 7.38248 6.10503 7.57994L6.84115 8.31692ZM6.78906 12.0001C6.78906 12.2763 6.67932 12.5413 6.48397 12.7367C6.28861 12.932 6.02366 13.0417 5.7474 13.0417H4.70573C4.42946 13.0417 4.16451 12.932 3.96916 12.7367C3.77381 12.5413 3.66406 12.2763 3.66406 12.0001C3.66406 11.7238 3.77381 11.4589 3.96916 11.2635C4.16451 11.0682 4.42946 10.9584 4.70573 10.9584H5.7474C6.02366 10.9584 6.28861 11.0682 6.48397 11.2635C6.67932 11.4589 6.78906 11.7238 6.78906 12.0001ZM9.91406 18.2501V17.2084H14.0807V18.2501C14.0807 18.8026 13.8612 19.3325 13.4705 19.7232C13.0798 20.1139 12.5499 20.3334 11.9974 20.3334C11.4449 20.3334 10.915 20.1139 10.5243 19.7232C10.1336 19.3325 9.91406 18.8026 9.91406 18.2501ZM14.0807 16.1667C14.0964 15.8126 14.2977 15.494 14.5773 15.2727C15.2572 14.7365 15.7533 14.0018 15.9964 13.1708C16.2396 12.3397 16.2178 11.4535 15.934 10.6354C15.6503 9.81733 15.1187 9.10795 14.4132 8.60589C13.7077 8.10384 12.8633 7.83407 11.9974 7.83407C11.1315 7.83407 10.2871 8.10384 9.58158 8.60589C8.87607 9.10795 8.3445 9.81733 8.06077 10.6354C7.77703 11.4535 7.75523 12.3397 7.99838 13.1708C8.24154 14.0018 8.73757 14.7365 9.41753 15.2727C9.69878 15.494 9.89844 15.8126 9.91233 16.1667H14.0807Z" fill="white"/>
</g>
<defs>
<clipPath id="clip0_1972_14432">
<rect width="20" height="20" fill="white" transform="translate(2 2)"/>
</clipPath>
</defs>
</svg>
