<svg width="24" height="24" viewBox="0 0 24 24" fill="none" xmlns="http://www.w3.org/2000/svg">
<g clip-path="url(#clip0_2193_18074)">
<path fill-rule="evenodd" clip-rule="evenodd" d="M17.5755 4.40779C18.1338 4.88564 18.5589 5.24967 18.8702 5.7055C19.1334 6.09083 19.3297 6.51762 19.451 6.96818C19.5945 7.50121 19.5942 8.06081 19.5938 8.79556L19.5938 16.2937C19.5939 17.0615 19.5939 17.6967 19.5546 18.2155C19.5137 18.7544 19.426 19.2535 19.2048 19.7283C18.7922 20.6131 18.081 21.3244 17.1961 21.737C16.7211 21.9583 16.2221 22.046 15.6833 22.0868C15.1645 22.1261 14.5293 22.1261 13.7615 22.126L8.86619 22.1261H8.86377C8.09719 22.1261 7.46277 22.1261 6.94452 22.0868C6.40543 22.046 5.90654 21.9585 5.4317 21.737C4.54686 21.3244 3.83564 20.6132 3.42303 19.7284C3.20157 19.2535 3.11407 18.7546 3.07325 18.2155C3.03393 17.6968 3.03394 17.0616 3.03394 16.2939L3.03394 16.2939L3.03397 8.79576L3.03397 8.7944C3.03359 8.06032 3.0333 7.50099 3.17669 6.96825C3.298 6.51768 3.49444 6.09089 3.75758 5.70556C4.06834 5.2503 4.49286 4.88674 5.04965 4.4099L5.05204 4.40785L7.41313 2.38427C7.96861 1.90791 8.43105 1.51157 8.83679 1.215C9.26094 0.90478 9.68547 0.655513 10.1807 0.515048C10.9216 0.304966 11.7061 0.30484 12.447 0.514909C12.9424 0.655495 13.3669 0.904755 13.7911 1.21497C14.1953 1.51041 14.6556 1.90497 15.2083 2.37877L15.2147 2.38424L17.5755 4.40779ZM11.0392 18.0982C11.1356 18.1912 11.256 18.2376 11.4006 18.2376C11.5452 18.2376 11.6657 18.1912 11.7621 18.0982C11.8585 18.0053 11.9067 17.883 11.9067 17.7316V16.9881C12.7329 16.9054 13.4282 16.6317 13.9928 16.167C14.5574 15.7022 14.8397 15.0671 14.8397 14.2615C14.8397 13.5386 14.6056 12.9569 14.1374 12.5162C13.6692 12.0756 12.9739 11.7727 12.0513 11.6074L11.9067 11.5764V8.61246C12.2854 8.68131 12.6038 8.8259 12.862 9.04622C13.1202 9.26653 13.3043 9.5557 13.4144 9.91372C13.5315 10.2649 13.7484 10.4404 14.0651 10.4404C14.251 10.4404 14.4025 10.3819 14.5196 10.2648C14.6366 10.1478 14.6951 9.99634 14.6951 9.81044C14.6951 9.75536 14.6899 9.70028 14.6796 9.6452C14.6693 9.59012 14.6572 9.53504 14.6434 9.47996C14.4989 8.90851 14.177 8.43517 13.6779 8.05994C13.1787 7.68471 12.5883 7.45923 11.9067 7.38349V6.65025C11.9067 6.49878 11.8585 6.37657 11.7621 6.28362C11.6657 6.19068 11.5452 6.14421 11.4006 6.14421C11.256 6.14421 11.1356 6.19068 11.0392 6.28362C10.9428 6.37657 10.8946 6.49878 10.8946 6.65025V7.38349C10.0891 7.473 9.42638 7.75357 8.90656 8.22518C8.38675 8.6968 8.12684 9.29751 8.12684 10.0273C8.12684 10.702 8.35405 11.2477 8.80845 11.6642C9.26286 12.0808 9.93414 12.3957 10.8223 12.6092L10.8946 12.6298V15.7694C10.4195 15.7005 10.0426 15.5422 9.76374 15.2943C9.4849 15.0464 9.30073 14.7469 9.21122 14.3958C9.14926 14.2099 9.0632 14.0739 8.95304 13.9878C8.84288 13.9018 8.70862 13.8588 8.55027 13.8588C8.37126 13.8588 8.22323 13.9173 8.10619 14.0344C7.98914 14.1514 7.93062 14.3029 7.93062 14.4888C7.93062 14.5439 7.93578 14.5989 7.94611 14.654C7.95644 14.709 7.96849 14.7641 7.98226 14.8193C8.13372 15.4389 8.47797 15.9346 9.015 16.3064C9.55203 16.6782 10.1786 16.8985 10.8946 16.9673V17.7316C10.8946 17.883 10.9428 18.0053 11.0392 18.0982ZM10.8946 8.61246V11.3079L10.8223 11.2873C10.3472 11.1427 9.99955 10.9637 9.77923 10.7502C9.55891 10.5368 9.44875 10.2717 9.44875 9.95502C9.44875 9.63143 9.57785 9.34571 9.83603 9.09785C10.0942 8.84999 10.4471 8.68819 10.8946 8.61246ZM11.9067 15.7694V12.8777L12.1339 12.9397C12.6502 13.0774 13.01 13.2598 13.2131 13.487C13.4162 13.7142 13.5178 13.9965 13.5178 14.3339C13.5178 14.7056 13.3852 15.0223 13.1201 15.284C12.855 15.5456 12.4506 15.7074 11.9067 15.7694Z" fill="#E3E4E8"/>
</g>
<defs>
<clipPath id="clip0_2193_18074">
<rect width="24" height="24" fill="white"/>
</clipPath>
</defs>
</svg>
