<svg width="24" height="24" viewBox="0 0 24 24" fill="none" xmlns="http://www.w3.org/2000/svg">
<path fill-rule="evenodd" clip-rule="evenodd" d="M6.05155 21.789C5.58473 21.9297 5.20743 22 4.91966 22C4.54876 22 4.31374 21.8801 4.21462 21.6403C4.1155 21.4005 4.15867 21.1591 4.34412 20.9161C4.46562 20.7562 4.63989 20.5436 4.86691 20.2782C5.09392 20.0128 5.32894 19.7234 5.57194 19.4101C5.81494 19.0967 6.02597 18.793 6.20503 18.4988C6.24341 18.4285 6.2514 18.3598 6.22902 18.2926C6.20664 18.2255 6.16027 18.1727 6.08992 18.1343C5.06674 17.5843 4.18265 16.9272 3.43765 16.163C2.69264 15.3989 2.12029 14.5564 1.72062 13.6355C1.32093 12.7147 1.12109 11.7426 1.12109 10.7194C1.12109 9.5108 1.40087 8.37891 1.96042 7.32375C2.51997 6.26859 3.29695 5.34293 4.29136 4.54676C5.28577 3.7506 6.44164 3.1271 7.75899 2.67626C9.07634 2.22542 10.4896 2 11.9988 2C13.508 2 14.9213 2.22542 16.2386 2.67626C17.5559 3.1271 18.7118 3.7506 19.7063 4.54676C20.7007 5.34293 21.4777 6.26859 22.0371 7.32375C22.5967 8.37891 22.8765 9.5108 22.8765 10.7194C22.8765 11.6723 22.7006 12.5835 22.3489 13.4533C21.9972 14.323 21.4888 15.1207 20.8238 15.8466C20.1587 16.5724 19.3545 17.2039 18.4112 17.741C17.468 18.2782 16.4049 18.6939 15.2219 18.988C14.0388 19.2822 12.7566 19.4292 11.3754 19.4292C11.3178 19.4292 11.257 19.4277 11.193 19.4245C11.1291 19.4213 11.0651 19.4165 11.0012 19.4101C10.9373 19.4101 10.8701 19.4229 10.7998 19.4485C10.7294 19.474 10.6527 19.5156 10.5695 19.5731C10.1603 19.8673 9.69185 20.1567 9.16427 20.4413C8.63669 20.7259 8.10272 20.9864 7.56235 21.223C7.02198 21.4596 6.51838 21.6483 6.05155 21.789ZM7 12C7.82843 12 8.5 11.3284 8.5 10.5C8.5 9.67157 7.82843 9 7 9C6.17157 9 5.5 9.67157 5.5 10.5C5.5 11.3284 6.17157 12 7 12ZM13.5 10.5C13.5 11.3284 12.8284 12 12 12C11.1716 12 10.5 11.3284 10.5 10.5C10.5 9.67157 11.1716 9 12 9C12.8284 9 13.5 9.67157 13.5 10.5ZM17 12C17.8284 12 18.5 11.3284 18.5 10.5C18.5 9.67157 17.8284 9 17 9C16.1716 9 15.5 9.67157 15.5 10.5C15.5 11.3284 16.1716 12 17 12Z" fill="white"/>
</svg>
