<svg width="20" height="20" viewBox="0 0 20 20" fill="none" xmlns="http://www.w3.org/2000/svg">
<g clip-path="url(#clip0_2101_11341)">
<path fill-rule="evenodd" clip-rule="evenodd" d="M5.83203 1.6665H14.1654C14.8284 1.6665 15.4643 1.9299 15.9331 2.39874C16.402 2.86758 16.6654 3.50346 16.6654 4.1665V15.8332C16.6654 16.4962 16.402 17.1321 15.9331 17.6009C15.4643 18.0698 14.8284 18.3332 14.1654 18.3332H5.83203C5.16899 18.3332 4.53311 18.0698 4.06426 17.6009C3.59542 17.1321 3.33203 16.4962 3.33203 15.8332V4.1665C3.33203 3.50346 3.59542 2.86758 4.06426 2.39874C4.53311 1.9299 5.16899 1.6665 5.83203 1.6665ZM11.7665 4.89874C11.2976 4.4299 10.6617 4.1665 9.9987 4.1665C9.33566 4.1665 8.69977 4.4299 8.23093 4.89874C7.76209 5.36758 7.4987 6.00346 7.4987 6.6665C7.4987 7.32955 7.76209 7.96543 8.23093 8.43427C8.69977 8.90311 9.33566 9.1665 9.9987 9.1665C10.6617 9.1665 11.2976 8.90311 11.7665 8.43427C12.2353 7.96543 12.4987 7.32955 12.4987 6.6665C12.4987 6.00346 12.2353 5.36758 11.7665 4.89874ZM8.88254 15.6112C9.2364 15.7577 9.61568 15.8332 9.9987 15.8332C10.7722 15.8332 11.5141 15.5259 12.0611 14.9789C12.6081 14.4319 12.9154 13.6901 12.9154 12.9165C12.9154 12.143 12.6081 11.4011 12.0611 10.8541C11.5141 10.3071 10.7722 9.99984 9.9987 9.99984C9.61568 9.99984 9.2364 10.0753 8.88254 10.2219C8.52867 10.3684 8.20714 10.5833 7.9363 10.8541C7.66547 11.1249 7.45063 11.4465 7.30405 11.8003C7.15747 12.1542 7.08203 12.5335 7.08203 12.9165C7.08203 13.2995 7.15747 13.6788 7.30405 14.0327C7.45063 14.3865 7.66547 14.7081 7.9363 14.9789C8.20714 15.2497 8.52867 15.4646 8.88254 15.6112ZM9.9987 7.49984C10.2197 7.49984 10.4317 7.41204 10.588 7.25576C10.7442 7.09948 10.832 6.88752 10.832 6.6665C10.832 6.44549 10.7442 6.23353 10.588 6.07725C10.4317 5.92097 10.2197 5.83317 9.9987 5.83317C9.77768 5.83317 9.56572 5.92097 9.40944 6.07725C9.25316 6.23353 9.16536 6.44549 9.16536 6.6665C9.16536 6.88752 9.25316 7.09948 9.40944 7.25576C9.56572 7.41204 9.77768 7.49984 9.9987 7.49984ZM9.9987 14.1665C10.3302 14.1665 10.6482 14.0348 10.8826 13.8004C11.117 13.566 11.2487 13.248 11.2487 12.9165C11.2487 12.585 11.117 12.267 10.8826 12.0326C10.6482 11.7982 10.3302 11.6665 9.9987 11.6665C9.66718 11.6665 9.34923 11.7982 9.11481 12.0326C8.88039 12.267 8.7487 12.585 8.7487 12.9165C8.7487 13.248 8.88039 13.566 9.11481 13.8004C9.34923 14.0348 9.66718 14.1665 9.9987 14.1665Z" fill="#E3E4E8"/>
</g>
<defs>
<clipPath id="clip0_2101_11341">
<rect width="20" height="20" fill="white"/>
</clipPath>
</defs>
</svg>
