<svg width="24" height="24" viewBox="0 0 24 24" fill="none" xmlns="http://www.w3.org/2000/svg">
<g clip-path="url(#clip0_2193_18090)">
<path fill-rule="evenodd" clip-rule="evenodd" d="M15.8652 21.9204C15.9772 21.9727 16.0986 21.9998 16.2214 22C16.3647 22.0002 16.5059 21.9639 16.6325 21.8941C16.7591 21.8244 16.8673 21.7234 16.9475 21.6L23.85 10.8728C23.939 10.7359 23.9904 10.5765 23.9988 10.4116C24.0072 10.2467 23.9721 10.0825 23.8975 9.93668C23.8228 9.79088 23.7114 9.66897 23.5751 9.58403C23.4388 9.4991 23.2828 9.45435 23.1238 9.4546H17.9711L18.6447 2.96372C18.6564 2.76882 18.6075 2.57517 18.5051 2.41144C18.4027 2.24771 18.2522 2.1226 18.076 2.05463C17.8928 1.98545 17.6925 1.98187 17.5071 2.04446C17.3217 2.10705 17.1617 2.23221 17.0525 2.40009L10.15 13.1273C10.061 13.2641 10.0096 13.4236 10.0012 13.5885C9.99284 13.7534 10.0279 13.9176 10.1025 14.0634C10.1772 14.2092 10.2886 14.3311 10.4249 14.4161C10.5612 14.501 10.7172 14.5457 10.8762 14.5455H16.0289L15.3553 20.9909C15.3415 21.1177 15.3536 21.2461 15.3909 21.3677C15.4281 21.4893 15.4896 21.6014 15.5713 21.6966C15.653 21.7919 15.7532 21.8681 15.8652 21.9204ZM3 7C2.44772 7 2 7.44772 2 8C2 8.55228 2.44772 9 3 9H8C8.55228 9 9 8.55228 9 8C9 7.44772 8.55228 7 8 7H3ZM2 18C2 17.4477 2.44772 17 3 17H8C8.55228 17 9 17.4477 9 18C9 18.5523 8.55228 19 8 19H3C2.44772 19 2 18.5523 2 18ZM1 12C0.447715 12 0 12.4477 0 13C0 13.5523 0.447715 14 1 14H6C6.55228 14 7 13.5523 7 13C7 12.4477 6.55228 12 6 12H1Z" fill="#E3E4E8"/>
</g>
<defs>
<clipPath id="clip0_2193_18090">
<rect width="24" height="24" fill="white"/>
</clipPath>
</defs>
</svg>
