<svg width="18" height="19" viewBox="0 0 18 19" fill="none" xmlns="http://www.w3.org/2000/svg">
<g clip-path="url(#clip0_2391_8395)">
<path d="M13.5 3.5H12.75V2.75C12.75 2.55109 12.671 2.36032 12.5303 2.21967C12.3897 2.07902 12.1989 2 12 2C11.8011 2 11.6103 2.07902 11.4697 2.21967C11.329 2.36032 11.25 2.55109 11.25 2.75V3.5H6.75V2.75C6.75 2.55109 6.67098 2.36032 6.53033 2.21967C6.38968 2.07902 6.19891 2 6 2C5.80109 2 5.61032 2.07902 5.46967 2.21967C5.32902 2.36032 5.25 2.55109 5.25 2.75V3.5H4.5C3.90326 3.5 3.33097 3.73705 2.90901 4.15901C2.48705 4.58097 2.25 5.15326 2.25 5.75V14.75C2.25 15.3467 2.48705 15.919 2.90901 16.341C3.33097 16.7629 3.90326 17 4.5 17H13.5C14.0967 17 14.669 16.7629 15.091 16.341C15.5129 15.919 15.75 15.3467 15.75 14.75V5.75C15.75 5.15326 15.5129 4.58097 15.091 4.15901C14.669 3.73705 14.0967 3.5 13.5 3.5V3.5ZM6 13.25C5.85166 13.25 5.70666 13.206 5.58332 13.1236C5.45999 13.0412 5.36386 12.9241 5.30709 12.787C5.25032 12.65 5.23547 12.4992 5.26441 12.3537C5.29335 12.2082 5.36478 12.0746 5.46967 11.9697C5.57456 11.8648 5.7082 11.7933 5.85368 11.7644C5.99917 11.7355 6.14997 11.7503 6.28701 11.8071C6.42406 11.8639 6.54119 11.96 6.6236 12.0833C6.70601 12.2067 6.75 12.3517 6.75 12.5C6.75 12.6989 6.67098 12.8897 6.53033 13.0303C6.38968 13.171 6.19891 13.25 6 13.25V13.25ZM12 13.25H9C8.80109 13.25 8.61032 13.171 8.46967 13.0303C8.32902 12.8897 8.25 12.6989 8.25 12.5C8.25 12.3011 8.32902 12.1103 8.46967 11.9697C8.61032 11.829 8.80109 11.75 9 11.75H12C12.1989 11.75 12.3897 11.829 12.5303 11.9697C12.671 12.1103 12.75 12.3011 12.75 12.5C12.75 12.6989 12.671 12.8897 12.5303 13.0303C12.3897 13.171 12.1989 13.25 12 13.25ZM14.25 8.75H3.75V5.75C3.75 5.55109 3.82902 5.36032 3.96967 5.21967C4.11032 5.07902 4.30109 5 4.5 5H5.25V5.75C5.25 5.94891 5.32902 6.13968 5.46967 6.28033C5.61032 6.42098 5.80109 6.5 6 6.5C6.19891 6.5 6.38968 6.42098 6.53033 6.28033C6.67098 6.13968 6.75 5.94891 6.75 5.75V5H11.25V5.75C11.25 5.94891 11.329 6.13968 11.4697 6.28033C11.6103 6.42098 11.8011 6.5 12 6.5C12.1989 6.5 12.3897 6.42098 12.5303 6.28033C12.671 6.13968 12.75 5.94891 12.75 5.75V5H13.5C13.6989 5 13.8897 5.07902 14.0303 5.21967C14.171 5.36032 14.25 5.55109 14.25 5.75V8.75Z" fill="#E3E4E8"/>
</g>
<defs>
<clipPath id="clip0_2391_8395">
<rect width="18" height="18" fill="white" transform="translate(0 0.5)"/>
</clipPath>
</defs>
</svg>
