<svg width="24" height="24" viewBox="0 0 24 24" fill="none" xmlns="http://www.w3.org/2000/svg">
<g id="Icon/Heating" clip-path="url(#clip0_2503_5823)">
<path id="Vector" fill-rule="evenodd" clip-rule="evenodd" d="M7.66885 8.10932C7.85026 8.52975 7.66885 8.99429 7.23797 9.17132C7.12472 9.21546 7.03395 9.2377 6.94331 9.23786C6.60326 9.23786 6.30841 9.06085 6.17238 8.75109L5.90032 8.13158C5.46945 7.15801 5.62809 6.02952 6.3084 5.21092C6.64848 4.79049 6.69387 4.19306 6.39904 3.75058L6.05897 3.21953C5.83216 2.84339 5.94556 2.35664 6.33103 2.11325C6.71651 1.89194 7.23799 2.00259 7.46481 2.37871L7.78226 2.90976C8.43993 3.92758 8.34915 5.2552 7.57822 6.20652C7.28338 6.56053 7.21537 7.06938 7.39679 7.48981L7.66885 8.10932ZM11.2518 7.48979L11.5239 8.10931C11.7053 8.52974 11.5239 8.99442 11.1158 9.1716C11.0252 9.21589 10.9118 9.23796 10.7984 9.23796C10.4583 9.23796 10.1635 9.06095 10.0274 8.7512L9.75537 8.13168C9.32449 7.15811 9.48314 6.02963 10.1635 5.21102C10.5035 4.79059 10.5489 4.19316 10.2541 3.75069L9.91402 3.21963C9.68721 2.8435 9.80061 2.35674 10.1861 2.11335C10.5716 1.89205 11.0932 2.0027 11.3199 2.37881L11.6373 2.90975C12.295 3.92757 12.2042 5.25518 11.4333 6.20651C11.1384 6.56052 11.0704 7.06937 11.2518 7.48979ZM15.5147 2.9098L15.1745 2.37874C14.9478 2.00263 14.4263 1.89198 14.0407 2.11328C13.6552 2.35667 13.5418 2.84343 13.7686 3.21956L14.0861 3.75062C14.3809 4.19309 14.3355 4.79052 13.9954 5.21095C13.3151 6.02956 13.1565 7.15804 13.5874 8.13161L13.8594 8.75113C13.9954 9.06088 14.2903 9.23789 14.6303 9.23789C14.7438 9.23789 14.8572 9.21582 14.9478 9.17153C15.3559 8.9945 15.5601 8.52996 15.3787 8.10954L15.1066 7.49002C14.9252 7.06959 14.9932 6.56074 15.288 6.20673C16.0816 5.27718 16.1722 3.9497 15.5147 2.9098ZM2.95238 10.875H4.58502C5.10668 10.875 5.5374 11.2954 5.5374 11.8264V21.0706C5.5374 21.5794 5.10652 21.9999 4.58502 21.9999H2.95238C2.43088 21.9999 2 21.5794 2 21.0706V11.8043C2 11.2954 2.43088 10.875 2.95238 10.875ZM9.27913 10.875H7.64648C7.12498 10.875 6.69411 11.2954 6.69411 11.8043V21.0706C6.69411 21.5794 7.12498 21.9998 7.64648 21.9998L9.27913 22C9.80063 22 10.2315 21.5796 10.2315 21.0707V11.8266C10.2315 11.2955 9.80063 10.875 9.27913 10.875ZM12.3175 10.875H13.9502C14.4717 10.875 14.9025 11.2954 14.9025 11.8264V21.0706C14.9025 21.5794 14.4717 21.9999 13.9502 21.9999H12.3175C11.796 21.9999 11.3651 21.5794 11.3651 21.0706V11.8043C11.3651 11.2954 11.796 10.875 12.3175 10.875ZM18.6443 10.875H17.0116C16.4901 10.875 16.0592 11.2954 16.0592 11.8043V21.0706C16.0592 21.5794 16.4901 21.9999 17.0116 21.9999H18.6443C19.1658 21.9999 19.5966 21.5794 19.5966 21.0706L19.5968 11.8264C19.5968 11.2954 19.1659 10.875 18.6443 10.875ZM20.5942 12.5344C20.5942 12.1583 20.9116 11.8485 21.2971 11.8485C21.6826 11.8485 22 12.1583 22 12.5344V14.0831C22 14.4592 21.6826 14.769 21.2971 14.769C20.9116 14.769 20.5942 14.4592 20.5942 14.0831V12.5344Z" fill="#EEEFF1"/>
</g>
<defs>
<clipPath id="clip0_2503_5823">
<rect width="24" height="24" fill="white"/>
</clipPath>
</defs>
</svg>
