<svg width="20" height="20" viewBox="0 0 20 20" fill="none" xmlns="http://www.w3.org/2000/svg">
<g id="Icon/Voice">
<path id="Vector" d="M1.52329 11.8051C1.72377 11.8051 1.88988 11.7363 2.02162 11.5988C2.15336 11.4614 2.21923 11.2982 2.21923 11.1091V8.50581C2.21923 8.31678 2.15336 8.1521 2.02162 8.01177C1.88988 7.87143 1.72377 7.80126 1.52329 7.80126C1.32854 7.80126 1.16529 7.87143 1.03355 8.01177C0.901808 8.1521 0.835938 8.31678 0.835938 8.50581V11.1091C0.835938 11.2982 0.901808 11.4614 1.03355 11.5988C1.16529 11.7363 1.32854 11.8051 1.52329 11.8051ZM4.41016 15.3192C4.61064 15.3192 4.77818 15.2519 4.91279 15.1173C5.04739 14.9827 5.11469 14.818 5.11469 14.6232V4.99173C5.11469 4.79697 5.04739 4.63086 4.91279 4.49339C4.77818 4.35592 4.61064 4.28718 4.41016 4.28718C4.21541 4.28718 4.0536 4.35592 3.92472 4.49339C3.79584 4.63086 3.7314 4.79697 3.7314 4.99173V14.6232C3.7314 14.818 3.79584 14.9827 3.92472 15.1173C4.0536 15.2519 4.21541 15.3192 4.41016 15.3192ZM7.29703 18.7817C7.49751 18.7817 7.66505 18.7144 7.79966 18.5798C7.93426 18.4452 8.00156 18.2805 8.00156 18.0858V1.52919C8.00156 1.33445 7.93426 1.16977 7.79966 1.03516C7.66505 0.900555 7.49751 0.833252 7.29703 0.833252C7.10228 0.833252 6.94047 0.900555 6.81159 1.03516C6.68271 1.16977 6.61828 1.33445 6.61828 1.52919V18.0858C6.61828 18.2805 6.68271 18.4452 6.81159 18.5798C6.94047 18.7144 7.10228 18.7817 7.29703 18.7817ZM10.2011 14.271C10.3958 14.271 10.5591 14.2051 10.6908 14.0733C10.8226 13.9416 10.8885 13.7783 10.8885 13.5836V6.03134C10.8885 5.83659 10.8226 5.67191 10.6908 5.5373C10.5591 5.4027 10.3958 5.3354 10.2011 5.3354C10.0006 5.3354 9.83447 5.4027 9.70274 5.5373C9.57101 5.67191 9.50515 5.83659 9.50515 6.03134V13.5836C9.50515 13.7783 9.57101 13.9416 9.70274 14.0733C9.83447 14.2051 10.0006 14.271 10.2011 14.271ZM12.4006 11.7277C12.6068 11.6132 12.8345 11.5502 13.0837 11.5388C13.3328 11.5273 13.5662 11.5703 13.7839 11.6676V3.428C13.7839 3.23898 13.7166 3.07574 13.582 2.93826C13.4474 2.8008 13.2827 2.73206 13.088 2.73206C12.8875 2.73206 12.7228 2.8008 12.594 2.93826C12.465 3.07574 12.4006 3.23898 12.4006 3.428V11.7277ZM13.8355 18.9535H18.2087C18.3462 18.9535 18.4565 18.912 18.5395 18.8289C18.6226 18.7459 18.6641 18.6356 18.6641 18.4981C18.6641 18.3607 18.6226 18.2476 18.5395 18.1588C18.4565 18.07 18.3462 18.0256 18.2087 18.0256H16.4904V17.1664C17.0574 17.0977 17.5543 16.9173 17.981 16.6251C18.4077 16.333 18.7414 15.955 18.982 15.491C19.2226 15.0271 19.3429 14.503 19.3429 13.9187V13.1626C19.3429 13.0423 19.297 12.9364 19.2054 12.8447C19.1138 12.7531 19.0078 12.7072 18.8875 12.7072C18.7614 12.7072 18.6541 12.7531 18.5653 12.8447C18.4765 12.9364 18.4321 13.0423 18.4321 13.1626V13.9187C18.4321 14.3884 18.329 14.8036 18.1228 15.1645C17.9166 15.5254 17.6331 15.8075 17.2722 16.0108C16.9113 16.2142 16.4932 16.3158 16.0178 16.3158C15.5424 16.3158 15.1242 16.2142 14.7634 16.0108C14.4025 15.8075 14.1204 15.5254 13.9171 15.1645C13.7138 14.8036 13.6121 14.3884 13.6121 13.9187V13.1626C13.6121 13.0423 13.5662 12.9364 13.4746 12.8447C13.3829 12.7531 13.2741 12.7072 13.1481 12.7072C13.0278 12.7072 12.9233 12.7531 12.8345 12.8447C12.7457 12.9364 12.7013 13.0423 12.7013 13.1626V13.9187C12.7013 14.503 12.8202 15.0271 13.0579 15.491C13.2956 15.955 13.6293 16.3344 14.0588 16.6294C14.4884 16.9244 14.9896 17.1034 15.5624 17.1664V18.0256H13.8355C13.698 18.0256 13.5863 18.07 13.5003 18.1588C13.4144 18.2476 13.3714 18.3607 13.3714 18.4981C13.3714 18.6356 13.4144 18.7459 13.5003 18.8289C13.5863 18.912 13.698 18.9535 13.8355 18.9535ZM16.0178 15.448C16.4417 15.448 16.7853 15.3034 17.0488 15.0142C17.3123 14.7249 17.4441 14.3626 17.4441 13.9273V10.5506C17.4441 10.1153 17.3123 9.75447 17.0488 9.46812C16.7853 9.1817 16.4417 9.03849 16.0178 9.03849C15.5939 9.03849 15.2503 9.1817 14.9868 9.46812C14.7233 9.75447 14.5916 10.1153 14.5916 10.5506V13.9273C14.5916 14.3626 14.7233 14.7249 14.9868 15.0142C15.2503 15.3034 15.5939 15.448 16.0178 15.448Z" fill="#E3E4E8"/>
</g>
</svg>
