<svg width="20" height="20" viewBox="0 0 20 20" fill="none" xmlns="http://www.w3.org/2000/svg">
<path fill-rule="evenodd" clip-rule="evenodd" d="M1.66406 3.66699C1.66406 2.96693 1.66406 2.61689 1.8003 2.3495C1.92015 2.1143 2.11137 1.92308 2.34657 1.80323C2.61396 1.66699 2.964 1.66699 3.66406 1.66699H16.3307C17.0308 1.66699 17.3808 1.66699 17.6482 1.80323C17.8834 1.92308 18.0746 2.1143 18.1945 2.3495C18.3307 2.61689 18.3307 2.96693 18.3307 3.66699V8.00033C18.3307 8.70039 18.3307 9.05042 18.1945 9.31781C18.0746 9.55302 17.8834 9.74424 17.6482 9.86408C17.3808 10.0003 17.0308 10.0003 16.3307 10.0003H3.66406C2.964 10.0003 2.61396 10.0003 2.34657 9.86408C2.11137 9.74424 1.92015 9.55302 1.8003 9.31781C1.66406 9.05042 1.66406 8.70039 1.66406 8.00033V3.66699ZM13.3307 4.16699C13.3307 3.70675 13.7038 3.33366 14.1641 3.33366H15.8307C16.291 3.33366 16.6641 3.70675 16.6641 4.16699C16.6641 4.62723 16.291 5.00033 15.8307 5.00033H14.1641C13.7038 5.00033 13.3307 4.62723 13.3307 4.16699ZM7.50418 16.7581C7.65535 17.1085 7.50418 17.4956 7.14511 17.6431C7.05074 17.6799 6.97509 17.6984 6.89957 17.6985C6.61619 17.6985 6.37048 17.551 6.25712 17.2929L6.03041 16.7766C5.67134 15.9653 5.80355 15.0249 6.37047 14.3428C6.65387 13.9924 6.6917 13.4945 6.446 13.1258L6.16261 12.6833C5.97361 12.3698 6.06811 11.9642 6.38933 11.7614C6.71057 11.5769 7.14513 11.6692 7.33415 11.9826L7.59869 12.4251C8.14675 13.2733 8.07109 14.3797 7.42865 15.1724C7.18295 15.4674 7.12628 15.8915 7.27746 16.2418L7.50418 16.7581ZM10.49 16.2418L10.7167 16.7581C10.8679 17.1084 10.7167 17.4957 10.3766 17.6433C10.3011 17.6802 10.2066 17.6986 10.1121 17.6986C9.82873 17.6986 9.58302 17.5511 9.46966 17.293L9.24295 16.7767C8.88388 15.9654 9.01609 15.025 9.58302 14.3428C9.86641 13.9925 9.90424 13.4946 9.65854 13.1259L9.37515 12.6834C9.18615 12.3699 9.28065 11.9643 9.60187 11.7615C9.92311 11.577 10.3578 11.6692 10.5467 11.9827L10.8112 12.4251C11.3593 13.2733 11.2836 14.3796 10.6412 15.1724C10.3955 15.4674 10.3388 15.8915 10.49 16.2418ZM14.0424 12.4252L13.7589 11.9826C13.57 11.6692 13.1354 11.577 12.814 11.7614C12.4928 11.9642 12.3983 12.3698 12.5873 12.6833L12.8519 13.1258C13.0976 13.4946 13.0597 13.9924 12.7763 14.3428C12.2094 15.025 12.0772 15.9654 12.4363 16.7767L12.663 17.2929C12.7763 17.5511 13.022 17.6986 13.3054 17.6986C13.3999 17.6986 13.4944 17.6802 13.57 17.6433C13.91 17.4957 14.0802 17.1086 13.929 16.7583L13.7023 16.242C13.5511 15.8917 13.6078 15.4676 13.8535 15.1726C14.5148 14.398 14.5903 13.2917 14.0424 12.4252ZM3.7474 8.33366C3.51728 8.33366 3.33073 8.52021 3.33073 8.75033C3.33073 8.98044 3.51728 9.16699 3.7474 9.16699H16.2474C16.4775 9.16699 16.6641 8.98044 16.6641 8.75033C16.6641 8.52021 16.4775 8.33366 16.2474 8.33366H3.7474Z" fill="white"/>
</svg>
