<svg width="16" height="16" viewBox="0 0 16 16" fill="none" xmlns="http://www.w3.org/2000/svg">
<g clip-path="url(#clip0_3367_25950)">
<path d="M12.6673 2.66699H3.33398C2.80355 2.66699 2.29484 2.87771 1.91977 3.25278C1.5447 3.62785 1.33398 4.13656 1.33398 4.66699V11.3337C1.33398 11.8641 1.5447 12.3728 1.91977 12.7479C2.29484 13.1229 2.80355 13.3337 3.33398 13.3337H12.6673C13.1978 13.3337 13.7065 13.1229 14.0815 12.7479C14.4566 12.3728 14.6673 11.8641 14.6673 11.3337V4.66699C14.6673 4.13656 14.4566 3.62785 14.0815 3.25278C13.7065 2.87771 13.1978 2.66699 12.6673 2.66699ZM12.6673 4.00033L8.33398 6.98033C8.23264 7.03884 8.11768 7.06964 8.00065 7.06964C7.88363 7.06964 7.76866 7.03884 7.66732 6.98033L3.33398 4.00033H12.6673Z" fill="#E3E4E8"/>
</g>
<defs>
<clipPath id="clip0_3367_25950">
<rect width="16" height="16" fill="white"/>
</clipPath>
</defs>
</svg>
