<svg width="24" height="24" viewBox="0 0 24 24" fill="none" xmlns="http://www.w3.org/2000/svg">
<path d="M3.93651 21H20.0635C21.0455 21 21.7804 20.7647 22.2683 20.2941C22.7561 19.8235 23 19.1145 23 18.1672V9.13002C23 8.17647 22.7561 7.46594 22.2683 6.99845C21.7804 6.53096 21.0455 6.29721 20.0635 6.29721H3.93651C2.96084 6.29721 2.2275 6.53096 1.7365 6.99845C1.2455 7.46594 1 8.17647 1 9.13002V18.1672C1 19.1145 1.2455 19.8235 1.7365 20.2941C2.2275 20.7647 2.96084 21 3.93651 21ZM7.17712 7.10526H8.65012V5.4613C8.65012 5.10836 8.75148 4.83591 8.95422 4.64397C9.15696 4.45201 9.44522 4.35603 9.81901 4.35603H14.181C14.5484 4.35603 14.8335 4.45201 15.0363 4.64397C15.239 4.83591 15.3404 5.10836 15.3404 5.4613V7.08669H16.8134V5.56346C16.8134 4.6904 16.5853 4.04489 16.1292 3.62693C15.6731 3.20898 15.0141 3 14.1525 3H9.83802C9.02708 3 8.38085 3.20898 7.89935 3.62693C7.41786 4.04489 7.17712 4.6904 7.17712 5.56346V7.10526Z" fill="#EEEFF1"/>
</svg>
