<svg width="20" height="20" viewBox="0 0 20 20" fill="none" xmlns="http://www.w3.org/2000/svg">
<g clip-path="url(#clip0_2046_8917)">
<path d="M16.5675 16.5885C16.3586 16.0628 15.7304 15.796 15.5114 15.2745C15.3257 14.8323 15.1295 14.3307 15.0952 14.109C14.9208 13.0712 15.226 10.8453 15.536 9.05209C15.8411 7.28677 16.2455 5.38911 15.3601 3.83173C14.348 2.05166 12.3223 0.833496 9.9987 0.833496C7.65472 0.833388 5.6026 2.06214 4.59299 3.86139C3.73466 5.39106 4.12433 7.24743 4.42076 8.97623C4.73061 10.7833 5.04337 13.0496 4.87956 14.0871C4.84524 14.3087 4.64911 14.8103 4.46339 15.2524C4.24432 15.774 3.59007 16.0459 3.42989 16.5885C3.36195 16.8299 3.24866 17.4004 3.42989 17.554C5.85363 19.7044 14.1438 19.7044 16.5675 17.554C16.7487 17.4004 16.6354 16.808 16.5675 16.5885ZM6.01207 8.05266C6.01207 7.52599 6.39712 6.69223 7.30326 6.69223C8.20922 6.69223 9.2966 7.39449 9.2966 8.05266C9.2966 8.57933 8.57168 9.01819 7.66572 9.01819C6.73698 9.01819 6.01207 8.57937 6.01207 8.05266ZM9.97601 13.2751C8.97932 13.2751 8.18665 12.6826 8.18665 11.9147C8.18665 11.1686 8.97952 10.9931 9.97601 10.9931C10.9727 10.9931 11.7654 11.1905 11.7654 11.9147C11.7655 12.6826 10.9727 13.2751 9.97601 13.2751ZM12.3544 9.01815C11.4484 9.01815 10.7009 8.57933 10.7235 8.05262C10.7235 7.41635 11.8107 6.69219 12.7169 6.69219C13.6228 6.69219 14.0081 7.50405 14.0081 8.05262C14.0081 8.57929 13.2606 9.01815 12.3544 9.01815Z" fill="white"/>
</g>
<defs>
<clipPath id="clip0_2046_8917">
<rect width="20" height="20" fill="white"/>
</clipPath>
</defs>
</svg>
