<svg width="20" height="20" viewBox="0 0 20 20" fill="none" xmlns="http://www.w3.org/2000/svg">
<g clip-path="url(#clip0_2046_8923)">
<path d="M10.0019 1.6665C11.0832 1.6665 12.0631 2.09666 12.7645 2.8784C13.4752 3.67046 13.8213 4.73474 13.7397 5.8768C13.5767 8.15059 11.9031 9.99979 10.0019 9.99979C8.10062 9.99979 6.42396 8.15059 6.26399 5.876C6.18323 4.72363 6.52702 3.65697 7.23306 2.87126C7.93141 2.09507 8.91434 1.6665 10.0019 1.6665Z" fill="#E3E4E8"/>
<path d="M3.17441 18.2274C3.32527 18.2991 3.48971 18.3352 3.65577 18.3331H16.3461C16.5123 18.3354 16.6769 18.2994 16.8279 18.2277C16.9789 18.156 17.1125 18.0505 17.219 17.9188C17.4528 17.6291 17.5474 17.2347 17.4774 16.8355C17.1736 15.0942 16.223 13.6307 14.7309 12.6037C13.405 11.6926 11.7253 11.1903 10.0009 11.1903C8.27658 11.1903 6.59684 11.6918 5.2709 12.6037C3.77806 13.6315 2.82898 15.0942 2.52441 16.8363C2.48801 17.0253 2.49236 17.2202 2.53716 17.4073C2.58195 17.5944 2.66609 17.769 2.7836 17.9188C2.89004 18.0503 3.02354 18.1558 3.17441 18.2274Z" fill="#E3E4E8"/>
</g>
<defs>
<clipPath id="clip0_2046_8923">
<rect width="20" height="20" fill="white"/>
</clipPath>
</defs>
</svg>
