<svg width="32" height="32" viewBox="0 0 32 32" fill="none" xmlns="http://www.w3.org/2000/svg">
<g id="Icon/Floor" clip-path="url(#clip0_3367_8003)">
<path id="Vector" fill-rule="evenodd" clip-rule="evenodd" d="M10.6056 15.1469C11.2569 14.8882 11.5311 14.2093 11.2569 13.5949L10.8457 12.6895C10.5715 12.075 10.6743 11.3314 11.1199 10.814C12.2852 9.42375 12.4224 7.48353 11.4283 5.99606L10.9485 5.21996C10.6057 4.67029 9.81744 4.50859 9.23477 4.83201C8.65213 5.1877 8.48073 5.89906 8.82355 6.44876L9.33757 7.22486C9.78322 7.8715 9.71461 8.74461 9.20058 9.35903C8.17227 10.5554 7.93247 12.2046 8.58375 13.6274L8.99498 14.5328C9.20059 14.9854 9.64626 15.2441 10.1603 15.2441C10.2973 15.2439 10.4345 15.2114 10.6056 15.1469ZM17.0839 13.5948L16.6727 12.6895C16.3985 12.075 16.5013 11.3314 16.9469 10.814C18.1122 9.42373 18.2494 7.48351 17.2553 5.99604L16.7755 5.22011C16.4329 4.67045 15.6444 4.50874 15.0618 4.83216C14.4791 5.18786 14.3077 5.89922 14.6505 6.44891L15.1646 7.22501C15.6102 7.87166 15.5416 8.74476 15.0276 9.35918C13.9993 10.5555 13.7595 12.2047 14.4107 13.6275L14.822 14.5329C15.0276 14.9856 15.4733 15.2443 15.9872 15.2443C16.1587 15.2443 16.3301 15.212 16.4671 15.1473C17.0839 14.8884 17.3582 14.2093 17.0839 13.5948ZM22.6018 5.22001L23.1161 5.99611C24.11 7.51586 23.973 9.45587 22.7735 10.8144C22.3279 11.3317 22.225 12.0754 22.4993 12.6898L22.9105 13.5952C23.1847 14.2096 22.876 14.8885 22.2592 15.1472C22.1222 15.2119 21.9508 15.2442 21.7794 15.2442C21.2654 15.2442 20.8197 14.9855 20.6141 14.5328L20.2029 13.6274C19.5516 12.2046 19.7914 10.5554 20.8197 9.35908C21.3337 8.74466 21.4023 7.87155 20.9567 7.22491L20.4769 6.44881C20.134 5.89912 20.3054 5.18776 20.8881 4.83206C21.4709 4.50864 22.2592 4.67034 22.6018 5.22001ZM2.66602 21.2887C2.66602 20.4542 3.3293 19.7776 4.1475 19.7776H27.8512C28.6694 19.7776 29.3327 20.4542 29.3327 21.2887C29.3327 22.1233 28.6694 22.7998 27.8512 22.7998H4.1475C3.3293 22.7998 2.66602 22.1233 2.66602 21.2887ZM2.66602 25.8221C2.66602 24.9875 3.3293 24.3109 4.1475 24.3109H27.8512C28.6694 24.3109 29.3327 24.9875 29.3327 25.8221C29.3327 26.6566 28.6694 27.3332 27.8512 27.3332H4.1475C3.3293 27.3332 2.66602 26.6566 2.66602 25.8221Z" fill="#E3E4E8"/>
</g>
<defs>
<clipPath id="clip0_3367_8003">
<rect width="32" height="32" fill="white"/>
</clipPath>
</defs>
</svg>
