<svg width="20" height="20" viewBox="0 0 20 20" fill="none" xmlns="http://www.w3.org/2000/svg">
<g clip-path="url(#clip0_1972_2298)">
<path d="M14.4998 18.3338C11.0976 18.3293 7.83593 16.9758 5.43017 14.5701C3.02441 12.1643 1.67091 8.90268 1.6665 5.50042C1.6665 4.48376 2.07037 3.50873 2.78926 2.78984C3.50815 2.07096 4.48317 1.66709 5.49984 1.66709C5.71512 1.66545 5.93004 1.68499 6.1415 1.72542C6.34567 1.75542 6.5465 1.80625 6.7415 1.87542C6.87838 1.92345 7.00034 2.00637 7.09535 2.11598C7.19035 2.2256 7.25509 2.35811 7.28317 2.50042L8.42484 7.50042C8.45561 7.63614 8.4519 7.7774 8.41406 7.91132C8.37621 8.04524 8.30543 8.16755 8.20817 8.26709C8.09984 8.38375 8.0915 8.39209 7.0665 8.92542C7.88733 10.7261 9.3275 12.1722 11.1248 13.0004C11.6665 11.9671 11.6748 11.9588 11.7915 11.8504C11.891 11.7532 12.0133 11.6824 12.1473 11.6445C12.2812 11.6067 12.4225 11.603 12.5582 11.6338L17.5582 12.7754C17.6959 12.8075 17.8232 12.874 17.9282 12.9687C18.0331 13.0635 18.1123 13.1833 18.1582 13.3171C18.2997 13.7156 18.3702 14.1359 18.3665 14.5588C18.3511 15.5711 17.9359 16.5362 17.2115 17.2435C16.487 17.9507 15.5122 18.3427 14.4998 18.3338Z" fill="#E3E4E8"/>
</g>
<defs>
<clipPath id="clip0_1972_2298">
<rect width="20" height="20" fill="white"/>
</clipPath>
</defs>
</svg>
