<svg width="20" height="20" viewBox="0 0 20 20" fill="none" xmlns="http://www.w3.org/2000/svg">
<g clip-path="url(#clip0_2046_8911)">
<path d="M10.0011 18.3332C8.83212 18.3331 7.69018 17.983 6.72329 17.3283C5.75639 16.6736 5.00914 15.7445 4.57843 14.6615C4.14771 13.5785 4.05339 12.3914 4.3077 11.2544C4.56201 10.1173 5.15321 9.08253 6.00466 8.28433C7.04848 7.30526 9.61215 5.54247 9.22324 1.6665C13.8901 4.76728 16.2235 7.86805 11.5567 12.5192C12.3345 12.5192 13.5012 12.5192 15.4457 10.6045C15.6557 11.2037 15.8346 11.8479 15.8346 12.5192C15.8346 14.0612 15.22 15.54 14.126 16.6303C13.032 17.7206 11.5482 18.3332 10.0011 18.3332Z" fill="#E3E4E8"/>
</g>
<defs>
<clipPath id="clip0_2046_8911">
<rect width="20" height="20" fill="white"/>
</clipPath>
</defs>
</svg>
