<svg width="24" height="24" viewBox="0 0 24 24" fill="none" xmlns="http://www.w3.org/2000/svg">
<g clip-path="url(#clip0_1972_15589)">
<path fill-rule="evenodd" clip-rule="evenodd" d="M5.25039 3.93866L20.0578 18.7453C20.1443 18.8315 20.2129 18.9339 20.2598 19.0466C20.3066 19.1594 20.3307 19.2803 20.3307 19.4024C20.3307 19.5245 20.3066 19.6454 20.2598 19.7581C20.2129 19.8709 20.1443 19.9733 20.0578 20.0594C19.9717 20.1462 19.8694 20.215 19.7566 20.262C19.6438 20.309 19.5228 20.3332 19.4007 20.3332C19.2785 20.3332 19.1575 20.309 19.0448 20.262C18.932 20.215 18.8296 20.1462 18.7436 20.0594L3.93623 5.25275C3.84994 5.16647 3.7815 5.06403 3.7348 4.9513C3.6881 4.83856 3.66406 4.71773 3.66406 4.59571C3.66406 4.47368 3.6881 4.35285 3.7348 4.24012C3.7815 4.12738 3.84994 4.02495 3.93623 3.93866C4.02252 3.85238 4.12496 3.78393 4.2377 3.73724C4.35044 3.69054 4.47128 3.6665 4.59331 3.6665C4.71534 3.6665 4.83618 3.69054 4.94892 3.73724C5.06166 3.78393 5.1641 3.85238 5.25039 3.93866ZM18.4753 15.834C18.9628 14.5624 19.0773 13.178 18.8051 11.8436C18.533 10.5092 17.8856 9.28022 16.939 8.30108L12.7189 3.96087C12.634 3.87175 12.5321 3.80048 12.4193 3.75122C12.3064 3.70196 12.1849 3.6757 12.0618 3.67399C11.9378 3.67327 11.8149 3.69747 11.7005 3.74516C11.586 3.79285 11.4823 3.86306 11.3955 3.95161L8.98004 6.37621L18.4753 15.834ZM6.44418 9.05992C5.45245 10.4139 4.96838 12.0735 5.07665 13.7483C5.18493 15.4231 5.87866 17.0065 7.03647 18.2216C7.67019 18.8799 8.42862 19.4055 9.26756 19.7678C10.1065 20.13 11.0091 20.3217 11.9229 20.3315C13.4818 20.3453 14.998 19.8225 16.217 18.8508L6.44418 9.05992Z" fill="white"/>
</g>
<defs>
<clipPath id="clip0_1972_15589">
<rect width="20" height="20" fill="white" transform="translate(2 2)"/>
</clipPath>
</defs>
</svg>
